<svg width="80" height="64" viewBox="0 0 80 64" version="1.1" xmlns="http://www.w3.org/2000/svg" xmlns:xlink="http://www.w3.org/1999/xlink">
<g id="Canvas" fill="none">
<g id="Group" opacity="0.85">
<g id="XMLID 26">
<path d="M 42.8902 0.505433C 43.5641 -0.0486809 44.4831 -0.171817 45.2796 0.25916C 46.995 1.30582 48.7104 2.29091 50.242 3.46071C 51.7736 4.69207 53.1215 4.69207 54.6531 3.70698C 56.3072 2.59875 57.8388 2.22934 59.6155 3.70698C 60.2894 4.2611 62.1274 4.01482 63.0464 3.52228C 66.1709 1.7368 71.1333 4.01482 71.3784 7.58578C 71.5009 9.30969 71.746 11.0336 71.8685 12.8191C 72.0523 15.5281 72.6649 17.7445 75.2993 19.4684C 76.7084 20.3304 77.5661 22.9163 77.6274 24.7633C 77.995 31.1048 77.8725 37.4464 77.995 43.8495C 78.0563 45.3887 77.5661 46.1275 75.9732 46.1275C 72.4811 46.1275 69.0503 46.3122 65.5582 46.1275C 64.7618 46.0659 63.5365 44.8961 63.4139 44.0957C 62.5562 37.5079 60.8408 35.9072 54.1017 36.0303C 43.6254 36.215 33.0878 36.5228 22.6116 36.3997C 17.404 36.3381 15.1372 38.924 14.7697 44.5267C 14.7084 45.1424 14.7084 45.7581 14.7084 46.62L 1.41392 46.8047C 0.740003 46.8047 0.249884 46.3122 0.249884 45.6349C 0.127354 38.3083 -0.117705 30.9817 0.0660891 23.7167C 0.127354 22.3006 1.90403 21.0077 2.82301 19.5916C 3.68072 18.2371 4.66095 16.821 5.15107 15.3434C 5.57993 13.9273 5.33487 12.265 5.39613 10.7258C 5.64119 5.67716 6.43763 3.76855 11.0938 3.70698C 14.157 3.64541 16.4238 4.75364 19.487 3.58384C 19.9772 3.39914 20.7123 3.46071 21.1412 3.76855C 24.4495 5.92344 27.0226 3.89169 29.5957 1.7368C 31.6788 -0.048681 33.7618 -0.602795 35.7222 2.04464C 36.3961 2.90659 37.3764 3.52228 38.4792 4.4458C 39.9495 3.15287 41.4199 1.85993 42.8902 0.505433ZM 12.8092 45.6349C 13.5444 36.9538 17.4653 35.2299 22.1827 35.1068C 33.3942 34.7989 44.6056 34.7374 55.8171 34.6758C 61.2697 34.6142 64.0266 37.3232 64.6392 42.6797C 64.7005 43.48 65.4969 44.8345 65.9871 44.8345C 69.1728 44.9577 72.3586 44.8961 75.7894 44.8345C 76.2183 44.8345 76.5246 44.4651 76.5246 44.0957C 76.4634 37.077 76.5246 30.4892 76.2183 23.8398C 76.0345 20.6382 73.5227 19.0375 69.908 19.0375C 49.078 19.2837 28.3092 19.53 7.47914 19.8379C 3.37439 19.8994 1.29139 21.7465 1.16886 25.7484C 1.04633 31.7205 1.16886 37.6311 1.41392 43.6032C 1.41392 44.342 2.70048 45.6349 3.49692 45.6965C 6.4989 45.8812 9.56214 45.6965 12.8092 45.6349ZM 16.4851 14.3583C 16.0562 14.3583 15.6274 14.3583 15.1985 14.3583C 15.1985 12.3881 15.5661 10.2948 15.0147 8.5093C 14.5859 7.1548 13.4218 5.36932 11.8289 5.24619C 10.2361 5.12305 7.66293 6.60069 7.35661 7.89362C 6.4989 11.0336 6.68269 14.4814 6.37637 18.1755C 9.37835 18.1139 12.1353 18.1139 14.8309 18.0524C 23.5305 17.9292 23.408 17.9292 23.7756 9.00185C 23.8981 5.985 22.3052 5.24619 20.0384 4.93834C 18.0167 4.69207 16.3625 6.66225 16.3625 9.12498C 16.4238 10.9105 16.4238 12.6344 16.4851 14.3583ZM 60.9634 13.8042C 60.7183 13.7426 60.5345 13.4963 60.5345 13.2501C 60.5345 11.3414 60.8408 9.37125 60.2894 7.64735C 59.8606 6.35441 58.0839 4.81521 56.8586 4.75364C 55.2045 4.69207 52.7539 5.18462 53.1215 8.01676C 53.489 11.1567 53.7954 14.2967 54.163 17.3751L 71.1333 17.1904C 70.6432 13.6195 70.5819 10.2948 69.6017 7.21637C 69.1728 5.92344 66.7223 4.81521 65.1294 4.6305C 64.2717 4.56894 62.8013 6.53912 62.3112 7.83205C 61.8211 9.18655 62.3112 10.8489 62.1887 12.3881C 62.1887 12.7575 61.9436 13.1269 61.7598 13.4963C 61.5147 13.7426 61.2084 13.8657 60.9634 13.8042ZM 45.8309 2.47562C 44.7894 2.04464 43.5641 2.22934 42.6452 2.84503C 41.0523 3.95325 38.6629 4.93834 41.8487 7.89362C 42.155 8.13989 42.155 9.24812 41.8487 9.61753C 39.3981 12.5728 41.4811 15.0355 42.4001 17.5598L 52.3863 17.4367C 52.2637 11.2799 52.6926 5.06148 45.8309 2.47562ZM 24.6946 17.9908C 27.2064 17.9292 29.3507 17.9292 31.4337 17.9292C 35.8448 17.8677 37.6827 14.2351 35.5384 10.2332C 35.1096 9.43283 35.2321 7.77048 35.7835 7.21637C 37.1926 5.86187 36.5799 5.06148 35.5997 3.95325C 33.7618 1.79837 31.9238 1.42896 29.7795 3.39914C 28.3092 4.75364 26.0424 5.86187 25.6135 7.46264C 24.8171 10.6026 25.0009 14.0504 24.6946 17.9908ZM 40.746 17.5598C 40.072 15.7744 39.5207 14.3583 38.9693 12.9422C 38.6629 13.0038 38.3566 13.0653 38.0503 13.1269C 37.5602 14.543 37.0701 15.8975 36.5187 17.6214C 37.9278 17.6214 38.9693 17.6214 40.746 17.5598ZM 38.6017 11.5261C 40.746 9.80224 40.991 8.3246 38.6629 6.84696C 35.906 8.3246 36.1511 9.74067 38.6017 11.5261Z" transform="translate(1 16.1953)" fill="#B0E519"/>
<path d="M 42.8902 0.505433C 43.5641 -0.0486809 44.4831 -0.171817 45.2796 0.25916C 46.995 1.30582 48.7104 2.29091 50.242 3.46071C 51.7736 4.69207 53.1215 4.69207 54.6531 3.70698C 56.3072 2.59875 57.8388 2.22934 59.6155 3.70698C 60.2894 4.26109 62.1274 4.01482 63.0464 3.52228C 66.1709 1.7368 71.1333 4.01482 71.3784 7.58578C 71.5009 9.30969 71.746 11.0336 71.8685 12.8191C 72.0523 15.5281 72.6649 17.7445 75.2993 19.4684C 76.7084 20.3304 77.5661 22.9163 77.6274 24.7633C 77.995 31.1048 77.8725 37.4464 77.995 43.8495C 78.0563 45.3887 77.5661 46.1275 75.9732 46.1275C 72.4811 46.1275 69.0503 46.3122 65.5582 46.1275C 64.7618 46.0659 63.5365 44.8961 63.4139 44.0957C 62.5562 37.5079 60.8408 35.9072 54.1017 36.0303C 43.6254 36.215 33.0878 36.5228 22.6116 36.3997C 17.404 36.3381 15.1372 38.924 14.7697 44.5267C 14.7084 45.1424 14.7084 45.7581 14.7084 46.62L 1.41392 46.8047C 0.740003 46.8047 0.249884 46.3122 0.249884 45.6349C 0.127354 38.3083 -0.117705 30.9817 0.0660891 23.7167C 0.127354 22.3006 1.90403 21.0077 2.82301 19.5916C 3.68072 18.2371 4.66095 16.821 5.15107 15.3434C 5.57993 13.9273 5.33487 12.265 5.39613 10.7258C 5.64119 5.67716 6.43763 3.76855 11.0938 3.70698C 14.157 3.64541 16.4238 4.75364 19.487 3.58384C 19.9772 3.39914 20.7123 3.46071 21.1412 3.76855C 24.4495 5.92344 27.0226 3.89169 29.5957 1.7368C 31.6788 -0.048681 33.7618 -0.602795 35.7222 2.04464C 36.3961 2.90659 37.3764 3.52228 38.4792 4.4458C 39.9495 3.15287 41.4199 1.85993 42.8902 0.505433ZM 12.8092 45.6349C 13.5444 36.9538 17.4653 35.2299 22.1827 35.1068C 33.3942 34.7989 44.6056 34.7374 55.8171 34.6758C 61.2697 34.6142 64.0266 37.3232 64.6392 42.6797C 64.7005 43.48 65.497 44.8345 65.9871 44.8345C 69.1728 44.9577 72.3586 44.8961 75.7894 44.8345C 76.2183 44.8345 76.5246 44.4651 76.5246 44.0957C 76.4634 37.077 76.5246 30.4892 76.2183 23.8398C 76.0345 20.6382 73.5226 19.0375 69.908 19.0375C 49.078 19.2837 28.3092 19.53 7.47914 19.8379C 3.37439 19.8994 1.29139 21.7465 1.16886 25.7484C 1.04633 31.7205 1.16886 37.6311 1.41392 43.6032C 1.41392 44.342 2.70048 45.6349 3.49692 45.6965C 6.4989 45.8812 9.56214 45.6965 12.8092 45.6349ZM 16.4851 14.3583C 16.0562 14.3583 15.6274 14.3583 15.1985 14.3583C 15.1985 12.3881 15.5661 10.2948 15.0147 8.5093C 14.5859 7.1548 13.4218 5.36932 11.8289 5.24619C 10.2361 5.12305 7.66293 6.60069 7.35661 7.89362C 6.4989 11.0336 6.68269 14.4814 6.37637 18.1755C 9.37835 18.1139 12.1353 18.1139 14.8309 18.0524C 23.5305 17.9292 23.408 17.9292 23.7756 9.00185C 23.8981 5.985 22.3052 5.24619 20.0384 4.93835C 18.0167 4.69207 16.3625 6.66225 16.3625 9.12498C 16.4238 10.9105 16.4238 12.6344 16.4851 14.3583ZM 60.9634 13.8042C 60.7183 13.7426 60.5345 13.4963 60.5345 13.2501C 60.5345 11.3414 60.8408 9.37126 60.2894 7.64735C 59.8606 6.35441 58.0839 4.81521 56.8586 4.75364C 55.2045 4.69207 52.7539 5.18462 53.1215 8.01676C 53.489 11.1567 53.7954 14.2967 54.163 17.3751L 71.1333 17.1904C 70.6432 13.6195 70.5819 10.2948 69.6017 7.21637C 69.1728 5.92344 66.7223 4.81521 65.1294 4.6305C 64.2717 4.56894 62.8013 6.53912 62.3112 7.83205C 61.8211 9.18655 62.3112 10.8489 62.1887 12.3881C 62.1887 12.7575 61.9436 13.1269 61.7598 13.4963C 61.5147 13.7426 61.2084 13.8657 60.9634 13.8042ZM 45.8309 2.47562C 44.7894 2.04464 43.5641 2.22934 42.6452 2.84502C 41.0523 3.95325 38.6629 4.93834 41.8487 7.89362C 42.155 8.13989 42.155 9.24812 41.8487 9.61753C 39.3981 12.5728 41.4811 15.0355 42.4001 17.5598L 52.3863 17.4367C 52.2637 11.2799 52.6926 5.06148 45.8309 2.47562ZM 24.6946 17.9908C 27.2064 17.9292 29.3507 17.9292 31.4337 17.9292C 35.8448 17.8677 37.6827 14.2351 35.5384 10.2332C 35.1096 9.43282 35.2321 7.77048 35.7835 7.21637C 37.1926 5.86187 36.5799 5.06148 35.5997 3.95325C 33.7618 1.79837 31.9238 1.42896 29.7795 3.39914C 28.3092 4.75364 26.0424 5.86187 25.6135 7.46264C 24.8171 10.6026 25.0009 14.0504 24.6946 17.9908ZM 40.746 17.5598C 40.072 15.7744 39.5207 14.3583 38.9693 12.9422C 38.6629 13.0038 38.3566 13.0654 38.0503 13.1269C 37.5602 14.543 37.0701 15.8975 36.5187 17.6214C 37.9278 17.6214 38.9693 17.6214 40.746 17.5598ZM 38.6017 11.5261C 40.746 9.80224 40.991 8.3246 38.6629 6.84696C 35.906 8.3246 36.1511 9.74067 38.6017 11.5261Z" stroke-width="1.5" transform="translate(1 16.1953)" stroke="#B0E519"/>
</g>
<g id="XMLID 23">
<path d="M 0.00100112 7.32745C -0.0602637 3.32551 2.69665 -0.0607416 5.82116 0.000826602C 8.88441 0.0623948 11.5801 3.32551 11.6413 7.08117C 11.7639 11.0215 9.12947 14.3462 5.88243 14.4078C 2.63539 14.4694 0.062266 11.3294 0.00100112 7.32745ZM 10.2935 7.14274C 10.2322 4.18747 8.08796 1.54003 5.7599 1.54003C 3.37057 1.6016 1.34883 4.24903 1.41009 7.26588C 1.47136 10.4674 3.37057 12.807 5.94369 12.7455C 8.45555 12.7455 10.3548 10.3443 10.2935 7.14274Z" transform="translate(33.5354 1)" fill="#B0E519"/>
<path d="M 0.00100112 7.32745C -0.0602637 3.32551 2.69665 -0.0607416 5.82116 0.000826601C 8.8844 0.0623948 11.5801 3.32551 11.6413 7.08117C 11.7639 11.0215 9.12947 14.3462 5.88243 14.4078C 2.63539 14.4694 0.062266 11.3294 0.00100112 7.32745ZM 10.2935 7.14274C 10.2322 4.18747 8.08796 1.54003 5.7599 1.54003C 3.37057 1.6016 1.34883 4.24903 1.41009 7.26588C 1.47136 10.4674 3.37057 12.807 5.94369 12.7454C 8.45555 12.7454 10.3548 10.3443 10.2935 7.14274Z" stroke-width="1.5" transform="translate(33.5354 1)" stroke="#B0E519"/>
</g>
<g id="XMLID 20">
<path d="M 0.00121223 5.78842C -0.0600526 2.71001 2.20675 -0.0605614 4.65734 0.00100686C 6.98541 0.0625751 9.19094 2.83315 9.25221 5.66528C 9.31347 8.86683 7.23047 11.268 4.53481 11.2064C 1.83916 11.2064 0.0624771 9.05153 0.00121223 5.78842ZM 6.37276 8.62056C 7.78185 7.14292 8.14944 4.8649 7.10794 3.14099C 6.61782 2.27903 5.82138 1.78649 4.65734 1.72492C 2.14549 1.66335 1.53283 3.75667 1.53283 5.78842C 1.53283 7.82017 2.32928 10.0366 4.71861 9.72879C 5.26999 9.60565 5.82137 9.17467 6.37276 8.62056Z" transform="translate(57.4898 6.17151)" fill="#B0E519"/>
<path d="M 0.00121223 5.78842C -0.0600526 2.71001 2.20675 -0.0605614 4.65735 0.00100686C 6.98541 0.0625751 9.19094 2.83315 9.25221 5.66528C 9.31347 8.86683 7.23047 11.268 4.53481 11.2064C 1.83916 11.2064 0.0624771 9.05153 0.00121223 5.78842ZM 6.37276 8.62056C 7.78185 7.14292 8.14944 4.8649 7.10794 3.14099C 6.61782 2.27903 5.82138 1.78649 4.65735 1.72492C 2.14549 1.66335 1.53283 3.75667 1.53283 5.78842C 1.53283 7.82017 2.32928 10.0366 4.71861 9.72879C 5.26999 9.60565 5.82137 9.17467 6.37276 8.62056Z" stroke-width="1.5" transform="translate(57.4898 6.17151)" stroke="#B0E519"/>
</g>
<g id="XMLID 17">
<path d="M 4.96676 11.2092C 2.57743 11.2708 0.188106 8.80805 0.00431168 6.03748C -0.118218 3.39005 2.39364 0.126931 4.66044 0.00379475C 6.9885 -0.119342 9.4391 2.77437 9.4391 5.72964C 9.50036 8.74648 7.60115 11.0861 4.96676 11.2092ZM 1.5972 5.11396C 1.5972 7.82296 2.51617 9.60844 4.7217 9.73157C 7.11103 9.85471 8.03001 7.82296 8.03001 5.79121C 8.03001 3.82102 7.35609 1.66614 4.9055 1.66614C 2.57744 1.66614 1.71973 3.45162 1.5972 5.11396Z" transform="translate(11.8444 6.7843)" fill="#B0E519"/>
<path d="M 4.96676 11.2092C 2.57743 11.2708 0.188106 8.80805 0.00431168 6.03748C -0.118218 3.39005 2.39364 0.126931 4.66044 0.00379475C 6.9885 -0.119342 9.4391 2.77437 9.4391 5.72964C 9.50036 8.74648 7.60115 11.0861 4.96676 11.2092ZM 1.5972 5.11396C 1.5972 7.82296 2.51617 9.60844 4.7217 9.73157C 7.11103 9.85471 8.03001 7.82296 8.03001 5.79121C 8.03001 3.82102 7.35609 1.66614 4.9055 1.66614C 2.57744 1.66614 1.71973 3.45162 1.5972 5.11396Z" stroke-width="1.5" transform="translate(11.8444 6.7843)" stroke="#B0E519"/>
</g>
<g id="XMLID 16">
<path d="M 0.0612658 0.492546C 12.3142 0.307841 24.5672 0.184703 36.7589 -1.87891e-06C 36.7589 0.184703 36.7589 0.861956 36.7589 1.04666C 24.5059 1.23137 12.253 1.3545 -4.67414e-07 1.5392C 0.0612644 1.3545 0.0612658 0.738819 0.0612658 0.492546Z" transform="translate(21.406 45.453)" fill="#B0E519"/>
<path d="M 0.0612658 0.492546C 12.3142 0.307841 24.5672 0.184703 36.7589 -1.87891e-06C 36.7589 0.184703 36.7589 0.861956 36.7589 1.04666C 24.5059 1.23137 12.253 1.3545 -4.67414e-07 1.5392C 0.0612644 1.3545 0.0612658 0.738819 0.0612658 0.492546Z" stroke-width="1.5" transform="translate(21.406 45.453)" stroke="#B0E519"/>
</g>
<g id="XMLID 15">
<path d="M 4.71739 1.10823L 0.551382 1.10823C 0.245058 1.10823 1.86965e-06 0.861955 1.86965e-06 0.554114C 1.86965e-06 0.246273 0.245058 -4.69728e-07 0.551382 -4.69728e-07L 4.71739 -4.69728e-07C 5.02372 -4.69728e-07 5.26878 0.246273 5.26878 0.554114C 5.26878 0.861955 5.02372 1.10823 4.71739 1.10823Z" transform="translate(45.2993 25.197)" fill="#B0E519"/>
<path d="M 4.71739 1.10823L 0.551382 1.10823C 0.245058 1.10823 1.86966e-06 0.861955 1.86966e-06 0.554114C 1.86966e-06 0.246273 0.245058 -4.69728e-07 0.551382 -4.69728e-07L 4.71739 -4.69728e-07C 5.02372 -4.69728e-07 5.26878 0.246273 5.26878 0.554114C 5.26878 0.861955 5.02372 1.10823 4.71739 1.10823Z" stroke-width="1.5" transform="translate(45.2993 25.197)" stroke="#B0E519"/>
</g>
</g>
</g>
</svg>

