<svg width="87" height="58" viewBox="0 0 87 58" version="1.1" xmlns="http://www.w3.org/2000/svg" xmlns:xlink="http://www.w3.org/1999/xlink">
<g id="Canvas" fill="none">
<g id="Group" opacity="0.5">
<g id="XMLID 17">
<g id="XMLID 31" transform="translate(14.1152 30.287)">
<path d="M 29.6578 18.9595C 30.0795 17.6867 30.0725 16.3992 29.461 15.1853C 28.716 13.6992 27.5422 12.8311 25.9116 12.706C 25.4969 12.6766 25.0822 12.6986 24.6394 12.6986C 25.0752 10.9256 24.7097 9.3806 23.5219 8.12989C 22.327 6.87184 20.844 6.47455 19.1642 6.93069C 19.1501 6.82033 19.1291 6.73941 19.1291 6.65112C 19.1291 5.24592 18.6792 4.03937 17.6812 3.09766C 16.5144 1.98674 15.1509 1.64832 13.6187 2.02353C 12.965 2.18538 12.3746 2.48702 11.8615 2.95787C 11.6999 3.10502 11.5734 3.09766 11.482 2.87695C 11.4047 2.70038 11.3274 2.52381 11.229 2.3546C 10.484 1.10389 9.41561 0.360832 8.03802 0.081263C 6.24574 -0.279233 4.46752 0.581542 3.5749 2.22953C 2.60496 4.03201 1.64205 5.84185 0.643996 7.62961C -0.00262976 8.79939 -0.185372 10.0059 0.201198 11.2934C 0.86188 13.5079 3.21644 14.9646 5.38826 14.5085C 6.04191 14.3687 6.02083 14.376 6.08409 15.0602C 6.18951 17.2527 8.6987 18.6431 9.31721 18.8344C 10.1396 19.0846 11.0041 19.0551 11.8405 18.7535C 12.0794 18.6652 12.3887 18.4592 12.5363 18.5475C 12.705 18.6431 12.7331 19.011 12.8104 19.2685C 13.3516 21.0489 14.9963 22.2628 16.7183 22.3437C 17.4703 22.3805 18.1802 22.226 18.869 21.917C 19.0728 21.8214 19.122 21.8803 19.1712 22.0936C 19.2415 22.41 19.3259 22.741 19.4594 23.0353C 20.0779 24.3596 21.0619 25.1983 22.4395 25.5882C 24.1263 26.0664 26.2982 25.2204 27.1767 23.6386C 27.8304 22.4615 28.4419 21.2549 29.0744 20.0704C 29.2572 19.6952 29.5243 19.3494 29.6578 18.9595ZM 6.87831 11.5436C 6.37928 12.4485 5.61317 12.912 4.60809 12.9341C 3.04776 12.9561 1.43119 11.5141 1.62799 9.73374C 1.68422 9.24817 1.89508 8.74789 2.12702 8.31382C 3.07587 6.51134 4.06689 4.73829 5.03683 2.94316C 5.53586 2.00881 6.73774 1.48646 7.82013 1.75132C 9.25396 2.10445 10.3153 3.36251 10.238 4.73093C 10.2169 5.18707 10.0412 5.66528 9.82327 6.06992C 8.86739 7.90918 7.87636 9.72638 6.87831 11.5436ZM 13.4008 14.891C 13.1829 15.2883 12.9791 15.693 12.7261 16.0682C 12.4168 16.5243 10.3012 17.5102 9.06419 16.9437C 7.88339 16.4066 7.56711 14.3393 7.65848 13.9052C 7.76391 13.3828 8.00288 12.8752 8.2559 12.4044C 9.55618 9.98387 10.8705 7.57076 12.1849 5.15764C 12.8455 3.94372 14.0474 3.34044 15.2423 3.62001C 17.154 4.06143 18.0818 6.17291 17.1329 7.99011C 16.4512 9.29231 15.7272 10.5724 15.0314 11.8673C 14.4902 12.8752 13.949 13.8831 13.4008 14.891ZM 19.1923 19.4892C 18.6792 20.2911 17.892 20.6516 17.2103 20.6811C 15.3618 20.7105 13.9912 19.2096 14.1107 17.5175C 14.1599 16.8407 14.4902 16.2668 14.7995 15.693C 15.6218 14.1774 16.4371 12.6618 17.2595 11.1463C 17.5265 10.6607 17.7725 10.1604 18.0818 9.70431C 19.3118 7.88711 21.8772 8.05632 22.8753 10.028C 23.4235 11.1095 23.2478 12.1616 22.6644 13.1916C 21.9616 14.4275 21.3009 15.6856 20.6191 16.9363C 20.1482 17.7897 19.7124 18.6726 19.1923 19.4892ZM 27.9499 18.8344C 27.2822 20.0778 26.6074 21.3138 25.9186 22.5424C 25.3774 23.5135 24.5551 24.0138 23.4727 24.0285C 21.336 24.0359 19.9655 21.6963 20.9846 19.7173C 21.6664 18.3856 22.3833 17.0761 23.1213 15.7812C 23.7257 14.7218 24.6675 14.2363 25.8343 14.3687C 26.9448 14.4938 27.732 15.1485 28.1467 16.23C 28.4981 17.1202 28.3927 18.0031 27.9499 18.8344Z" fill="black"/>
<path d="M 29.6578 18.9595C 30.0795 17.6867 30.0725 16.3992 29.461 15.1853C 28.716 13.6992 27.5422 12.8311 25.9116 12.706C 25.4969 12.6766 25.0822 12.6986 24.6394 12.6986C 25.0752 10.9256 24.7097 9.3806 23.5219 8.12989C 22.327 6.87184 20.844 6.47455 19.1642 6.93069C 19.1501 6.82033 19.1291 6.73941 19.1291 6.65112C 19.1291 5.24592 18.6792 4.03937 17.6812 3.09766C 16.5144 1.98674 15.1509 1.64832 13.6187 2.02353C 12.965 2.18538 12.3746 2.48702 11.8615 2.95787C 11.6999 3.10502 11.5734 3.09766 11.482 2.87695C 11.4047 2.70038 11.3274 2.52381 11.229 2.3546C 10.484 1.10389 9.41561 0.360832 8.03802 0.081263C 6.24574 -0.279233 4.46752 0.581542 3.5749 2.22953C 2.60496 4.03201 1.64205 5.84185 0.643996 7.62961C -0.00262976 8.79939 -0.185372 10.0059 0.201198 11.2934C 0.86188 13.5079 3.21644 14.9646 5.38826 14.5085C 6.04191 14.3687 6.02083 14.376 6.08409 15.0602C 6.18951 17.2527 8.6987 18.6431 9.31721 18.8344C 10.1396 19.0846 11.0041 19.0551 11.8405 18.7535C 12.0794 18.6652 12.3887 18.4592 12.5363 18.5475C 12.705 18.6431 12.7331 19.011 12.8104 19.2685C 13.3516 21.0489 14.9963 22.2628 16.7183 22.3437C 17.4703 22.3805 18.1802 22.226 18.869 21.917C 19.0728 21.8214 19.122 21.8803 19.1712 22.0936C 19.2415 22.41 19.3259 22.741 19.4594 23.0353C 20.0779 24.3596 21.0619 25.1983 22.4395 25.5882C 24.1263 26.0664 26.2982 25.2204 27.1767 23.6386C 27.8304 22.4615 28.4419 21.2549 29.0744 20.0704C 29.2572 19.6952 29.5243 19.3494 29.6578 18.9595ZM 6.87831 11.5436C 6.37928 12.4485 5.61317 12.912 4.60809 12.9341C 3.04776 12.9561 1.43119 11.5141 1.62799 9.73374C 1.68422 9.24817 1.89508 8.74789 2.12702 8.31382C 3.07587 6.51134 4.06689 4.73829 5.03683 2.94316C 5.53586 2.00881 6.73774 1.48646 7.82013 1.75132C 9.25396 2.10446 10.3153 3.36251 10.238 4.73093C 10.2169 5.18707 10.0412 5.66528 9.82327 6.06992C 8.86739 7.90918 7.87636 9.72638 6.87831 11.5436ZM 13.4008 14.891C 13.1829 15.2883 12.9791 15.693 12.7261 16.0682C 12.4168 16.5243 10.3012 17.5102 9.06419 16.9437C 7.88339 16.4066 7.56711 14.3393 7.65848 13.9052C 7.76391 13.3828 8.00288 12.8752 8.2559 12.4043C 9.55618 9.98387 10.8705 7.57076 12.1849 5.15764C 12.8455 3.94372 14.0474 3.34044 15.2423 3.62001C 17.154 4.06143 18.0818 6.17291 17.1329 7.99011C 16.4512 9.29231 15.7272 10.5724 15.0314 11.8673C 14.4902 12.8752 13.949 13.8831 13.4008 14.891ZM 19.1923 19.4892C 18.6792 20.2911 17.892 20.6516 17.2103 20.6811C 15.3618 20.7105 13.9912 19.2096 14.1107 17.5175C 14.1599 16.8407 14.4902 16.2668 14.7995 15.693C 15.6218 14.1774 16.4371 12.6618 17.2595 11.1463C 17.5265 10.6607 17.7725 10.1604 18.0818 9.70431C 19.3118 7.88711 21.8772 8.05632 22.8753 10.028C 23.4235 11.1095 23.2478 12.1616 22.6644 13.1916C 21.9616 14.4275 21.3009 15.6856 20.6191 16.9363C 20.1482 17.7897 19.7124 18.6726 19.1923 19.4892ZM 27.9499 18.8344C 27.2822 20.0778 26.6074 21.3138 25.9186 22.5424C 25.3774 23.5135 24.5551 24.0138 23.4727 24.0285C 21.336 24.0359 19.9655 21.6963 20.9846 19.7173C 21.6664 18.3856 22.3833 17.0761 23.1213 15.7812C 23.7257 14.7218 24.6675 14.2363 25.8343 14.3687C 26.9448 14.4938 27.732 15.1485 28.1467 16.23C 28.4981 17.1202 28.3927 18.0031 27.9499 18.8344Z" stroke="black" stroke-width="1.5"/>
</g>
<g id="XMLID 28" transform="translate(1 1.01404)">
<path d="M 16.142 15.5018C 16.7464 14.2217 17.3438 12.9489 17.9553 11.6688C 18.4895 10.5432 19.0307 9.42488 19.5649 8.29924C 19.8882 7.60768 20.2185 6.92347 20.5137 6.21719C 20.7316 5.69484 20.5278 5.20928 20.0428 4.92235C 19.4875 4.59128 18.9323 4.26021 18.377 3.91443C 16.3809 2.66373 14.3848 1.40567 12.3817 0.154971C 11.8967 -0.146669 11.3766 0.000472299 11.1165 0.522824C 10.8495 1.05253 10.5964 1.5896 10.3434 2.11931C 9.39456 4.12779 8.45976 6.14362 7.51091 8.1521C 6.548 10.1827 5.57806 12.2132 4.61515 14.2438C 3.79281 15.9727 1.43825 20.9608 0.622937 22.697C 0.60888 22.7191 0.601852 22.7412 0.594823 22.7706C 0.531566 22.8957 0.475338 23.0134 0.41911 23.1311C 0.327739 23.3297 -0.431344 24.8747 0.348824 25.4339C 2.1903 26.5816 4.02475 27.7293 5.86623 28.8843C 6.58314 29.3331 7.30708 29.7966 8.02399 30.2527C 8.53707 30.5764 9.11341 30.4882 9.36644 29.8628C 9.48593 29.5685 9.63353 29.289 9.76707 29.0094C 10.9338 26.5521 12.1076 24.1022 13.2743 21.645C 14.2302 19.5923 15.1861 17.5471 16.142 15.5018ZM 8.42462 28.1118C 8.31216 28.3473 8.18565 28.3914 7.98182 28.2663C 7.76393 28.1265 7.54605 27.9868 7.32114 27.847C 5.64131 26.7949 3.96149 25.7502 2.28167 24.6908C 1.74048 24.3524 1.70533 24.3156 1.8459 23.8153C 2.50659 22.388 4.03881 19.1803 4.69949 17.7825C 5.85217 15.3473 7.01188 12.9121 8.16456 10.4696C 8.8393 9.04967 9.50701 7.62975 10.1818 6.20984C 10.7932 4.91499 11.4117 3.61279 12.0232 2.31059C 12.1287 2.08252 12.213 1.95745 12.4941 2.14138C 14.3567 3.33322 18.6722 5.86406 18.7566 6.13627C 18.7777 6.20248 18.7285 6.29812 18.6933 6.37169C 18.377 7.03383 18.0537 7.69597 17.7374 8.36546C 16.7886 10.3739 15.8468 12.3971 14.8979 14.4056C 13.7382 16.8482 12.5715 19.2907 11.4188 21.7333C 10.4067 23.8594 9.41564 25.9856 8.42462 28.1118Z" fill="black"/>
<path d="M 16.142 15.5018C 16.7464 14.2217 17.3438 12.9489 17.9553 11.6688C 18.4895 10.5432 19.0307 9.42488 19.5649 8.29925C 19.8882 7.60768 20.2185 6.92347 20.5137 6.21719C 20.7316 5.69484 20.5278 5.20928 20.0428 4.92235C 19.4875 4.59128 18.9323 4.26021 18.377 3.91443C 16.3809 2.66373 14.3848 1.40567 12.3817 0.154971C 11.8967 -0.146669 11.3766 0.000472299 11.1165 0.522824C 10.8495 1.05253 10.5964 1.5896 10.3434 2.11931C 9.39456 4.12779 8.45976 6.14362 7.51091 8.1521C 6.548 10.1827 5.57806 12.2132 4.61515 14.2438C 3.79281 15.9727 1.43825 20.9608 0.622937 22.697C 0.60888 22.7191 0.601852 22.7412 0.594823 22.7706C 0.531566 22.8957 0.475338 23.0134 0.41911 23.1311C 0.327739 23.3297 -0.431344 24.8747 0.348824 25.4339C 2.1903 26.5816 4.02475 27.7293 5.86623 28.8843C 6.58314 29.3331 7.30708 29.7966 8.02399 30.2527C 8.53707 30.5764 9.11341 30.4882 9.36644 29.8628C 9.48593 29.5685 9.63353 29.289 9.76707 29.0094C 10.9338 26.5521 12.1076 24.1022 13.2743 21.645C 14.2302 19.5923 15.1861 17.5471 16.142 15.5018ZM 8.42462 28.1118C 8.31216 28.3473 8.18565 28.3914 7.98182 28.2663C 7.76393 28.1265 7.54605 27.9868 7.32114 27.847C 5.64132 26.7949 3.96149 25.7502 2.28167 24.6908C 1.74048 24.3524 1.70533 24.3156 1.8459 23.8153C 2.50659 22.388 4.03881 19.1803 4.69949 17.7825C 5.85217 15.3473 7.01188 12.9121 8.16456 10.4696C 8.8393 9.04967 9.50701 7.62975 10.1818 6.20984C 10.7932 4.91499 11.4117 3.61279 12.0232 2.31059C 12.1287 2.08252 12.213 1.95745 12.4941 2.14138C 14.3567 3.33322 18.6722 5.86406 18.7566 6.13627C 18.7777 6.20248 18.7285 6.29812 18.6933 6.37169C 18.377 7.03383 18.0537 7.69597 17.7374 8.36546C 16.7886 10.3739 15.8468 12.3971 14.8979 14.4056C 13.7382 16.8482 12.5715 19.2907 11.4188 21.7333C 10.4067 23.8594 9.41564 25.9856 8.42462 28.1118Z" stroke="black" stroke-width="1.5"/>
</g>
<g id="XMLID 21" transform="translate(26.6307 1)">
<path d="M 59.1871 24.1963C 58.7373 23.1663 58.2593 22.151 57.7814 21.1358C 56.9801 19.4436 56.1648 17.7589 55.3636 16.0594C 54.4218 14.0583 53.494 12.0498 52.5522 10.0487C 51.5893 8.00341 50.6193 5.9655 49.6494 3.92759C 49.1011 2.77253 48.5529 1.61747 47.9906 0.469768C 47.7657 0.0136295 47.2245 -0.133512 46.8098 0.131343L 38.9098 5.03851L 38.9238 5.06793C 38.6567 5.25922 38.5443 5.56086 38.5373 5.89928C 38.5373 5.92871 38.5373 5.95814 38.5443 5.98757L 38.5373 5.98757C 38.5373 5.98757 38.6146 6.27449 38.8887 6.92192C 38.8887 6.94399 38.8957 6.97342 38.8957 6.99549C 38.9027 7.00284 38.9168 7.00284 38.9238 7.0102C 38.959 7.09113 38.9941 7.17941 39.0363 7.2677C 38.6567 7.54727 37.0402 8.6729 35.1846 9.03339C 35.1214 9.03339 35.0581 9.04075 34.9878 9.04811C 33.6524 9.23204 32.3521 8.99661 31.1995 8.29033C 30.0187 7.56198 28.8941 6.73063 27.7766 5.89193C 26.413 4.88401 24.937 4.25866 23.2572 4.24394C 20.7761 4.22187 18.288 4.22923 15.807 4.24394C 14.598 4.2513 13.5156 4.67801 12.5879 5.48729C 10.5426 7.27505 8.51133 9.07754 6.47305 10.8727C 4.65969 12.4765 2.83227 14.073 1.01891 15.6768C -0.30246 16.8466 -0.344633 18.6564 0.927533 19.863C 1.6093 20.5104 2.47381 20.7826 3.36644 20.8562C 4.245 20.9298 5.13763 20.9592 6.0162 20.9224C 7.45002 20.8562 8.86276 20.6134 10.156 19.9292C 11.2665 19.348 12.3489 18.6932 13.4243 18.0384C 13.7827 17.8177 14.0779 17.7957 14.4223 18.0311C 15.0619 18.4578 15.7156 18.8624 16.3622 19.2671C 18.8784 20.8415 21.4017 22.4159 23.9179 23.9903C 26.1038 25.3587 28.2896 26.7345 30.4755 28.1103C 32.6614 29.4787 34.8543 30.8471 37.0402 32.2155C 38.7622 33.2896 40.4771 34.3638 42.1991 35.4379C 42.8317 35.8278 43.3096 36.3502 43.5556 37.0933C 43.9422 38.2557 43.64 39.5284 42.7684 40.2936C 41.8055 41.147 40.5685 41.3015 39.5072 40.6541C 37.8133 39.6094 36.1335 38.5426 34.4466 37.4832C 33.7789 37.0638 33.1182 36.6445 32.4224 36.2178C 30.2225 35.4011 30.8972 37.211 31.2065 37.4022C 32.3662 38.1306 33.5189 38.8663 34.6786 39.5873C 35.3814 40.0214 36.0421 40.4701 36.4076 41.3088C 37.1948 43.104 36.0351 45.2964 34.032 45.4582C 33.3572 45.5097 32.7598 45.2817 32.1834 44.9138C 30.4615 43.8029 28.7184 42.7214 26.9753 41.6473C 26.7644 41.5148 25.1057 42.4418 25.4431 42.6552C 26.2865 43.1923 27.137 43.722 27.9944 44.237C 28.7606 44.6931 29.3088 45.3332 29.5196 46.2381C 29.8078 47.4667 29.372 48.6291 28.3178 49.3943C 27.4673 50.0123 26.2865 50.0785 25.2744 49.4384C 24.7683 49.1147 24.2553 48.8057 23.7492 48.482C 22.709 47.8272 21.6758 47.1724 20.6356 46.5177C 20.242 46.2749 19.7078 46.3852 19.4899 46.7531C 19.2509 47.1651 19.3774 47.6874 19.7921 47.9523C 20.1717 48.1877 20.5512 48.4231 20.9308 48.6586C 21.6898 49.1294 22.2592 49.7474 22.456 50.6891C 22.709 51.881 22.3716 52.8815 21.493 53.6393C 20.5864 54.4191 19.5391 54.5589 18.4778 53.9998C 17.7468 53.6172 17.0651 53.1464 16.3692 52.6976C 16.1514 52.5578 16.0248 52.5504 15.8913 52.8006C 15.7437 53.0875 15.6031 53.3965 15.3993 53.6393C 15.1744 53.9115 15.315 54.0145 15.5118 54.1396C 16.06 54.4854 16.6152 54.8164 17.1564 55.1696C 18.6113 56.1186 20.1295 56.2952 21.6828 55.4859C 23.2221 54.6914 24.0444 53.3671 24.1147 51.5499C 24.1217 51.285 24.1147 51.0275 24.1147 50.6891C 25.7523 51.7338 27.39 51.903 29.0136 50.9098C 30.6512 49.9093 31.2768 48.3128 31.2065 46.2969C 32.8582 47.2975 34.4958 47.4814 36.1124 46.4661C 37.7219 45.4509 38.3826 43.8838 38.235 41.8753C 38.4248 41.971 38.5724 42.0372 38.713 42.1108C 40.1819 42.9127 41.6579 42.9348 43.0988 42.0813C 44.2725 41.3898 45.0035 40.3156 45.2355 38.9031C 45.5025 37.2477 45.0949 35.791 43.893 34.6875C 43.2042 34.0548 42.3608 33.5986 41.5666 33.091C 39.4088 31.7152 37.237 30.3615 35.0722 29.0005C 32.8933 27.6321 30.7075 26.2784 28.5286 24.9173C 26.2514 23.49 23.9882 22.048 21.7109 20.6208C 19.3774 19.1567 17.0299 17.7 14.6964 16.2286C 14.1763 15.8975 13.7054 15.8828 13.1853 16.2065C 12.3208 16.751 11.4563 17.3101 10.5637 17.8104C 9.88892 18.1856 9.1931 18.5608 8.46916 18.7962C 6.99316 19.2818 5.45391 19.3848 3.92169 19.2376C 3.37347 19.1861 2.81821 19.0243 2.30513 18.8109C 1.5109 18.4799 1.3633 17.6412 1.98884 17.0379C 2.72684 16.3316 3.51404 15.6768 4.27312 15C 7.22511 12.3956 10.1841 9.79853 13.1291 7.17206C 14.6262 5.64179 21.3244 5.914 23.2572 5.92135C 24.445 5.92871 25.5134 6.33335 26.4974 7.03227C 27.8539 7.99605 29.2104 8.97454 30.6161 9.85739C 31.2557 10.2547 32.0288 10.4312 32.6825 10.6887C 32.6895 10.674 32.6895 10.6593 32.6965 10.6519C 33.561 10.8727 36.3233 11.2994 39.9219 9.07018C 40.5334 10.365 41.1519 11.6672 41.7634 12.9621C 42.2764 14.0436 42.7895 15.125 43.2956 16.2065C 43.9563 17.6117 44.6169 19.0243 45.2847 20.4368C 46.1 22.1658 46.9153 23.8873 47.7306 25.6089C 48.4124 27.0361 49.0871 28.4708 49.7829 29.8907C 50.0641 30.4572 50.5561 30.5896 51.0621 30.2659C 51.9899 29.6773 52.9176 29.0888 53.8454 28.5076C 55.469 27.4849 57.0996 26.4623 58.7303 25.4397C 59.2082 25.1527 59.398 24.6892 59.1871 24.1963ZM 57.3878 24.3435C 56.3897 24.9762 55.3987 25.6015 54.4007 26.2342C 53.3183 26.9111 52.2359 27.5879 51.1605 28.2648C 50.9637 28.3898 50.8231 28.3898 50.7107 28.1397C 50.3663 27.3893 50.0149 26.6536 49.6634 25.9105C 48.8692 24.2184 48.075 22.5189 47.2737 20.8268C 46.0508 18.2371 44.8208 15.6548 43.5978 13.0651C 42.916 11.6231 42.2343 10.1811 41.5525 8.73911C 41.3206 8.25355 41.1167 7.75326 40.8426 7.29713C 40.681 6.77477 40.6036 6.05378 41.1589 5.64914C 41.2784 5.56086 41.3557 5.48729 41.4119 5.42843L 42.67 4.64858C 42.67 4.64858 42.6771 4.64858 42.6771 4.64122L 43.1901 4.32487C 43.2323 4.3028 43.2675 4.28073 43.3026 4.25866C 43.6962 4.02323 44.0898 3.77309 44.4975 3.51559L 46.845 2.05889C 46.9785 2.05154 47.0629 2.18396 47.1332 2.38996C 47.1964 2.57389 47.2878 2.7431 47.3721 2.91967C 48.3421 4.95758 49.312 6.99549 50.2819 9.04075C 51.2378 11.0639 52.1937 13.0871 53.1496 15.1103C 53.5994 16.0594 54.0563 17.0085 54.5061 17.9575C 55.2511 19.5319 55.9891 21.1063 56.7341 22.6808C 56.9872 23.2105 57.2332 23.7475 57.4792 24.2625C 57.4229 24.3067 57.4089 24.3287 57.3878 24.3435Z" fill="black"/>
<path d="M 59.1871 24.1963C 58.7373 23.1663 58.2593 22.151 57.7814 21.1358C 56.9801 19.4436 56.1648 17.7589 55.3636 16.0594C 54.4218 14.0583 53.494 12.0498 52.5522 10.0487C 51.5893 8.00341 50.6193 5.9655 49.6494 3.92759C 49.1011 2.77253 48.5529 1.61747 47.9906 0.469768C 47.7657 0.0136295 47.2245 -0.133512 46.8098 0.131343L 38.9098 5.03851L 38.9238 5.06794C 38.6567 5.25922 38.5443 5.56086 38.5373 5.89928C 38.5373 5.92871 38.5373 5.95814 38.5443 5.98757L 38.5373 5.98757C 38.5373 5.98757 38.6146 6.27449 38.8887 6.92192C 38.8887 6.94399 38.8957 6.97342 38.8957 6.99549C 38.9027 7.00284 38.9168 7.00284 38.9238 7.0102C 38.959 7.09113 38.9941 7.17941 39.0363 7.2677C 38.6567 7.54727 37.0402 8.6729 35.1846 9.03339C 35.1214 9.03339 35.0581 9.04075 34.9878 9.04811C 33.6524 9.23204 32.3521 8.99661 31.1995 8.29033C 30.0187 7.56198 28.8941 6.73063 27.7766 5.89193C 26.413 4.88401 24.937 4.25866 23.2572 4.24394C 20.7761 4.22187 18.288 4.22923 15.807 4.24394C 14.598 4.2513 13.5156 4.67801 12.5879 5.48729C 10.5426 7.27506 8.51133 9.07754 6.47305 10.8727C 4.65969 12.4765 2.83227 14.073 1.01891 15.6768C -0.30246 16.8466 -0.344633 18.6564 0.927533 19.863C 1.6093 20.5104 2.47381 20.7826 3.36644 20.8562C 4.245 20.9298 5.13763 20.9592 6.0162 20.9224C 7.45002 20.8562 8.86276 20.6134 10.156 19.9292C 11.2665 19.348 12.3489 18.6932 13.4243 18.0384C 13.7827 17.8177 14.0779 17.7957 14.4223 18.0311C 15.0619 18.4578 15.7156 18.8624 16.3622 19.2671C 18.8784 20.8415 21.4017 22.4159 23.9179 23.9903C 26.1038 25.3587 28.2896 26.7345 30.4755 28.1103C 32.6614 29.4787 34.8543 30.8471 37.0402 32.2155C 38.7622 33.2896 40.4771 34.3638 42.1991 35.4379C 42.8317 35.8278 43.3096 36.3502 43.5556 37.0933C 43.9422 38.2557 43.64 39.5284 42.7684 40.2936C 41.8055 41.147 40.5685 41.3015 39.5072 40.6541C 37.8133 39.6094 36.1335 38.5426 34.4466 37.4832C 33.7789 37.0638 33.1182 36.6445 32.4224 36.2178C 30.2225 35.4011 30.8972 37.211 31.2065 37.4022C 32.3662 38.1306 33.5189 38.8663 34.6786 39.5873C 35.3814 40.0214 36.0421 40.4701 36.4076 41.3088C 37.1948 43.104 36.0351 45.2964 34.032 45.4582C 33.3572 45.5097 32.7598 45.2817 32.1834 44.9138C 30.4615 43.8029 28.7184 42.7214 26.9753 41.6473C 26.7644 41.5148 25.1057 42.4418 25.4431 42.6552C 26.2865 43.1923 27.137 43.722 27.9944 44.237C 28.7606 44.6931 29.3088 45.3332 29.5196 46.2381C 29.8078 47.4667 29.372 48.6291 28.3178 49.3943C 27.4673 50.0123 26.2865 50.0785 25.2744 49.4384C 24.7683 49.1147 24.2553 48.8057 23.7492 48.482C 22.709 47.8272 21.6758 47.1724 20.6356 46.5176C 20.242 46.2749 19.7078 46.3852 19.4899 46.7531C 19.2509 47.1651 19.3774 47.6874 19.7921 47.9523C 20.1717 48.1877 20.5512 48.4231 20.9308 48.6586C 21.6898 49.1294 22.2592 49.7474 22.456 50.6891C 22.709 51.881 22.3716 52.8815 21.493 53.6393C 20.5864 54.4191 19.5391 54.5589 18.4778 53.9998C 17.7468 53.6172 17.0651 53.1464 16.3692 52.6976C 16.1514 52.5578 16.0248 52.5504 15.8913 52.8006C 15.7437 53.0875 15.6031 53.3965 15.3993 53.6393C 15.1744 53.9115 15.315 54.0145 15.5118 54.1396C 16.06 54.4854 16.6152 54.8164 17.1564 55.1696C 18.6113 56.1186 20.1295 56.2952 21.6828 55.4859C 23.2221 54.6914 24.0444 53.3671 24.1147 51.5499C 24.1217 51.285 24.1147 51.0275 24.1147 50.6891C 25.7523 51.7338 27.39 51.903 29.0136 50.9098C 30.6512 49.9093 31.2768 48.3128 31.2065 46.2969C 32.8582 47.2975 34.4958 47.4814 36.1124 46.4661C 37.7219 45.4509 38.3826 43.8838 38.235 41.8753C 38.4248 41.971 38.5724 42.0372 38.713 42.1108C 40.1819 42.9127 41.6579 42.9348 43.0988 42.0813C 44.2725 41.3898 45.0035 40.3156 45.2355 38.9031C 45.5025 37.2477 45.0949 35.791 43.893 34.6875C 43.2042 34.0548 42.3608 33.5986 41.5666 33.091C 39.4088 31.7152 37.237 30.3615 35.0722 29.0005C 32.8933 27.6321 30.7075 26.2784 28.5286 24.9173C 26.2514 23.49 23.9882 22.048 21.7109 20.6208C 19.3774 19.1567 17.0299 17.7 14.6964 16.2286C 14.1763 15.8975 13.7054 15.8828 13.1853 16.2065C 12.3208 16.751 11.4563 17.3101 10.5637 17.8104C 9.88892 18.1856 9.1931 18.5608 8.46916 18.7962C 6.99316 19.2818 5.45391 19.3848 3.92169 19.2376C 3.37347 19.1861 2.81821 19.0243 2.30513 18.8109C 1.5109 18.4799 1.3633 17.6412 1.98884 17.0379C 2.72684 16.3316 3.51404 15.6768 4.27312 15C 7.22511 12.3956 10.1841 9.79853 13.1291 7.17206C 14.6262 5.64179 21.3244 5.914 23.2572 5.92135C 24.445 5.92871 25.5134 6.33335 26.4974 7.03227C 27.8539 7.99605 29.2104 8.97454 30.6161 9.85739C 31.2557 10.2547 32.0288 10.4312 32.6825 10.6887C 32.6895 10.674 32.6895 10.6593 32.6965 10.6519C 33.561 10.8727 36.3233 11.2994 39.9219 9.07018C 40.5334 10.365 41.1519 11.6672 41.7634 12.9621C 42.2764 14.0436 42.7895 15.125 43.2956 16.2065C 43.9563 17.6117 44.6169 19.0243 45.2847 20.4368C 46.1 22.1658 46.9153 23.8873 47.7306 25.6089C 48.4124 27.0361 49.0871 28.4708 49.7829 29.8907C 50.0641 30.4572 50.5561 30.5896 51.0621 30.2659C 51.9899 29.6773 52.9177 29.0888 53.8454 28.5076C 55.469 27.4849 57.0996 26.4623 58.7303 25.4397C 59.2082 25.1527 59.398 24.6892 59.1871 24.1963ZM 57.3878 24.3435C 56.3897 24.9762 55.3987 25.6015 54.4007 26.2342C 53.3183 26.9111 52.2359 27.5879 51.1605 28.2648C 50.9637 28.3898 50.8231 28.3898 50.7107 28.1397C 50.3663 27.3893 50.0149 26.6536 49.6634 25.9105C 48.8692 24.2184 48.075 22.5189 47.2737 20.8268C 46.0508 18.2371 44.8208 15.6548 43.5978 13.0651C 42.916 11.6231 42.2343 10.1811 41.5525 8.73911C 41.3206 8.25355 41.1167 7.75326 40.8426 7.29713C 40.681 6.77477 40.6036 6.05378 41.1589 5.64914C 41.2784 5.56086 41.3557 5.48729 41.4119 5.42843L 42.67 4.64858C 42.67 4.64858 42.6771 4.64858 42.6771 4.64122L 43.1901 4.32487C 43.2323 4.3028 43.2675 4.28073 43.3026 4.25866C 43.6962 4.02323 44.0898 3.77309 44.4975 3.51559L 46.845 2.05889C 46.9785 2.05154 47.0629 2.18396 47.1332 2.38996C 47.1964 2.57389 47.2878 2.7431 47.3721 2.91967C 48.3421 4.95758 49.312 6.99549 50.2819 9.04075C 51.2378 11.0639 52.1937 13.0871 53.1496 15.1103C 53.5994 16.0594 54.0563 17.0085 54.5061 17.9575C 55.2511 19.5319 55.9891 21.1063 56.7341 22.6808C 56.9872 23.2105 57.2332 23.7475 57.4792 24.2625C 57.4229 24.3067 57.4089 24.3287 57.3878 24.3435Z" stroke="black" stroke-width="1.5"/>
</g>
<g id="XMLID 20" transform="translate(21.2606 5.52441)">
<path d="M 3.09959 6.11277C 3.99924 6.28199 4.90592 6.2967 5.82666 6.15692C 6.9934 5.97299 8.06876 5.57571 9.04573 4.90621C 10.3671 3.99394 11.6674 3.05223 12.9677 2.10317C 13.5932 1.64703 14.275 1.60289 14.9778 1.79418C 15.2168 1.86039 15.3855 1.81625 15.5542 1.6691C 15.8915 1.37482 16.2289 1.07318 16.5592 0.764186C 16.6155 0.712686 16.6366 0.631758 16.6858 0.550831C 16.3414 0.440475 16.0251 0.344833 15.7158 0.249191C 14.5631 -0.103948 13.4175 -0.140734 12.3562 0.528759C 11.4143 1.13204 10.5147 1.80889 9.60801 2.47103C 8.47642 3.28766 7.37294 4.14844 5.97426 4.43536C 4.83563 4.67079 3.71107 4.64136 2.62165 4.24408C 2.04531 4.03072 1.49708 3.71437 0.948852 3.4348C 0.780167 3.34652 0.681769 3.33916 0.590398 3.5378C 0.407656 3.94244 0.203827 4.34708 -8.57976e-07 4.77379C 0.934795 5.47271 1.98205 5.90678 3.09959 6.11277Z" fill="black"/>
<path d="M 3.09959 6.11277C 3.99924 6.28199 4.90592 6.2967 5.82666 6.15692C 6.9934 5.97299 8.06876 5.57571 9.04573 4.90621C 10.3671 3.99394 11.6674 3.05223 12.9677 2.10317C 13.5932 1.64703 14.275 1.60289 14.9778 1.79418C 15.2168 1.86039 15.3855 1.81625 15.5542 1.6691C 15.8915 1.37482 16.2289 1.07318 16.5592 0.764186C 16.6155 0.712686 16.6366 0.631758 16.6858 0.550831C 16.3414 0.440475 16.0251 0.344833 15.7158 0.249191C 14.5631 -0.103948 13.4175 -0.140734 12.3562 0.528759C 11.4143 1.13204 10.5147 1.80889 9.60801 2.47103C 8.47642 3.28766 7.37294 4.14844 5.97426 4.43536C 4.83563 4.67079 3.71107 4.64136 2.62165 4.24408C 2.04531 4.03072 1.49708 3.71437 0.948852 3.4348C 0.780167 3.34652 0.681769 3.33916 0.590398 3.5378C 0.407656 3.94244 0.203827 4.34708 -8.57976e-07 4.77379C 0.934795 5.47271 1.98205 5.90678 3.09959 6.11277Z" stroke="black" stroke-width="1.5"/>
</g>
<g id="XMLID 19" transform="translate(70.2637 29.2412)">
<path d="M 3.4229 0.303079C 2.53027 0.840145 1.67982 1.42135 1.05428 2.3042C 0.548226 3.02519 0.203828 3.8124 0 4.74675C 0.0421712 4.81296 0.0984004 4.93067 0.189771 5.0116C 0.463885 5.25439 0.752052 5.48246 1.02617 5.72524C 1.23702 5.91652 1.34245 5.88709 1.43382 5.59281C 1.63765 4.94539 1.82039 4.28325 2.12262 3.68733C 2.55839 2.8192 3.33152 2.29684 4.12575 1.81864C 4.95512 1.31835 4.89187 1.51699 4.52638 0.670932C 4.17495 -0.15306 4.18198 -0.145702 3.4229 0.303079Z" fill="black"/>
<path d="M 3.4229 0.303079C 2.53027 0.840145 1.67982 1.42135 1.05428 2.3042C 0.548226 3.02519 0.203828 3.8124 0 4.74675C 0.0421712 4.81296 0.0984004 4.93067 0.189771 5.0116C 0.463885 5.25439 0.752052 5.48246 1.02617 5.72524C 1.23702 5.91652 1.34245 5.88709 1.43382 5.59281C 1.63765 4.94539 1.82039 4.28325 2.12262 3.68733C 2.55839 2.8192 3.33152 2.29684 4.12575 1.81864C 4.95512 1.31835 4.89187 1.51699 4.52638 0.670932C 4.17495 -0.15306 4.18198 -0.145702 3.4229 0.303079Z" stroke="black" stroke-width="1.5"/>
</g>
<g id="XMLID 18" transform="translate(11.7189 29.2323)">
<path d="M 3.3848 5.73415C 3.49023 5.60172 3.55349 5.53551 3.59566 5.45458C 3.75732 5.16029 4.28446 4.21123 4.44611 3.90959C 4.88891 2.96789 2.14075 0.790197 1.26218 0.245775C 0.678815 -0.107365 0.664758 -0.12208 0.369559 0.481199C -0.136496 1.50383 -0.21381 1.29783 0.720986 1.84961C 1.8807 2.53382 2.76629 3.43874 3.14583 4.81451C 3.21612 5.1088 3.29343 5.38101 3.3848 5.73415Z" fill="black"/>
<path d="M 3.3848 5.73415C 3.49023 5.60172 3.55349 5.53551 3.59566 5.45458C 3.75732 5.16029 4.28446 4.21123 4.44611 3.90959C 4.88891 2.96789 2.14075 0.790197 1.26218 0.245775C 0.678815 -0.107365 0.664758 -0.12208 0.369559 0.481199C -0.136496 1.50383 -0.21381 1.29783 0.720986 1.84961C 1.8807 2.53382 2.76629 3.43874 3.14583 4.81451C 3.21612 5.1088 3.29343 5.38101 3.3848 5.73415Z" stroke="black" stroke-width="1.5"/>
</g>
</g>
</g>
</g>
</svg>
