<svg width="78" height="68" viewBox="0 0 78 68" version="1.1" xmlns="http://www.w3.org/2000/svg" xmlns:xlink="http://www.w3.org/1999/xlink">
<g id="Canvas" fill="none">
<g id="Group">
<g id="XMLID 19" transform="translate(1 1)">
<path d="M 55.4547 57.0115C 53.4031 57.2536 50.6275 56.83 49.481 58.0404C 48.3346 59.1902 48.8173 61.9741 47.9122 64.6369C 46.8864 63.366 45.6796 62.1556 44.7745 60.8242C 42.6627 57.6772 39.5853 57.3747 36.327 57.7378C 35.3616 57.8588 34.3358 58.585 33.5514 59.2507C 31.8015 60.8242 30.1723 62.5793 27.8794 65C 27.8794 63.0029 27.7588 61.732 27.8191 60.4006C 28.0001 58.2824 27.1554 57.4352 25.0435 57.6772C 23.6557 57.7983 22.3282 57.7378 20.9404 57.7378C 20.699 57.4352 20.4577 57.0721 20.2163 56.7695C 22.2678 54.9539 24.3797 53.1383 26.3106 51.2017C 26.914 50.5966 26.9743 49.5072 27.276 48.66C 26.4916 48.3574 25.7072 47.8732 24.9228 47.8732C 18.1044 47.8732 11.2257 47.8732 4.4073 48.1153C 1.57133 48.2363 0.48522 47.4496 0.48522 44.4237C 0.42488 31.1096 0.304201 17.7955 0.00250263 4.48136C -0.0578371 1.63699 0.967938 0.850246 3.62288 0.850246C 26.2503 0.66869 48.757 0.366096 71.2637 0.00298464C 74.16 -0.057534 75.1858 0.789727 75.1858 3.69462C 75.2461 16.8877 75.4271 30.1413 75.6685 43.3343C 75.7288 46.1182 74.9444 47.3286 71.9274 47.268C 65.1694 47.147 58.4717 47.3286 51.7136 47.5101C 50.8689 47.5101 49.9638 48.1153 49.119 48.4179C 49.481 49.3862 49.6017 50.5966 50.3258 51.2017C 52.1963 53.0173 54.2479 54.5303 56.2391 56.2248C 55.9977 56.4669 55.7564 56.7695 55.4547 57.0115ZM 2.35575 46.4813C 10.2602 46.3603 17.9234 46.2997 25.5262 46.1182C 26.2503 46.1182 27.3364 45.1499 27.5174 44.4842C 28.7242 38.9165 33.672 36.0721 37.8355 35.9511C 41.9386 35.83 47.0071 38.0087 48.6363 43.758C 49.119 45.4525 50.0241 45.8761 51.6533 45.8761C 58.17 45.6946 64.747 45.5735 71.2637 45.634C 73.8583 45.6946 74.4013 44.7263 74.341 42.3055C 74.0996 29.8992 73.9186 17.4929 73.8583 5.08655C 73.8583 2.36321 73.1945 1.45543 70.2982 1.51595C 48.576 1.93958 26.8537 2.12114 5.19172 2.42373C 4.1056 2.48425 3.07983 2.60529 1.81269 2.6658C 1.99371 17.3113 2.17473 31.6542 2.35575 46.4813ZM 47.7312 46.6628C 47.6105 41.5188 43.1454 37.2219 38.0165 37.343C 32.8273 37.464 28.4828 42.0029 28.6639 47.147C 28.7845 52.17 33.5514 56.7089 38.4992 56.5879C 43.4471 56.4064 47.8519 51.7464 47.7312 46.6628ZM 47.4295 61.0663C 47.6105 59.0087 47.7312 57.6772 47.7915 56.2248C 49.3 55.9827 50.6878 55.8012 52.0153 55.6196C 50.7482 54.1066 49.7224 52.7752 48.9983 51.928C 46.9468 53.8646 45.1969 55.5591 43.2661 57.3747C 44.4729 58.464 45.74 59.5533 47.4295 61.0663ZM 33.491 57.3747C 33.1893 57.5562 32.948 57.7378 32.6463 57.8588C 31.0171 56.0432 29.3879 54.2277 27.6381 52.2911C 26.7933 53.1989 25.6469 54.4698 23.6557 56.5879C 28.2415 55.2565 29.75 56.951 28.9656 61.611C 31.0171 59.6744 32.2239 58.5245 33.491 57.3747Z" fill="#82BB27"/>
<path d="M 55.4547 57.0115C 53.4031 57.2536 50.6275 56.83 49.481 58.0404C 48.3346 59.1902 48.8173 61.9741 47.9122 64.6369C 46.8864 63.366 45.6796 62.1556 44.7745 60.8242C 42.6627 57.6772 39.5853 57.3747 36.327 57.7378C 35.3616 57.8588 34.3358 58.585 33.5514 59.2507C 31.8015 60.8242 30.1723 62.5793 27.8794 65C 27.8794 63.0029 27.7588 61.732 27.8191 60.4006C 28.0001 58.2824 27.1554 57.4352 25.0435 57.6772C 23.6557 57.7983 22.3282 57.7378 20.9404 57.7378C 20.699 57.4352 20.4577 57.0721 20.2163 56.7695C 22.2678 54.9539 24.3797 53.1383 26.3106 51.2017C 26.914 50.5966 26.9743 49.5072 27.276 48.66C 26.4916 48.3574 25.7072 47.8732 24.9228 47.8732C 18.1044 47.8732 11.2257 47.8732 4.4073 48.1153C 1.57133 48.2363 0.48522 47.4496 0.48522 44.4237C 0.42488 31.1096 0.304201 17.7955 0.00250263 4.48136C -0.0578371 1.63699 0.967938 0.850246 3.62288 0.850246C 26.2503 0.66869 48.757 0.366096 71.2637 0.00298464C 74.16 -0.057534 75.1858 0.789727 75.1858 3.69462C 75.2461 16.8877 75.4271 30.1413 75.6685 43.3343C 75.7288 46.1182 74.9444 47.3286 71.9274 47.268C 65.1694 47.147 58.4717 47.3286 51.7136 47.5101C 50.8689 47.5101 49.9638 48.1153 49.119 48.4179C 49.481 49.3862 49.6017 50.5966 50.3258 51.2017C 52.1963 53.0173 54.2479 54.5303 56.2391 56.2248C 55.9977 56.4669 55.7564 56.7695 55.4547 57.0115ZM 2.35575 46.4813C 10.2602 46.3603 17.9234 46.2997 25.5262 46.1182C 26.2503 46.1182 27.3364 45.1499 27.5174 44.4842C 28.7242 38.9165 33.672 36.0721 37.8355 35.9511C 41.9386 35.83 47.0071 38.0087 48.6363 43.758C 49.119 45.4525 50.0241 45.8761 51.6533 45.8761C 58.17 45.6946 64.747 45.5735 71.2637 45.634C 73.8583 45.6946 74.4013 44.7263 74.341 42.3055C 74.0996 29.8992 73.9186 17.4929 73.8583 5.08655C 73.8583 2.36321 73.1945 1.45543 70.2982 1.51595C 48.576 1.93958 26.8537 2.12114 5.19172 2.42373C 4.1056 2.48425 3.07983 2.60529 1.81269 2.6658C 1.99371 17.3113 2.17473 31.6542 2.35575 46.4813ZM 47.7312 46.6629C 47.6105 41.5188 43.1454 37.2219 38.0165 37.343C 32.8273 37.464 28.4828 42.0029 28.6639 47.147C 28.7845 52.17 33.5514 56.7089 38.4992 56.5879C 43.4471 56.4064 47.8519 51.7464 47.7312 46.6629ZM 47.4295 61.0663C 47.6105 59.0087 47.7312 57.6772 47.7915 56.2248C 49.3 55.9827 50.6878 55.8012 52.0153 55.6196C 50.7482 54.1066 49.7224 52.7752 48.9983 51.928C 46.9468 53.8646 45.1969 55.5591 43.2661 57.3747C 44.4729 58.464 45.74 59.5533 47.4295 61.0663ZM 33.491 57.3747C 33.1893 57.5562 32.948 57.7378 32.6463 57.8588C 31.0171 56.0432 29.3879 54.2277 27.6381 52.2911C 26.7933 53.1989 25.6469 54.4698 23.6557 56.5879C 28.2415 55.2565 29.75 56.951 28.9656 61.611C 31.0171 59.6744 32.2239 58.5245 33.491 57.3747Z" stroke="#82BB27"/>
</g>
<g id="XMLID 18" transform="translate(17.2917 13.1036)">
<path d="M 43.4446 0.955557C 28.9833 1.24222 14.4613 1.52889 2.31787e-07 1.81556C 2.31787e-07 1.52889 2.31787e-07 1.14667 2.31787e-07 0.860002C 14.4613 0.573335 28.9833 0.286667 43.4446 -7.29032e-07C 43.4446 0.286667 43.4446 0.668889 43.4446 0.955557Z" fill="#82BB27"/>
<path d="M 43.4446 0.955557C 28.9833 1.24222 14.4613 1.52889 2.31787e-07 1.81556C 2.31787e-07 1.52889 2.31787e-07 1.14667 2.31787e-07 0.860002C 14.4613 0.573335 28.9833 0.286667 43.4446 -7.29032e-07C 43.4446 0.286667 43.4446 0.668889 43.4446 0.955557Z" stroke="#82BB27"/>
</g>
<g id="XMLID 17" transform="translate(23.3257 20.3661)">
<path d="M 31.9201 1.10951C 21.2601 1.31124 10.6001 1.51297 9.13814e-07 1.81556C 9.13814e-07 1.4121 9.13814e-07 1.10951 9.13814e-07 0.70605C 10.66 0.504321 21.32 0.302592 31.98 -1.53907e-06C 31.9202 0.403456 31.9201 0.706052 31.9201 1.10951Z" fill="#82BB27"/>
<path d="M 31.9201 1.10951C 21.2601 1.31124 10.6001 1.51297 9.13814e-07 1.81556C 9.13814e-07 1.4121 9.13814e-07 1.10951 9.13814e-07 0.70605C 10.66 0.504321 21.32 0.302592 31.98 -1.53907e-06C 31.9201 0.403456 31.9201 0.706052 31.9201 1.10951Z" stroke="#82BB27"/>
</g>
<g id="XMLID 16" transform="translate(28.6985 32.0388)">
<path d="M 20.7569 5.57774C 15.1453 1.03885 8.68892 -1.26086 -4.60355e-07 5.57774C 0.0603392 2.67285 4.4048 0.252104 9.77503 0.0100291C 15.5073 -0.171527 20.3948 2.12818 20.7569 5.57774Z" fill="#82BB27"/>
<path d="M 20.7569 5.57774C 15.1453 1.03885 8.68891 -1.26086 -4.60355e-07 5.57774C 0.0603392 2.67285 4.4048 0.252104 9.77503 0.0100291C 15.5073 -0.171527 20.3948 2.12818 20.7569 5.57774Z" stroke="#82BB27"/>
</g>
<g id="XMLID 15" transform="translate(32.9492 46.2709)">
<path d="M 0.576377 1.08933C 1.24011 4.11527 2.62793 6.29394 5.82593 6.47549C 9.56699 6.71757 11.0151 4.11527 11.6789 1.84688e-06C 13.1874 3.5706 11.7996 5.32564 9.86869 6.83861C 7.69646 8.53313 3.89506 8.29105 1.90385 6.23342C 0.576377 4.90201 -0.811436 3.26801 0.576377 1.08933Z" fill="#82BB27"/>
<path d="M 0.576377 1.08933C 1.24011 4.11527 2.62793 6.29394 5.82593 6.47549C 9.56699 6.71757 11.0151 4.11527 11.6789 1.84688e-06C 13.1874 3.5706 11.7996 5.32564 9.86869 6.83861C 7.69646 8.53313 3.89506 8.29105 1.90385 6.23342C 0.576377 4.90201 -0.811436 3.26801 0.576377 1.08933Z" stroke="#82BB27"/>
</g>
</g>
</g>
</svg>
