<svg width="70" height="65" viewBox="0 0 70 65" version="1.1" xmlns="http://www.w3.org/2000/svg" xmlns:xlink="http://www.w3.org/1999/xlink">
<g id="Canvas" fill="none">
<g id="Group">
<path id="XMLID 34" d="M 30.4028 23.8074C 34.3908 19.7175 38.0303 16.0135 41.6698 12.2709C 43.1024 10.8047 44.4963 9.33854 45.9289 7.91095C 47.555 6.32902 48.794 6.40619 50.3041 8.10387C 50.9623 8.83696 51.6592 9.53146 52.3561 10.1488C 53.0918 10.8047 53.9049 11.3835 54.6018 11.9236C 57.0798 9.53146 59.7126 6.94636 62.6939 4.05259C 60.9129 4.05259 59.5578 4.05259 58.1639 4.05259C 56.7313 4.01401 55.531 3.551 55.531 1.93049C 55.531 0.38715 56.6926 0.00131399 58.0865 0.00131399C 61.1065 0.0398976 64.1652 0.0398976 67.1853 0.00131399C 68.9663 -0.0372696 69.7794 0.772986 69.7794 2.54783C 69.7407 5.63452 69.7794 8.7212 69.7794 11.8079C 69.7794 13.1197 69.3535 14.1615 67.8822 14.2001C 66.3335 14.2387 65.7914 13.1197 65.714 11.7693C 65.6753 10.3803 65.714 8.95271 65.714 6.94636C 63.8942 8.7212 62.4229 10.1874 60.9129 11.5764C 59.2093 13.1583 57.4282 14.6245 55.6859 16.2064C 54.6405 17.1324 53.8661 16.708 53.0143 15.9363C 51.4269 14.5087 49.8394 13.0811 47.8648 11.3449C 46.742 12.541 38.3788 21.068 36.3267 23.0743C 34.6231 24.772 32.9969 26.0838 31.2933 27.7815C 30.7513 28.3217 29.551 27.8201 29.1251 27.4728C 27.4989 26.161 25.9889 24.6562 24.0143 22.8814C 20.4134 26.5854 16.9288 30.2508 13.3667 33.8777C 10.2692 37.0416 7.09431 40.2054 3.95812 43.3307C 3.02888 44.2567 1.82861 44.8354 0.705771 43.7937C -0.571936 42.6362 0.0862766 41.4787 1.09296 40.4755C 8.17842 33.4147 15.2639 26.3925 22.3494 19.3317C 24.053 17.634 24.6337 17.634 26.3374 19.3703C 27.6538 20.7207 28.8541 22.1097 30.4028 23.8074Z" fill="#82BB27"/>
<path id="XMLID 28" d="M 18.5809 0.0705074C 19.4433 0.108403 21.1269 0.714735 21.168 2.23057C 21.2091 4.73169 21.2091 9.27918 21.168 11.7803C 21.1269 13.2582 20.2646 14.0541 18.5809 14.0541C 13.3245 14.0541 8.06808 14.0541 2.81169 14.0541C 1.16906 14.0541 0.26562 12.8035 0.183488 11.9698C -0.0218396 10.1887 -0.0629051 5.64119 0.101357 3.55692C 0.101357 3.36744 0.142423 3.14007 0.142423 2.98848C 0.224554 1.8895 0.265619 -0.0431824 3.59193 0.0326092C 5.76841 0.146297 14.4332 -0.118972 18.5809 0.0705074ZM 17.2383 10.0616L 17.3078 3.55692C 17.3078 3.21586 17.0204 2.91269 16.6508 2.91269L 4.31852 2.7716C 3.94893 2.7716 3.66148 3.07477 3.66148 3.45373L 3.59193 9.92051C 3.59193 10.5268 4.08472 11.0195 4.65964 11.0195L 16.1295 11.1606C 16.7455 11.1606 17.2383 10.6679 17.2383 10.0616Z" transform="translate(0.883301 50.9459)" fill="#82BB27"/>
<path id="XMLID 25" d="M 19.898 2.50468C 19.898 0.536718 19.4298 0.0715618 17.2839 0.0357806C 12.3679 -5.46511e-07 7.41297 0.0715624 2.497 0C 0.663268 0 -1.19066e-06 0.715623 -1.19066e-06 2.39734C 0.07803 8.65904 0.0390168 14.9208 0.0390168 21.1467C 0.0390168 27.4084 0.0390168 33.6701 0.0390168 39.896C 0.0390168 41.9355 0.54622 42.4365 2.77011 42.4365C 7.491 42.4723 12.2509 42.4723 17.0108 42.4365C 19.2737 42.4365 19.937 41.8282 19.937 39.7887C 19.898 27.4084 19.898 14.9565 19.898 2.50468ZM 14.3577 38.7152L 5.54021 38.7152C 4.68187 38.7152 4.01861 38.0712 4.01861 37.3198L 3.86255 5.40296C 3.86255 5.36718 3.86255 5.3314 3.86255 5.29562C 3.82353 4.25796 4.05762 3.82859 4.87695 3.64968C 5.22809 3.43499 5.65726 3.29187 6.12545 3.29187L 13.5384 3.29187C 13.8896 3.29187 14.2017 3.36343 14.4748 3.47077C 15.6062 3.57812 15.9574 4.25796 15.8013 5.5103L 15.8013 5.54608C 15.8013 5.54608 15.6062 31.6306 15.5672 37.5345C 15.6453 38.2143 15.06 38.7152 14.3577 38.7152Z" transform="translate(48.5806 22.5366)" fill="#82BB27"/>
<path id="XMLID 22" d="M 18.992 15.5145C 18.992 11.2397 18.9547 6.965 19.0293 2.73096C 19.0666 0.939632 18.3953 0.0439701 16.7916 0.0439701C 12.8385 0.0439701 8.84801 -0.0781663 4.89484 0.0846814C 3.55226 0.125393 1.91132 0.491799 1.01626 1.38746C 0.233087 2.2017 0.083911 3.99303 0.046617 5.33652C -0.0279711 12.8682 0.00932351 20.3592 0.00932351 27.8909C 0.00932351 29.9265 0.755204 30.7001 2.61991 30.7001C 7.28166 30.7408 11.9434 30.7001 16.5679 30.7001C 18.2088 30.7001 19.0666 30.0079 19.0293 28.0538C 18.9174 23.9419 18.992 19.7485 18.992 15.5145ZM 14.5913 26.5067L 4.74566 26.5881C 4.18625 26.5881 3.73873 26.0996 3.70143 25.4889L 3.66414 6.11004C 3.66414 4.97011 4.5219 4.03374 5.56613 4.03374L 13.6962 4.03374C 14.7405 4.03374 15.5982 4.97011 15.5982 6.11004L 15.5982 25.4482C 15.6355 26.0182 15.188 26.5067 14.5913 26.5067Z" transform="translate(25.3743 34.2819)" fill="#82BB27"/>
</g>
</g>
</svg>
