<svg width="70" height="65" viewBox="0 0 70 65" version="1.1" xmlns="http://www.w3.org/2000/svg" xmlns:xlink="http://www.w3.org/1999/xlink">
<g id="Canvas" fill="none">
<g id="Group" opacity="0.85">
<g id="XMLID 34">
<path fill-rule="evenodd" clip-rule="evenodd" d="M 30.3846 24.9003L 29.8487 24.3129C 29.3435 23.7591 28.8789 23.2421 28.4374 22.751C 27.5102 21.7194 26.6852 20.8016 25.8011 19.8946C 25.3828 19.4684 25.07 19.1874 24.8139 19.0136C 24.564 18.844 24.4224 18.8139 24.337 18.8132C 24.2523 18.8125 24.1127 18.8397 23.8647 19.0033C 23.6097 19.1716 23.2976 19.4456 22.8788 19.8629C 19.3356 23.3938 15.7925 26.9149 12.2498 30.4356C 8.70704 33.9564 5.16467 37.4768 1.62236 41.0068C 1.13969 41.4877 0.85355 41.9027 0.773061 42.2473C 0.737236 42.4007 0.74277 42.5376 0.79217 42.6763C 0.843732 42.821 0.959001 43.0111 1.20931 43.2379L 1.21592 43.2438L 1.21588 43.2439C 1.60061 43.6008 1.92806 43.6413 2.23368 43.5698C 2.59544 43.4852 3.00844 43.2182 3.42871 42.7994C 6.56547 39.6736 9.73708 36.513 12.8308 33.353L 12.8316 33.3522C 14.9394 31.206 17.0152 29.0515 19.1068 26.8805C 20.5505 25.3819 22.0018 23.8755 23.4765 22.3586L 23.9792 21.8415L 24.5156 22.3236C 25.2257 22.9618 25.8668 23.5563 26.4696 24.1154C 27.5768 25.1422 28.5552 26.0495 29.596 26.8891L 29.599 26.8915C 29.7171 26.9879 30.0193 27.1533 30.341 27.2307C 30.6672 27.3092 30.7658 27.2453 30.7669 27.247C 30.767 27.2471 30.7667 27.2475 30.766 27.2481C 31.6301 26.3872 32.4732 25.6252 33.3017 24.8764L 33.3071 24.8715C 34.1411 24.1177 34.9604 23.3771 35.7973 22.543L 35.8024 22.538L 35.8024 22.538C 37.8478 20.5382 46.2034 12.0189 47.318 10.8316L 47.8148 10.3023L 48.36 10.7817C 50.3379 12.5207 51.9279 13.9507 53.5151 15.378L 53.5158 15.3787L 53.5179 15.3805C 53.9372 15.7604 54.2122 15.9298 54.4257 15.9728C 54.5624 16.0003 54.7861 16.0005 55.1854 15.6479C 55.9734 14.9324 56.7692 14.2406 57.5551 13.5573C 57.6441 13.48 57.733 13.4027 57.8217 13.3255C 58.6977 12.5635 59.5606 11.8086 60.4026 11.0268L 60.4051 11.0244C 61.5726 9.9505 62.715 8.83178 64.0265 7.54755C 64.3993 7.18248 64.7857 6.80404 65.1903 6.40944L 66.464 5.16722L 66.464 6.94636C 66.464 7.68282 66.4589 8.33505 66.4543 8.93283C 66.4461 9.98154 66.4393 10.8627 66.4634 11.737C 66.4992 12.3393 66.6354 12.7793 66.8425 13.0504C 67.0176 13.2798 67.2985 13.4642 67.8628 13.4503C 68.3993 13.4362 68.629 13.2568 68.7613 13.0612C 68.9277 12.8152 69.0294 12.4065 69.0294 11.8079C 69.0294 10.7858 69.0251 9.76032 69.0208 8.73302C 69.0122 6.67298 69.0036 4.6056 69.0294 2.54344C 69.0287 1.75638 68.8465 1.34809 68.6239 1.12881C 68.4019 0.91015 67.9921 0.734011 67.2015 0.751138L 67.1949 0.751282C 64.1701 0.789897 61.1066 0.789918 58.0818 0.751316C 57.4283 0.751771 56.9648 0.848 56.6825 1.02377C 56.4665 1.15831 56.281 1.38205 56.281 1.93049C 56.281 2.52411 56.4829 2.79658 56.7296 2.96296C 57.0307 3.166 57.5132 3.28376 58.1743 3.30259L 58.1802 3.30259L 58.1884 3.30259L 58.1965 3.30259L 58.2047 3.30259L 58.2129 3.30259L 58.221 3.30259L 58.2292 3.30259L 58.2374 3.30259L 58.2455 3.30259L 58.2537 3.30259L 58.2618 3.30259L 58.27 3.30259L 58.2781 3.30259L 58.2863 3.30259L 58.2945 3.30259L 58.3026 3.30259L 58.3108 3.30259L 58.3189 3.30259L 58.3271 3.30259L 58.3352 3.30259L 58.3434 3.30259L 58.3515 3.30259L 58.3597 3.30259L 58.3678 3.30259L 58.376 3.30259L 58.3841 3.30259L 58.3923 3.30259L 58.4004 3.30259L 58.4086 3.30259L 58.4167 3.30259L 58.4249 3.30259L 58.433 3.30259L 58.4412 3.30259L 58.4493 3.30259L 58.4575 3.30259L 58.4656 3.30259L 58.4738 3.30259L 58.4819 3.30259L 58.4901 3.30259L 58.4982 3.30259L 58.5064 3.30259L 58.5145 3.30259L 58.5227 3.30259L 58.5308 3.30259L 58.539 3.30259L 58.5471 3.30259L 58.5553 3.30259L 58.5634 3.30259L 58.5716 3.30259L 58.5797 3.30259L 58.5879 3.30259L 58.596 3.30259L 58.6042 3.30259L 58.6123 3.30259L 58.6205 3.30259L 58.6286 3.30259L 58.6368 3.30259L 58.6449 3.30259L 58.6531 3.30259L 58.6612 3.30259L 58.6694 3.30259L 58.6775 3.30259L 58.6857 3.30259L 58.6938 3.30259L 58.702 3.30259L 58.7101 3.30259L 58.7183 3.30259L 58.7264 3.30259L 58.7346 3.30259L 58.7428 3.30259L 58.7509 3.30259L 58.7591 3.30259L 58.7672 3.30259L 58.7754 3.30259L 58.7836 3.30259L 58.7917 3.30259L 58.7999 3.30259L 58.808 3.30259L 58.8162 3.30259L 58.8244 3.30259L 58.8325 3.30259L 58.8407 3.30259L 58.8489 3.30259L 58.857 3.30259L 58.8652 3.30259L 58.8734 3.30259L 58.8815 3.30259L 58.8897 3.30259L 58.8979 3.30259L 58.906 3.30259L 58.9142 3.30259L 58.9224 3.30259L 58.9306 3.30259L 58.9387 3.30259L 58.9469 3.30259L 58.9551 3.30259L 58.9633 3.30259L 58.9715 3.30259L 58.9796 3.30259L 58.9878 3.30259L 58.996 3.30259L 59.0042 3.30259L 59.0124 3.30259L 59.0206 3.30259L 59.0288 3.30259L 59.0369 3.30259L 59.0451 3.30259L 59.0533 3.30259L 59.0615 3.30259L 59.0697 3.30259L 59.0779 3.30259L 59.0861 3.30259L 59.0943 3.30259L 59.1025 3.30259L 59.1107 3.30259L 59.1189 3.30259L 59.1271 3.30259L 59.1353 3.30259L 59.1435 3.30259L 59.1518 3.30259L 59.16 3.30259L 59.1682 3.30259L 59.1764 3.30259L 59.1846 3.30259L 59.1928 3.30259L 59.2011 3.30259L 59.2093 3.30259L 59.2175 3.30259L 59.2257 3.30259L 59.234 3.30259L 59.2422 3.30259L 59.2504 3.30259L 59.2587 3.30259L 59.2669 3.30259L 59.2751 3.30259L 59.2834 3.30259L 59.2916 3.30259L 59.2999 3.30259L 59.3081 3.30259L 59.3164 3.30259L 59.3246 3.30259L 59.3329 3.30259L 59.3411 3.30259L 59.3494 3.30259L 59.3576 3.30259L 59.3659 3.30259L 59.3741 3.30259L 59.3824 3.30259L 59.3907 3.30259L 59.3989 3.30259L 59.4072 3.30259L 59.4155 3.30259L 59.4238 3.30259L 59.432 3.30259L 59.4403 3.30259L 59.4486 3.30259L 59.4569 3.30259L 59.4652 3.30259L 59.4735 3.30259L 59.4818 3.30259L 59.4901 3.30259L 59.4984 3.30259L 59.5067 3.30259L 59.515 3.30259L 59.5233 3.30259L 59.5316 3.30259L 59.5399 3.30259L 59.5482 3.30259L 59.5565 3.30259L 59.5648 3.30259L 59.5731 3.30259L 59.5815 3.30259L 59.5898 3.30259L 59.5981 3.30259L 59.6065 3.30259L 59.6148 3.30259L 59.6231 3.30259L 59.6315 3.30259L 59.6398 3.30259L 59.6482 3.30259L 59.6565 3.30259L 59.6649 3.30259L 59.6732 3.30259L 59.6816 3.30259L 59.6899 3.30259L 59.6983 3.30259L 59.7067 3.30259L 59.715 3.30259L 59.7234 3.30259L 59.7318 3.30259L 59.7402 3.30259L 59.7485 3.30259L 59.7569 3.30259L 59.7653 3.30259L 59.7737 3.30259L 59.7821 3.30259L 59.7905 3.30259L 59.7989 3.30259L 59.8073 3.30259L 59.8157 3.30259L 59.8241 3.30259L 59.8325 3.30259L 59.8409 3.30259L 59.8494 3.30259L 59.8578 3.30259L 59.8662 3.30259L 59.8746 3.30259L 59.8831 3.30259L 59.8915 3.30259L 59.8999 3.30259L 59.9084 3.30259L 59.9168 3.30259L 59.9253 3.30259L 59.9338 3.30259L 59.9422 3.30259L 59.9507 3.30259L 59.9591 3.30259L 59.9676 3.30259L 59.9761 3.30259L 59.9846 3.30259L 59.993 3.30259L 60.0015 3.30259L 60.01 3.30259L 60.0185 3.30259L 60.027 3.30259L 60.0355 3.30259L 60.044 3.30259L 60.0525 3.30259L 60.061 3.30259L 60.0695 3.30259L 60.078 3.30259L 60.0866 3.30259L 60.0951 3.30259L 60.1036 3.30259L 60.1122 3.30259L 60.1207 3.30259L 60.1292 3.30259L 60.1378 3.30259L 60.1463 3.30259L 60.1549 3.30259L 60.1635 3.30259L 60.172 3.30259L 60.1806 3.30259L 60.1892 3.30259L 60.1977 3.30259L 60.2063 3.30259L 60.2149 3.30259L 60.2235 3.30259L 60.2321 3.30259L 60.2407 3.30259L 60.2493 3.30259L 60.2579 3.30259L 60.2665 3.30259L 60.2751 3.30259L 60.2837 3.30259L 60.2923 3.30259L 60.301 3.30259L 60.3096 3.30259L 60.3182 3.30259L 60.3269 3.30259L 60.3355 3.30259L 60.3442 3.30259L 60.3528 3.30259L 60.3615 3.30259L 60.3702 3.30259L 60.3788 3.30259L 60.3875 3.30259L 60.3962 3.30259L 60.4049 3.30259L 60.4135 3.30259L 60.4222 3.30259L 60.4309 3.30259L 60.4396 3.30259L 60.4483 3.30259L 60.4571 3.30259L 60.4658 3.30259L 60.4745 3.30259L 60.4832 3.30259L 60.4919 3.30259L 60.5007 3.30259L 60.5094 3.30259L 60.5182 3.30259L 60.5269 3.30259L 60.5357 3.30259L 60.5444 3.30259L 60.5532 3.30259L 60.562 3.30259L 60.5707 3.30259L 60.5795 3.30259L 60.5883 3.30259L 60.5971 3.30259L 60.6059 3.30259L 60.6147 3.30259L 60.6235 3.30259L 60.6323 3.30259L 60.6411 3.30259L 60.65 3.30259L 60.6588 3.30259L 60.6676 3.30259L 60.6765 3.30259L 60.6853 3.30259L 60.6942 3.30259L 60.703 3.30259L 60.7119 3.30259L 60.7207 3.30259L 60.7296 3.30259L 60.7385 3.30259L 60.7474 3.30259L 60.7563 3.30259L 60.7651 3.30259L 60.774 3.30259L 60.7829 3.30259L 60.7919 3.30259L 60.8008 3.30259L 60.8097 3.30259L 60.8186 3.30259L 60.8276 3.30259L 60.8365 3.30259L 60.8454 3.30259L 60.8544 3.30259L 60.8633 3.30259L 60.8723 3.30259L 60.8813 3.30259L 60.8902 3.30259L 60.8992 3.30259L 60.9082 3.30259L 60.9172 3.30259L 60.9262 3.30259L 60.9352 3.30259L 60.9442 3.30259L 60.9532 3.30259L 60.9622 3.30259L 60.9713 3.30259L 60.9803 3.30259L 60.9893 3.30259L 60.9984 3.30259L 61.0074 3.30259L 61.0165 3.30259L 61.0256 3.30259L 61.0346 3.30259L 61.0437 3.30259L 61.0528 3.30259L 61.0619 3.30259L 61.071 3.30259L 61.0801 3.30259L 61.0892 3.30259L 61.0983 3.30259L 61.1074 3.30259L 61.1165 3.30259L 61.1257 3.30259L 61.1348 3.30259L 61.144 3.30259L 61.1531 3.30259L 61.1623 3.30259L 61.1714 3.30259L 61.1806 3.30259L 61.1898 3.30259L 61.199 3.30259L 61.2081 3.30259L 61.2173 3.30259L 61.2266 3.30259L 61.2358 3.30259L 61.245 3.30259L 61.2542 3.30259L 61.2634 3.30259L 61.2727 3.30259L 61.2819 3.30259L 61.2912 3.30259L 61.3004 3.30259L 61.3097 3.30259L 61.319 3.30259L 61.3282 3.30259L 61.3375 3.30259L 61.3468 3.30259L 61.3561 3.30259L 61.3654 3.30259L 61.3747 3.30259L 61.384 3.30259L 61.3934 3.30259L 61.4027 3.30259L 61.412 3.30259L 61.4214 3.30259L 61.4308 3.30259L 61.4401 3.30259L 61.4495 3.30259L 61.4589 3.30259L 61.4682 3.30259L 61.4776 3.30259L 61.487 3.30259L 61.4964 3.30259L 61.5058 3.30259L 61.5153 3.30259L 61.5247 3.30259L 61.5341 3.30259L 61.5436 3.30259L 61.553 3.30259L 61.5625 3.30259L 61.5719 3.30259L 61.5814 3.30259L 61.5909 3.30259L 61.6004 3.30259L 61.6099 3.30259L 61.6194 3.30259L 61.6289 3.30259L 61.6384 3.30259L 61.6479 3.30259L 61.6574 3.30259L 61.667 3.30259L 61.6765 3.30259L 61.6861 3.30259L 61.6956 3.30259L 61.7052 3.30259L 61.7148 3.30259L 61.7244 3.30259L 61.734 3.30259L 61.7436 3.30259L 61.7532 3.30259L 61.7628 3.30259L 61.7724 3.30259L 61.782 3.30259L 61.7917 3.30259L 61.8013 3.30259L 61.811 3.30259L 61.8206 3.30259L 61.8303 3.30259L 61.84 3.30259L 61.8497 3.30259L 61.8594 3.30259L 61.8691 3.30259L 61.8788 3.30259L 61.8885 3.30259L 61.8982 3.30259L 61.908 3.30259L 61.9177 3.30259L 61.9274 3.30259L 61.9372 3.30259L 61.947 3.30259L 61.9568 3.30259L 61.9665 3.30259L 61.9763 3.30259L 61.9861 3.30259L 61.9959 3.30259L 62.0058 3.30259L 62.0156 3.30259L 62.0254 3.30259L 62.0353 3.30259L 62.0451 3.30259L 62.055 3.30259L 62.0648 3.30259L 62.0747 3.30259L 62.0846 3.30259L 62.0945 3.30259L 62.1044 3.30259L 62.1143 3.30259L 62.1242 3.30259L 62.1341 3.30259L 62.1441 3.30259L 62.154 3.30259L 62.164 3.30259L 62.1739 3.30259L 62.1839 3.30259L 62.1939 3.30259L 62.2039 3.30259L 62.2139 3.30259L 62.2239 3.30259L 62.2339 3.30259L 62.2439 3.30259L 62.2539 3.30259L 62.264 3.30259L 62.274 3.30259L 62.2841 3.30259L 62.2942 3.30259L 62.3042 3.30259L 62.3143 3.30259L 62.3244 3.30259L 62.3345 3.30259L 62.3446 3.30259L 62.3547 3.30259L 62.3649 3.30259L 62.375 3.30259L 62.3852 3.30259L 62.3953 3.30259L 62.4055 3.30259L 62.4157 3.30259L 62.4258 3.30259L 62.436 3.30259L 62.4462 3.30259L 62.4565 3.30259L 62.4667 3.30259L 62.4769 3.30259L 62.4871 3.30259L 62.4974 3.30259L 62.5077 3.30259L 62.5179 3.30259L 62.5282 3.30259L 62.5385 3.30259L 62.5488 3.30259L 62.5591 3.30259L 62.5694 3.30259L 62.5797 3.30259L 62.5901 3.30259L 62.6004 3.30259L 62.6108 3.30259L 62.6211 3.30259L 62.6315 3.30259L 62.6419 3.30259L 62.6523 3.30259L 62.6627 3.30259L 62.6731 3.30259L 62.6835 3.30259L 62.6939 3.30259L 64.5435 3.30259L 63.2163 4.59076C 61.949 5.82082 60.7427 6.99712 59.5838 8.1271C 58.0214 9.65062 56.5453 11.0899 55.1227 12.4632L 54.6556 12.9142L 54.1423 12.5164C 53.9707 12.3834 53.7859 12.2437 53.5931 12.0979C 53.0405 11.68 52.4221 11.2123 51.8579 10.7094C 51.8576 10.7091 51.8573 10.7089 51.857 10.7086L 52.3561 10.1488C 51.6592 9.53146 50.9623 8.83696 50.304 8.10387M 42.2065 12.7949C 40.1469 14.9128 38.0853 17.0203 35.9614 19.1917C 34.3333 20.8562 32.6685 22.5581 30.9398 24.331L 30.3846 24.9003M 42.2065 12.7949C 42.6948 12.295 43.1761 11.798 43.6545 11.3038C 44.5883 10.3393 45.5113 9.386 46.455 8.44543" fill="#B0E519"/>
<path fill-rule="evenodd" clip-rule="evenodd" d="M 30.3846 24.9003L 29.8487 24.3129C 29.3435 23.7591 28.8789 23.2421 28.4374 22.751C 27.5102 21.7194 26.6852 20.8016 25.8011 19.8946C 25.3828 19.4684 25.07 19.1874 24.8139 19.0136C 24.564 18.844 24.4224 18.8139 24.337 18.8132C 24.2523 18.8125 24.1127 18.8397 23.8647 19.0033C 23.6097 19.1716 23.2976 19.4456 22.8788 19.8629C 19.3356 23.3938 15.7925 26.9149 12.2498 30.4356C 8.70704 33.9564 5.16467 37.4768 1.62236 41.0068C 1.13969 41.4877 0.85355 41.9027 0.773061 42.2473C 0.737236 42.4007 0.74277 42.5376 0.79217 42.6763C 0.843732 42.821 0.959001 43.0111 1.20931 43.2379L 1.21592 43.2438L 1.21588 43.2439C 1.60061 43.6008 1.92806 43.6413 2.23368 43.5698C 2.59544 43.4852 3.00844 43.2182 3.42871 42.7994C 6.56547 39.6736 9.73708 36.513 12.8308 33.353L 12.8316 33.3522C 14.9394 31.206 17.0152 29.0515 19.1068 26.8805C 20.5505 25.3819 22.0018 23.8755 23.4765 22.3586L 23.9792 21.8415L 24.5156 22.3236C 25.2257 22.9618 25.8668 23.5563 26.4696 24.1154C 27.5768 25.1422 28.5552 26.0495 29.596 26.8891L 29.599 26.8915C 29.7171 26.9879 30.0193 27.1533 30.341 27.2307C 30.6672 27.3092 30.7658 27.2453 30.7669 27.247C 30.767 27.2471 30.7667 27.2475 30.766 27.2481C 31.6301 26.3872 32.4732 25.6252 33.3017 24.8764L 33.3071 24.8715C 34.1411 24.1177 34.9604 23.3771 35.7973 22.543L 35.8024 22.538L 35.8024 22.538C 37.8478 20.5382 46.2034 12.0189 47.318 10.8316L 47.8148 10.3023L 48.36 10.7817C 50.3379 12.5207 51.9279 13.9507 53.5151 15.378L 53.5158 15.3787L 53.5179 15.3805C 53.9372 15.7604 54.2122 15.9298 54.4257 15.9728C 54.5624 16.0003 54.7861 16.0005 55.1854 15.6479C 55.9734 14.9324 56.7692 14.2406 57.5551 13.5573C 57.6441 13.48 57.733 13.4027 57.8217 13.3255C 58.6977 12.5635 59.5606 11.8086 60.4026 11.0268L 60.4051 11.0244C 61.5726 9.9505 62.715 8.83178 64.0265 7.54755C 64.3993 7.18248 64.7857 6.80404 65.1903 6.40944L 66.464 5.16722L 66.464 6.94636C 66.464 7.68282 66.4589 8.33505 66.4543 8.93283C 66.4461 9.98154 66.4393 10.8627 66.4634 11.737C 66.4992 12.3393 66.6354 12.7793 66.8425 13.0504C 67.0176 13.2798 67.2985 13.4642 67.8628 13.4503C 68.3993 13.4362 68.629 13.2568 68.7613 13.0612C 68.9277 12.8152 69.0294 12.4065 69.0294 11.8079C 69.0294 10.7858 69.0251 9.76032 69.0208 8.73302C 69.0122 6.67298 69.0036 4.6056 69.0294 2.54344C 69.0287 1.75638 68.8465 1.34809 68.6239 1.12881C 68.4019 0.91015 67.9921 0.734011 67.2015 0.751138L 67.1949 0.751282C 64.1701 0.789897 61.1066 0.789918 58.0818 0.751316C 57.4283 0.751771 56.9648 0.848 56.6825 1.02377C 56.4665 1.15831 56.281 1.38205 56.281 1.93049C 56.281 2.52411 56.4829 2.79658 56.7296 2.96296C 57.0307 3.166 57.5132 3.28376 58.1743 3.30259L 58.1802 3.30259L 58.1884 3.30259L 58.1965 3.30259L 58.2047 3.30259L 58.2129 3.30259L 58.221 3.30259L 58.2292 3.30259L 58.2374 3.30259L 58.2455 3.30259L 58.2537 3.30259L 58.2618 3.30259L 58.27 3.30259L 58.2781 3.30259L 58.2863 3.30259L 58.2945 3.30259L 58.3026 3.30259L 58.3108 3.30259L 58.3189 3.30259L 58.3271 3.30259L 58.3352 3.30259L 58.3434 3.30259L 58.3515 3.30259L 58.3597 3.30259L 58.3678 3.30259L 58.376 3.30259L 58.3841 3.30259L 58.3923 3.30259L 58.4004 3.30259L 58.4086 3.30259L 58.4167 3.30259L 58.4249 3.30259L 58.433 3.30259L 58.4412 3.30259L 58.4493 3.30259L 58.4575 3.30259L 58.4656 3.30259L 58.4738 3.30259L 58.4819 3.30259L 58.4901 3.30259L 58.4982 3.30259L 58.5064 3.30259L 58.5145 3.30259L 58.5227 3.30259L 58.5308 3.30259L 58.539 3.30259L 58.5471 3.30259L 58.5553 3.30259L 58.5634 3.30259L 58.5716 3.30259L 58.5797 3.30259L 58.5879 3.30259L 58.596 3.30259L 58.6042 3.30259L 58.6123 3.30259L 58.6205 3.30259L 58.6286 3.30259L 58.6368 3.30259L 58.6449 3.30259L 58.6531 3.30259L 58.6612 3.30259L 58.6694 3.30259L 58.6775 3.30259L 58.6857 3.30259L 58.6938 3.30259L 58.702 3.30259L 58.7101 3.30259L 58.7183 3.30259L 58.7264 3.30259L 58.7346 3.30259L 58.7428 3.30259L 58.7509 3.30259L 58.7591 3.30259L 58.7672 3.30259L 58.7754 3.30259L 58.7836 3.30259L 58.7917 3.30259L 58.7999 3.30259L 58.808 3.30259L 58.8162 3.30259L 58.8244 3.30259L 58.8325 3.30259L 58.8407 3.30259L 58.8489 3.30259L 58.857 3.30259L 58.8652 3.30259L 58.8734 3.30259L 58.8815 3.30259L 58.8897 3.30259L 58.8979 3.30259L 58.906 3.30259L 58.9142 3.30259L 58.9224 3.30259L 58.9306 3.30259L 58.9387 3.30259L 58.9469 3.30259L 58.9551 3.30259L 58.9633 3.30259L 58.9715 3.30259L 58.9796 3.30259L 58.9878 3.30259L 58.996 3.30259L 59.0042 3.30259L 59.0124 3.30259L 59.0206 3.30259L 59.0288 3.30259L 59.0369 3.30259L 59.0451 3.30259L 59.0533 3.30259L 59.0615 3.30259L 59.0697 3.30259L 59.0779 3.30259L 59.0861 3.30259L 59.0943 3.30259L 59.1025 3.30259L 59.1107 3.30259L 59.1189 3.30259L 59.1271 3.30259L 59.1353 3.30259L 59.1435 3.30259L 59.1518 3.30259L 59.16 3.30259L 59.1682 3.30259L 59.1764 3.30259L 59.1846 3.30259L 59.1928 3.30259L 59.2011 3.30259L 59.2093 3.30259L 59.2175 3.30259L 59.2257 3.30259L 59.234 3.30259L 59.2422 3.30259L 59.2504 3.30259L 59.2587 3.30259L 59.2669 3.30259L 59.2751 3.30259L 59.2834 3.30259L 59.2916 3.30259L 59.2999 3.30259L 59.3081 3.30259L 59.3164 3.30259L 59.3246 3.30259L 59.3329 3.30259L 59.3411 3.30259L 59.3494 3.30259L 59.3576 3.30259L 59.3659 3.30259L 59.3741 3.30259L 59.3824 3.30259L 59.3907 3.30259L 59.3989 3.30259L 59.4072 3.30259L 59.4155 3.30259L 59.4238 3.30259L 59.432 3.30259L 59.4403 3.30259L 59.4486 3.30259L 59.4569 3.30259L 59.4652 3.30259L 59.4735 3.30259L 59.4818 3.30259L 59.4901 3.30259L 59.4984 3.30259L 59.5067 3.30259L 59.515 3.30259L 59.5233 3.30259L 59.5316 3.30259L 59.5399 3.30259L 59.5482 3.30259L 59.5565 3.30259L 59.5648 3.30259L 59.5731 3.30259L 59.5815 3.30259L 59.5898 3.30259L 59.5981 3.30259L 59.6065 3.30259L 59.6148 3.30259L 59.6231 3.30259L 59.6315 3.30259L 59.6398 3.30259L 59.6482 3.30259L 59.6565 3.30259L 59.6649 3.30259L 59.6732 3.30259L 59.6816 3.30259L 59.6899 3.30259L 59.6983 3.30259L 59.7067 3.30259L 59.715 3.30259L 59.7234 3.30259L 59.7318 3.30259L 59.7402 3.30259L 59.7485 3.30259L 59.7569 3.30259L 59.7653 3.30259L 59.7737 3.30259L 59.7821 3.30259L 59.7905 3.30259L 59.7989 3.30259L 59.8073 3.30259L 59.8157 3.30259L 59.8241 3.30259L 59.8325 3.30259L 59.8409 3.30259L 59.8494 3.30259L 59.8578 3.30259L 59.8662 3.30259L 59.8746 3.30259L 59.8831 3.30259L 59.8915 3.30259L 59.8999 3.30259L 59.9084 3.30259L 59.9168 3.30259L 59.9253 3.30259L 59.9338 3.30259L 59.9422 3.30259L 59.9507 3.30259L 59.9591 3.30259L 59.9676 3.30259L 59.9761 3.30259L 59.9846 3.30259L 59.993 3.30259L 60.0015 3.30259L 60.01 3.30259L 60.0185 3.30259L 60.027 3.30259L 60.0355 3.30259L 60.044 3.30259L 60.0525 3.30259L 60.061 3.30259L 60.0695 3.30259L 60.078 3.30259L 60.0866 3.30259L 60.0951 3.30259L 60.1036 3.30259L 60.1122 3.30259L 60.1207 3.30259L 60.1292 3.30259L 60.1378 3.30259L 60.1463 3.30259L 60.1549 3.30259L 60.1635 3.30259L 60.172 3.30259L 60.1806 3.30259L 60.1892 3.30259L 60.1977 3.30259L 60.2063 3.30259L 60.2149 3.30259L 60.2235 3.30259L 60.2321 3.30259L 60.2407 3.30259L 60.2493 3.30259L 60.2579 3.30259L 60.2665 3.30259L 60.2751 3.30259L 60.2837 3.30259L 60.2923 3.30259L 60.301 3.30259L 60.3096 3.30259L 60.3182 3.30259L 60.3269 3.30259L 60.3355 3.30259L 60.3442 3.30259L 60.3528 3.30259L 60.3615 3.30259L 60.3702 3.30259L 60.3788 3.30259L 60.3875 3.30259L 60.3962 3.30259L 60.4049 3.30259L 60.4135 3.30259L 60.4222 3.30259L 60.4309 3.30259L 60.4396 3.30259L 60.4483 3.30259L 60.4571 3.30259L 60.4658 3.30259L 60.4745 3.30259L 60.4832 3.30259L 60.4919 3.30259L 60.5007 3.30259L 60.5094 3.30259L 60.5182 3.30259L 60.5269 3.30259L 60.5357 3.30259L 60.5444 3.30259L 60.5532 3.30259L 60.562 3.30259L 60.5707 3.30259L 60.5795 3.30259L 60.5883 3.30259L 60.5971 3.30259L 60.6059 3.30259L 60.6147 3.30259L 60.6235 3.30259L 60.6323 3.30259L 60.6411 3.30259L 60.65 3.30259L 60.6588 3.30259L 60.6676 3.30259L 60.6765 3.30259L 60.6853 3.30259L 60.6942 3.30259L 60.703 3.30259L 60.7119 3.30259L 60.7207 3.30259L 60.7296 3.30259L 60.7385 3.30259L 60.7474 3.30259L 60.7563 3.30259L 60.7651 3.30259L 60.774 3.30259L 60.7829 3.30259L 60.7919 3.30259L 60.8008 3.30259L 60.8097 3.30259L 60.8186 3.30259L 60.8276 3.30259L 60.8365 3.30259L 60.8454 3.30259L 60.8544 3.30259L 60.8633 3.30259L 60.8723 3.30259L 60.8813 3.30259L 60.8902 3.30259L 60.8992 3.30259L 60.9082 3.30259L 60.9172 3.30259L 60.9262 3.30259L 60.9352 3.30259L 60.9442 3.30259L 60.9532 3.30259L 60.9622 3.30259L 60.9713 3.30259L 60.9803 3.30259L 60.9893 3.30259L 60.9984 3.30259L 61.0074 3.30259L 61.0165 3.30259L 61.0256 3.30259L 61.0346 3.30259L 61.0437 3.30259L 61.0528 3.30259L 61.0619 3.30259L 61.071 3.30259L 61.0801 3.30259L 61.0892 3.30259L 61.0983 3.30259L 61.1074 3.30259L 61.1165 3.30259L 61.1257 3.30259L 61.1348 3.30259L 61.144 3.30259L 61.1531 3.30259L 61.1623 3.30259L 61.1714 3.30259L 61.1806 3.30259L 61.1898 3.30259L 61.199 3.30259L 61.2081 3.30259L 61.2173 3.30259L 61.2266 3.30259L 61.2358 3.30259L 61.245 3.30259L 61.2542 3.30259L 61.2634 3.30259L 61.2727 3.30259L 61.2819 3.30259L 61.2912 3.30259L 61.3004 3.30259L 61.3097 3.30259L 61.319 3.30259L 61.3282 3.30259L 61.3375 3.30259L 61.3468 3.30259L 61.3561 3.30259L 61.3654 3.30259L 61.3747 3.30259L 61.384 3.30259L 61.3934 3.30259L 61.4027 3.30259L 61.412 3.30259L 61.4214 3.30259L 61.4308 3.30259L 61.4401 3.30259L 61.4495 3.30259L 61.4589 3.30259L 61.4682 3.30259L 61.4776 3.30259L 61.487 3.30259L 61.4964 3.30259L 61.5058 3.30259L 61.5153 3.30259L 61.5247 3.30259L 61.5341 3.30259L 61.5436 3.30259L 61.553 3.30259L 61.5625 3.30259L 61.5719 3.30259L 61.5814 3.30259L 61.5909 3.30259L 61.6004 3.30259L 61.6099 3.30259L 61.6194 3.30259L 61.6289 3.30259L 61.6384 3.30259L 61.6479 3.30259L 61.6574 3.30259L 61.667 3.30259L 61.6765 3.30259L 61.6861 3.30259L 61.6956 3.30259L 61.7052 3.30259L 61.7148 3.30259L 61.7244 3.30259L 61.734 3.30259L 61.7436 3.30259L 61.7532 3.30259L 61.7628 3.30259L 61.7724 3.30259L 61.782 3.30259L 61.7917 3.30259L 61.8013 3.30259L 61.811 3.30259L 61.8206 3.30259L 61.8303 3.30259L 61.84 3.30259L 61.8497 3.30259L 61.8594 3.30259L 61.8691 3.30259L 61.8788 3.30259L 61.8885 3.30259L 61.8982 3.30259L 61.908 3.30259L 61.9177 3.30259L 61.9274 3.30259L 61.9372 3.30259L 61.947 3.30259L 61.9568 3.30259L 61.9665 3.30259L 61.9763 3.30259L 61.9861 3.30259L 61.9959 3.30259L 62.0058 3.30259L 62.0156 3.30259L 62.0254 3.30259L 62.0353 3.30259L 62.0451 3.30259L 62.055 3.30259L 62.0648 3.30259L 62.0747 3.30259L 62.0846 3.30259L 62.0945 3.30259L 62.1044 3.30259L 62.1143 3.30259L 62.1242 3.30259L 62.1341 3.30259L 62.1441 3.30259L 62.154 3.30259L 62.164 3.30259L 62.1739 3.30259L 62.1839 3.30259L 62.1939 3.30259L 62.2039 3.30259L 62.2139 3.30259L 62.2239 3.30259L 62.2339 3.30259L 62.2439 3.30259L 62.2539 3.30259L 62.264 3.30259L 62.274 3.30259L 62.2841 3.30259L 62.2942 3.30259L 62.3042 3.30259L 62.3143 3.30259L 62.3244 3.30259L 62.3345 3.30259L 62.3446 3.30259L 62.3547 3.30259L 62.3649 3.30259L 62.375 3.30259L 62.3852 3.30259L 62.3953 3.30259L 62.4055 3.30259L 62.4157 3.30259L 62.4258 3.30259L 62.436 3.30259L 62.4462 3.30259L 62.4565 3.30259L 62.4667 3.30259L 62.4769 3.30259L 62.4871 3.30259L 62.4974 3.30259L 62.5077 3.30259L 62.5179 3.30259L 62.5282 3.30259L 62.5385 3.30259L 62.5488 3.30259L 62.5591 3.30259L 62.5694 3.30259L 62.5797 3.30259L 62.5901 3.30259L 62.6004 3.30259L 62.6108 3.30259L 62.6211 3.30259L 62.6315 3.30259L 62.6419 3.30259L 62.6523 3.30259L 62.6627 3.30259L 62.6731 3.30259L 62.6835 3.30259L 62.6939 3.30259L 64.5435 3.30259L 63.2163 4.59076C 61.949 5.82082 60.7427 6.99712 59.5838 8.1271C 58.0214 9.65062 56.5453 11.0899 55.1227 12.4632L 54.6556 12.9142L 54.1423 12.5164C 53.9707 12.3834 53.7859 12.2437 53.5931 12.0979C 53.0405 11.68 52.4221 11.2123 51.8579 10.7094C 51.8576 10.7091 51.8573 10.7089 51.857 10.7086L 52.3561 10.1488C 51.6592 9.53146 50.9623 8.83696 50.304 8.10387M 42.2065 12.7949C 40.1469 14.9128 38.0853 17.0203 35.9614 19.1917C 34.3333 20.8562 32.6685 22.5581 30.9398 24.331L 30.3846 24.9003M 42.2065 12.7949C 42.6948 12.295 43.1761 11.798 43.6545 11.3038C 44.5883 10.3393 45.5113 9.386 46.455 8.44543" stroke-width="1.5" stroke-miterlimit="8" stroke="#B0E519"/>
</g>
<g id="XMLID 28">
<path fill-rule="evenodd" clip-rule="evenodd" d="M 18.5479 0.819784L 18.5466 0.819727C 16.4978 0.726127 13.3172 0.744622 10.3544 0.773102C 9.96292 0.776865 9.57474 0.780815 9.19329 0.784697C 6.72521 0.809813 4.53953 0.832055 3.56428 0.782181C 2.05215 0.749736 1.50052 1.17036 1.26098 1.50583C 0.975247 1.90601 0.937012 2.41862 0.892796 3.01143C 0.892556 3.01465 0.892316 3.01787 0.892076 3.02109C 0.889926 3.12526 0.878262 3.23667 0.870333 3.3124C 0.869483 3.32052 0.868676 3.32824 0.867928 3.33548C 0.857119 3.44021 0.851357 3.50681 0.851357 3.55692L 0.851357 3.58643L 0.849039 3.61584C 0.687873 5.66082 0.729709 10.159 0.928554 11.8839L 0.929978 11.8962L 0.929875 11.8963C 0.976925 12.3739 1.58208 13.3041 2.81169 13.3041L 2.84249 13.3041L 2.87329 13.3041L 2.90408 13.3041L 2.93488 13.3041L 2.96568 13.3041L 2.99648 13.3041L 3.02728 13.3041L 3.05808 13.3041L 3.08888 13.3041L 3.11968 13.3041L 3.15048 13.3041L 3.18128 13.3041L 3.21208 13.3041L 3.24288 13.3041L 3.27367 13.3041L 3.30447 13.3041L 3.33527 13.3041L 3.36607 13.3041L 3.39687 13.3041L 3.42767 13.3041L 3.45847 13.3041L 3.48927 13.3041L 3.52007 13.3041L 3.55087 13.3041L 3.58167 13.3041L 3.61247 13.3041L 3.64327 13.3041L 3.67406 13.3041L 3.70486 13.3041L 3.73566 13.3041L 3.76646 13.3041L 3.79726 13.3041L 3.82806 13.3041L 3.85886 13.3041L 3.88966 13.3041L 3.92046 13.3041L 3.95126 13.3041L 3.98206 13.3041L 4.01286 13.3041L 4.04365 13.3041L 4.07445 13.3041L 4.10525 13.3041L 4.13605 13.3041L 4.16685 13.3041L 4.19765 13.3041L 4.22845 13.3041L 4.25925 13.3041L 4.29005 13.3041L 4.32085 13.3041L 4.35165 13.3041L 4.38245 13.3041L 4.41324 13.3041L 4.44404 13.3041L 4.47484 13.3041L 4.50564 13.3041L 4.53644 13.3041L 4.56724 13.3041L 4.59804 13.3041L 4.62884 13.3041L 4.65964 13.3041L 4.69044 13.3041L 4.72124 13.3041L 4.75204 13.3041L 4.78284 13.3041L 4.81363 13.3041L 4.84443 13.3041L 4.87523 13.3041L 4.90603 13.3041L 4.93683 13.3041L 4.96763 13.3041L 4.99843 13.3041L 5.02923 13.3041L 5.06003 13.3041L 5.09083 13.3041L 5.12163 13.3041L 5.15243 13.3041L 5.18322 13.3041L 5.21402 13.3041L 5.24482 13.3041L 5.27562 13.3041L 5.30642 13.3041L 5.33722 13.3041L 5.36802 13.3041L 5.39882 13.3041L 5.42962 13.3041L 5.46042 13.3041L 5.49122 13.3041L 5.52202 13.3041L 5.55281 13.3041L 5.58361 13.3041L 5.61441 13.3041L 5.64521 13.3041L 5.67601 13.3041L 5.70681 13.3041L 5.73761 13.3041L 5.76841 13.3041L 5.79921 13.3041L 5.83001 13.3041L 5.86081 13.3041L 5.89161 13.3041L 5.92241 13.3041L 5.9532 13.3041L 5.984 13.3041L 6.0148 13.3041L 6.0456 13.3041L 6.0764 13.3041L 6.1072 13.3041L 6.138 13.3041L 6.1688 13.3041L 6.1996 13.3041L 6.2304 13.3041L 6.2612 13.3041L 6.292 13.3041L 6.32279 13.3041L 6.35359 13.3041L 6.38439 13.3041L 6.41519 13.3041L 6.44599 13.3041L 6.47679 13.3041L 6.50759 13.3041L 6.53839 13.3041L 6.56919 13.3041L 6.59999 13.3041L 6.63079 13.3041L 6.66159 13.3041L 6.69239 13.3041L 6.72318 13.3041L 6.75398 13.3041L 6.78478 13.3041L 6.81558 13.3041L 6.84638 13.3041L 6.87718 13.3041L 6.90798 13.3041L 6.93878 13.3041L 6.96958 13.3041L 7.00038 13.3041L 7.03118 13.3041L 7.06198 13.3041L 7.09277 13.3041L 7.12357 13.3041L 7.15437 13.3041L 7.18517 13.3041L 7.21597 13.3041L 7.24677 13.3041L 7.27757 13.3041L 7.30837 13.3041L 7.33917 13.3041L 7.36997 13.3041L 7.40077 13.3041L 7.43157 13.3041L 7.46237 13.3041L 7.49316 13.3041L 7.52396 13.3041L 7.55476 13.3041L 7.58556 13.3041L 7.61636 13.3041L 7.64716 13.3041L 7.67796 13.3041L 7.70876 13.3041L 7.73956 13.3041L 7.77036 13.3041L 7.80116 13.3041L 7.83196 13.3041L 7.86275 13.3041L 7.89355 13.3041L 7.92435 13.3041L 7.95515 13.3041L 7.98595 13.3041L 8.01675 13.3041L 8.04755 13.3041L 8.07835 13.3041L 8.10915 13.3041L 8.13995 13.3041L 8.17075 13.3041L 8.20155 13.3041L 8.23234 13.3041L 8.26314 13.3041L 8.29394 13.3041L 8.32474 13.3041L 8.35554 13.3041L 8.38634 13.3041L 8.41714 13.3041L 8.44794 13.3041L 8.47874 13.3041L 8.50954 13.3041L 8.54034 13.3041L 8.57114 13.3041L 8.60194 13.3041L 8.63273 13.3041L 8.66353 13.3041L 8.69433 13.3041L 8.72513 13.3041L 8.75593 13.3041L 8.78673 13.3041L 8.81753 13.3041L 8.84833 13.3041L 8.87913 13.3041L 8.90993 13.3041L 8.94073 13.3041L 8.97153 13.3041L 9.00233 13.3041L 9.03312 13.3041L 9.06392 13.3041L 9.09472 13.3041L 9.12552 13.3041L 9.15632 13.3041L 9.18712 13.3041L 9.21792 13.3041L 9.24872 13.3041L 9.27952 13.3041L 9.31032 13.3041L 9.34112 13.3041L 9.37191 13.3041L 9.40271 13.3041L 9.43351 13.3041L 9.46431 13.3041L 9.49511 13.3041L 9.52591 13.3041L 9.55671 13.3041L 9.58751 13.3041L 9.61831 13.3041L 9.64911 13.3041L 9.67991 13.3041L 9.71071 13.3041L 9.74151 13.3041L 9.7723 13.3041L 9.8031 13.3041L 9.8339 13.3041L 9.8647 13.3041L 9.8955 13.3041L 9.9263 13.3041L 9.9571 13.3041L 9.9879 13.3041L 10.0187 13.3041L 10.0495 13.3041L 10.0803 13.3041L 10.1111 13.3041L 10.1419 13.3041L 10.1727 13.3041L 10.2035 13.3041L 10.2343 13.3041L 10.2651 13.3041L 10.2959 13.3041L 10.3267 13.3041L 10.3575 13.3041L 10.3883 13.3041L 10.4191 13.3041L 10.4499 13.3041L 10.4807 13.3041L 10.5115 13.3041L 10.5423 13.3041L 10.5731 13.3041L 10.6039 13.3041L 10.6347 13.3041L 10.6655 13.3041L 10.6963 13.3041L 10.7271 13.3041L 10.7579 13.3041L 10.7887 13.3041L 10.8195 13.3041L 10.8503 13.3041L 10.8811 13.3041L 10.9119 13.3041L 10.9427 13.3041L 10.9735 13.3041L 11.0043 13.3041L 11.0351 13.3041L 11.0659 13.3041L 11.0967 13.3041L 11.1275 13.3041L 11.1583 13.3041L 11.1891 13.3041L 11.2199 13.3041L 11.2507 13.3041L 11.2815 13.3041L 11.3123 13.3041L 11.3431 13.3041L 11.3739 13.3041L 11.4047 13.3041L 11.4355 13.3041L 11.4663 13.3041L 11.4971 13.3041L 11.5279 13.3041L 11.5587 13.3041L 11.5895 13.3041L 11.6203 13.3041L 11.6511 13.3041L 11.6819 13.3041L 11.7127 13.3041L 11.7435 13.3041L 11.7743 13.3041L 11.8051 13.3041L 11.8359 13.3041L 11.8666 13.3041L 11.8974 13.3041L 11.9282 13.3041L 11.959 13.3041L 11.9898 13.3041L 12.0206 13.3041L 12.0514 13.3041L 12.0822 13.3041L 12.113 13.3041L 12.1438 13.3041L 12.1746 13.3041L 12.2054 13.3041L 12.2362 13.3041L 12.267 13.3041L 12.2978 13.3041L 12.3286 13.3041L 12.3594 13.3041L 12.3902 13.3041L 12.421 13.3041L 12.4518 13.3041L 12.4826 13.3041L 12.5134 13.3041L 12.5442 13.3041L 12.575 13.3041L 12.6058 13.3041L 12.6366 13.3041L 12.6674 13.3041L 12.6982 13.3041L 12.729 13.3041L 12.7598 13.3041L 12.7906 13.3041L 12.8214 13.3041L 12.8522 13.3041L 12.883 13.3041L 12.9138 13.3041L 12.9446 13.3041L 12.9754 13.3041L 13.0062 13.3041L 13.037 13.3041L 13.0678 13.3041L 13.0986 13.3041L 13.1294 13.3041L 13.1602 13.3041L 13.191 13.3041L 13.2218 13.3041L 13.2526 13.3041L 13.2834 13.3041L 13.3142 13.3041L 13.345 13.3041L 13.3758 13.3041L 13.4066 13.3041L 13.4374 13.3041L 13.4682 13.3041L 13.499 13.3041L 13.5298 13.3041L 13.5606 13.3041L 13.5914 13.3041L 13.6222 13.3041L 13.653 13.3041L 13.6838 13.3041L 13.7146 13.3041L 13.7454 13.3041L 13.7762 13.3041L 13.807 13.3041L 13.8378 13.3041L 13.8686 13.3041L 13.8994 13.3041L 13.9302 13.3041L 13.961 13.3041L 13.9918 13.3041L 14.0226 13.3041L 14.0534 13.3041L 14.0842 13.3041L 14.115 13.3041L 14.1458 13.3041L 14.1766 13.3041L 14.2074 13.3041L 14.2382 13.3041L 14.269 13.3041L 14.2998 13.3041L 14.3306 13.3041L 14.3614 13.3041L 14.3922 13.3041L 14.423 13.3041L 14.4538 13.3041L 14.4846 13.3041L 14.5154 13.3041L 14.5462 13.3041L 14.577 13.3041L 14.6078 13.3041L 14.6386 13.3041L 14.6694 13.3041L 14.7002 13.3041L 14.731 13.3041L 14.7618 13.3041L 14.7926 13.3041L 14.8234 13.3041L 14.8542 13.3041L 14.885 13.3041L 14.9158 13.3041L 14.9466 13.3041L 14.9774 13.3041L 15.0082 13.3041L 15.039 13.3041L 15.0698 13.3041L 15.1006 13.3041L 15.1314 13.3041L 15.1622 13.3041L 15.193 13.3041L 15.2238 13.3041L 15.2546 13.3041L 15.2854 13.3041L 15.3162 13.3041L 15.347 13.3041L 15.3778 13.3041L 15.4086 13.3041L 15.4394 13.3041L 15.4702 13.3041L 15.501 13.3041L 15.5318 13.3041L 15.5626 13.3041L 15.5934 13.3041L 15.6242 13.3041L 15.655 13.3041L 15.6858 13.3041L 15.7165 13.3041L 15.7473 13.3041L 15.7781 13.3041L 15.8089 13.3041L 15.8397 13.3041L 15.8705 13.3041L 15.9013 13.3041L 15.9321 13.3041L 15.9629 13.3041L 15.9937 13.3041L 16.0245 13.3041L 16.0553 13.3041L 16.0861 13.3041L 16.1169 13.3041L 16.1477 13.3041L 16.1785 13.3041L 16.2093 13.3041L 16.2401 13.3041L 16.2709 13.3041L 16.3017 13.3041L 16.3325 13.3041L 16.3633 13.3041L 16.3941 13.3041L 16.4249 13.3041L 16.4557 13.3041L 16.4865 13.3041L 16.5173 13.3041L 16.5481 13.3041L 16.5789 13.3041L 16.6097 13.3041L 16.6405 13.3041L 16.6713 13.3041L 16.7021 13.3041L 16.7329 13.3041L 16.7637 13.3041L 16.7945 13.3041L 16.8253 13.3041L 16.8561 13.3041L 16.8869 13.3041L 16.9177 13.3041L 16.9485 13.3041L 16.9793 13.3041L 17.0101 13.3041L 17.0409 13.3041L 17.0717 13.3041L 17.1025 13.3041L 17.1333 13.3041L 17.1641 13.3041L 17.1949 13.3041L 17.2257 13.3041L 17.2565 13.3041L 17.2873 13.3041L 17.3181 13.3041L 17.3489 13.3041L 17.3797 13.3041L 17.4105 13.3041L 17.4413 13.3041L 17.4721 13.3041L 17.5029 13.3041L 17.5337 13.3041L 17.5645 13.3041L 17.5953 13.3041L 17.6261 13.3041L 17.6569 13.3041L 17.6877 13.3041L 17.7185 13.3041L 17.7493 13.3041L 17.7801 13.3041L 17.8109 13.3041L 17.8417 13.3041L 17.8725 13.3041L 17.9033 13.3041L 17.9341 13.3041L 17.9649 13.3041L 17.9957 13.3041L 18.0265 13.3041L 18.0573 13.3041L 18.0881 13.3041L 18.1189 13.3041L 18.1497 13.3041L 18.1805 13.3041L 18.2113 13.3041L 18.2421 13.3041L 18.2729 13.3041L 18.3037 13.3041L 18.3345 13.3041L 18.3653 13.3041L 18.3961 13.3041L 18.4269 13.3041L 18.4577 13.3041L 18.4885 13.3041L 18.5193 13.3041L 18.5501 13.3041L 18.5809 13.3041C 19.3153 13.3041 19.746 13.1299 19.9919 12.9111C 20.2259 12.7029 20.4009 12.3574 20.4182 11.7636C 20.459 9.2712 20.459 4.73976 20.4182 2.24737C 20.4051 1.80994 20.1687 1.48099 19.7747 1.22579C 19.3627 0.958957 18.858 0.833409 18.5479 0.819784ZM 18.0578 3.56494L 18.0578 3.56494L 17.9883 10.0662C 17.9858 11.089 17.1538 11.9106 16.1295 11.9106L 16.1203 11.9106L 16.1203 11.9105L 4.65435 11.7695C 3.65375 11.7665 2.84193 10.9253 2.84193 9.92051L 2.84193 9.91245L 2.84198 9.91245L 2.91148 3.44899C 2.91394 2.68799 3.50684 2.0216 4.31852 2.0216L 4.32711 2.0216L 4.3271 2.02165L 16.6559 2.1627C 17.4394 2.16545 18.0578 2.80542 18.0578 3.55692L 18.0578 3.56494Z" transform="translate(0.88327 50.9459)" fill="#B0E519"/>
<path fill-rule="evenodd" clip-rule="evenodd" d="M 18.5479 0.819784L 18.5466 0.819727C 16.4978 0.726127 13.3172 0.744622 10.3544 0.773102C 9.96292 0.776865 9.57474 0.780815 9.19329 0.784697C 6.72521 0.809813 4.53953 0.832055 3.56428 0.782181C 2.05215 0.749736 1.50052 1.17036 1.26098 1.50583C 0.975247 1.90601 0.937012 2.41862 0.892796 3.01143C 0.892556 3.01465 0.892316 3.01787 0.892076 3.02109C 0.889926 3.12526 0.878262 3.23667 0.870333 3.3124C 0.869483 3.32052 0.868676 3.32824 0.867928 3.33548C 0.857119 3.44021 0.851357 3.50681 0.851357 3.55692L 0.851357 3.58643L 0.849039 3.61584C 0.687873 5.66082 0.729709 10.159 0.928554 11.8839L 0.929978 11.8962L 0.929875 11.8963C 0.976925 12.3739 1.58208 13.3041 2.81169 13.3041L 2.84249 13.3041L 2.87329 13.3041L 2.90408 13.3041L 2.93488 13.3041L 2.96568 13.3041L 2.99648 13.3041L 3.02728 13.3041L 3.05808 13.3041L 3.08888 13.3041L 3.11968 13.3041L 3.15048 13.3041L 3.18128 13.3041L 3.21208 13.3041L 3.24288 13.3041L 3.27367 13.3041L 3.30447 13.3041L 3.33527 13.3041L 3.36607 13.3041L 3.39687 13.3041L 3.42767 13.3041L 3.45847 13.3041L 3.48927 13.3041L 3.52007 13.3041L 3.55087 13.3041L 3.58167 13.3041L 3.61247 13.3041L 3.64327 13.3041L 3.67406 13.3041L 3.70486 13.3041L 3.73566 13.3041L 3.76646 13.3041L 3.79726 13.3041L 3.82806 13.3041L 3.85886 13.3041L 3.88966 13.3041L 3.92046 13.3041L 3.95126 13.3041L 3.98206 13.3041L 4.01286 13.3041L 4.04365 13.3041L 4.07445 13.3041L 4.10525 13.3041L 4.13605 13.3041L 4.16685 13.3041L 4.19765 13.3041L 4.22845 13.3041L 4.25925 13.3041L 4.29005 13.3041L 4.32085 13.3041L 4.35165 13.3041L 4.38245 13.3041L 4.41324 13.3041L 4.44404 13.3041L 4.47484 13.3041L 4.50564 13.3041L 4.53644 13.3041L 4.56724 13.3041L 4.59804 13.3041L 4.62884 13.3041L 4.65964 13.3041L 4.69044 13.3041L 4.72124 13.3041L 4.75204 13.3041L 4.78284 13.3041L 4.81363 13.3041L 4.84443 13.3041L 4.87523 13.3041L 4.90603 13.3041L 4.93683 13.3041L 4.96763 13.3041L 4.99843 13.3041L 5.02923 13.3041L 5.06003 13.3041L 5.09083 13.3041L 5.12163 13.3041L 5.15243 13.3041L 5.18322 13.3041L 5.21402 13.3041L 5.24482 13.3041L 5.27562 13.3041L 5.30642 13.3041L 5.33722 13.3041L 5.36802 13.3041L 5.39882 13.3041L 5.42962 13.3041L 5.46042 13.3041L 5.49122 13.3041L 5.52202 13.3041L 5.55281 13.3041L 5.58361 13.3041L 5.61441 13.3041L 5.64521 13.3041L 5.67601 13.3041L 5.70681 13.3041L 5.73761 13.3041L 5.76841 13.3041L 5.79921 13.3041L 5.83001 13.3041L 5.86081 13.3041L 5.89161 13.3041L 5.92241 13.3041L 5.9532 13.3041L 5.984 13.3041L 6.0148 13.3041L 6.0456 13.3041L 6.0764 13.3041L 6.1072 13.3041L 6.138 13.3041L 6.1688 13.3041L 6.1996 13.3041L 6.2304 13.3041L 6.2612 13.3041L 6.292 13.3041L 6.32279 13.3041L 6.35359 13.3041L 6.38439 13.3041L 6.41519 13.3041L 6.44599 13.3041L 6.47679 13.3041L 6.50759 13.3041L 6.53839 13.3041L 6.56919 13.3041L 6.59999 13.3041L 6.63079 13.3041L 6.66159 13.3041L 6.69239 13.3041L 6.72318 13.3041L 6.75398 13.3041L 6.78478 13.3041L 6.81558 13.3041L 6.84638 13.3041L 6.87718 13.3041L 6.90798 13.3041L 6.93878 13.3041L 6.96958 13.3041L 7.00038 13.3041L 7.03118 13.3041L 7.06198 13.3041L 7.09277 13.3041L 7.12357 13.3041L 7.15437 13.3041L 7.18517 13.3041L 7.21597 13.3041L 7.24677 13.3041L 7.27757 13.3041L 7.30837 13.3041L 7.33917 13.3041L 7.36997 13.3041L 7.40077 13.3041L 7.43157 13.3041L 7.46237 13.3041L 7.49316 13.3041L 7.52396 13.3041L 7.55476 13.3041L 7.58556 13.3041L 7.61636 13.3041L 7.64716 13.3041L 7.67796 13.3041L 7.70876 13.3041L 7.73956 13.3041L 7.77036 13.3041L 7.80116 13.3041L 7.83196 13.3041L 7.86275 13.3041L 7.89355 13.3041L 7.92435 13.3041L 7.95515 13.3041L 7.98595 13.3041L 8.01675 13.3041L 8.04755 13.3041L 8.07835 13.3041L 8.10915 13.3041L 8.13995 13.3041L 8.17075 13.3041L 8.20155 13.3041L 8.23234 13.3041L 8.26314 13.3041L 8.29394 13.3041L 8.32474 13.3041L 8.35554 13.3041L 8.38634 13.3041L 8.41714 13.3041L 8.44794 13.3041L 8.47874 13.3041L 8.50954 13.3041L 8.54034 13.3041L 8.57114 13.3041L 8.60194 13.3041L 8.63273 13.3041L 8.66353 13.3041L 8.69433 13.3041L 8.72513 13.3041L 8.75593 13.3041L 8.78673 13.3041L 8.81753 13.3041L 8.84833 13.3041L 8.87913 13.3041L 8.90993 13.3041L 8.94073 13.3041L 8.97153 13.3041L 9.00233 13.3041L 9.03312 13.3041L 9.06392 13.3041L 9.09472 13.3041L 9.12552 13.3041L 9.15632 13.3041L 9.18712 13.3041L 9.21792 13.3041L 9.24872 13.3041L 9.27952 13.3041L 9.31032 13.3041L 9.34112 13.3041L 9.37191 13.3041L 9.40271 13.3041L 9.43351 13.3041L 9.46431 13.3041L 9.49511 13.3041L 9.52591 13.3041L 9.55671 13.3041L 9.58751 13.3041L 9.61831 13.3041L 9.64911 13.3041L 9.67991 13.3041L 9.71071 13.3041L 9.74151 13.3041L 9.7723 13.3041L 9.8031 13.3041L 9.8339 13.3041L 9.8647 13.3041L 9.8955 13.3041L 9.9263 13.3041L 9.9571 13.3041L 9.9879 13.3041L 10.0187 13.3041L 10.0495 13.3041L 10.0803 13.3041L 10.1111 13.3041L 10.1419 13.3041L 10.1727 13.3041L 10.2035 13.3041L 10.2343 13.3041L 10.2651 13.3041L 10.2959 13.3041L 10.3267 13.3041L 10.3575 13.3041L 10.3883 13.3041L 10.4191 13.3041L 10.4499 13.3041L 10.4807 13.3041L 10.5115 13.3041L 10.5423 13.3041L 10.5731 13.3041L 10.6039 13.3041L 10.6347 13.3041L 10.6655 13.3041L 10.6963 13.3041L 10.7271 13.3041L 10.7579 13.3041L 10.7887 13.3041L 10.8195 13.3041L 10.8503 13.3041L 10.8811 13.3041L 10.9119 13.3041L 10.9427 13.3041L 10.9735 13.3041L 11.0043 13.3041L 11.0351 13.3041L 11.0659 13.3041L 11.0967 13.3041L 11.1275 13.3041L 11.1583 13.3041L 11.1891 13.3041L 11.2199 13.3041L 11.2507 13.3041L 11.2815 13.3041L 11.3123 13.3041L 11.3431 13.3041L 11.3739 13.3041L 11.4047 13.3041L 11.4355 13.3041L 11.4663 13.3041L 11.4971 13.3041L 11.5279 13.3041L 11.5587 13.3041L 11.5895 13.3041L 11.6203 13.3041L 11.6511 13.3041L 11.6819 13.3041L 11.7127 13.3041L 11.7435 13.3041L 11.7743 13.3041L 11.8051 13.3041L 11.8359 13.3041L 11.8666 13.3041L 11.8974 13.3041L 11.9282 13.3041L 11.959 13.3041L 11.9898 13.3041L 12.0206 13.3041L 12.0514 13.3041L 12.0822 13.3041L 12.113 13.3041L 12.1438 13.3041L 12.1746 13.3041L 12.2054 13.3041L 12.2362 13.3041L 12.267 13.3041L 12.2978 13.3041L 12.3286 13.3041L 12.3594 13.3041L 12.3902 13.3041L 12.421 13.3041L 12.4518 13.3041L 12.4826 13.3041L 12.5134 13.3041L 12.5442 13.3041L 12.575 13.3041L 12.6058 13.3041L 12.6366 13.3041L 12.6674 13.3041L 12.6982 13.3041L 12.729 13.3041L 12.7598 13.3041L 12.7906 13.3041L 12.8214 13.3041L 12.8522 13.3041L 12.883 13.3041L 12.9138 13.3041L 12.9446 13.3041L 12.9754 13.3041L 13.0062 13.3041L 13.037 13.3041L 13.0678 13.3041L 13.0986 13.3041L 13.1294 13.3041L 13.1602 13.3041L 13.191 13.3041L 13.2218 13.3041L 13.2526 13.3041L 13.2834 13.3041L 13.3142 13.3041L 13.345 13.3041L 13.3758 13.3041L 13.4066 13.3041L 13.4374 13.3041L 13.4682 13.3041L 13.499 13.3041L 13.5298 13.3041L 13.5606 13.3041L 13.5914 13.3041L 13.6222 13.3041L 13.653 13.3041L 13.6838 13.3041L 13.7146 13.3041L 13.7454 13.3041L 13.7762 13.3041L 13.807 13.3041L 13.8378 13.3041L 13.8686 13.3041L 13.8994 13.3041L 13.9302 13.3041L 13.961 13.3041L 13.9918 13.3041L 14.0226 13.3041L 14.0534 13.3041L 14.0842 13.3041L 14.115 13.3041L 14.1458 13.3041L 14.1766 13.3041L 14.2074 13.3041L 14.2382 13.3041L 14.269 13.3041L 14.2998 13.3041L 14.3306 13.3041L 14.3614 13.3041L 14.3922 13.3041L 14.423 13.3041L 14.4538 13.3041L 14.4846 13.3041L 14.5154 13.3041L 14.5462 13.3041L 14.577 13.3041L 14.6078 13.3041L 14.6386 13.3041L 14.6694 13.3041L 14.7002 13.3041L 14.731 13.3041L 14.7618 13.3041L 14.7926 13.3041L 14.8234 13.3041L 14.8542 13.3041L 14.885 13.3041L 14.9158 13.3041L 14.9466 13.3041L 14.9774 13.3041L 15.0082 13.3041L 15.039 13.3041L 15.0698 13.3041L 15.1006 13.3041L 15.1314 13.3041L 15.1622 13.3041L 15.193 13.3041L 15.2238 13.3041L 15.2546 13.3041L 15.2854 13.3041L 15.3162 13.3041L 15.347 13.3041L 15.3778 13.3041L 15.4086 13.3041L 15.4394 13.3041L 15.4702 13.3041L 15.501 13.3041L 15.5318 13.3041L 15.5626 13.3041L 15.5934 13.3041L 15.6242 13.3041L 15.655 13.3041L 15.6858 13.3041L 15.7165 13.3041L 15.7473 13.3041L 15.7781 13.3041L 15.8089 13.3041L 15.8397 13.3041L 15.8705 13.3041L 15.9013 13.3041L 15.9321 13.3041L 15.9629 13.3041L 15.9937 13.3041L 16.0245 13.3041L 16.0553 13.3041L 16.0861 13.3041L 16.1169 13.3041L 16.1477 13.3041L 16.1785 13.3041L 16.2093 13.3041L 16.2401 13.3041L 16.2709 13.3041L 16.3017 13.3041L 16.3325 13.3041L 16.3633 13.3041L 16.3941 13.3041L 16.4249 13.3041L 16.4557 13.3041L 16.4865 13.3041L 16.5173 13.3041L 16.5481 13.3041L 16.5789 13.3041L 16.6097 13.3041L 16.6405 13.3041L 16.6713 13.3041L 16.7021 13.3041L 16.7329 13.3041L 16.7637 13.3041L 16.7945 13.3041L 16.8253 13.3041L 16.8561 13.3041L 16.8869 13.3041L 16.9177 13.3041L 16.9485 13.3041L 16.9793 13.3041L 17.0101 13.3041L 17.0409 13.3041L 17.0717 13.3041L 17.1025 13.3041L 17.1333 13.3041L 17.1641 13.3041L 17.1949 13.3041L 17.2257 13.3041L 17.2565 13.3041L 17.2873 13.3041L 17.3181 13.3041L 17.3489 13.3041L 17.3797 13.3041L 17.4105 13.3041L 17.4413 13.3041L 17.4721 13.3041L 17.5029 13.3041L 17.5337 13.3041L 17.5645 13.3041L 17.5953 13.3041L 17.6261 13.3041L 17.6569 13.3041L 17.6877 13.3041L 17.7185 13.3041L 17.7493 13.3041L 17.7801 13.3041L 17.8109 13.3041L 17.8417 13.3041L 17.8725 13.3041L 17.9033 13.3041L 17.9341 13.3041L 17.9649 13.3041L 17.9957 13.3041L 18.0265 13.3041L 18.0573 13.3041L 18.0881 13.3041L 18.1189 13.3041L 18.1497 13.3041L 18.1805 13.3041L 18.2113 13.3041L 18.2421 13.3041L 18.2729 13.3041L 18.3037 13.3041L 18.3345 13.3041L 18.3653 13.3041L 18.3961 13.3041L 18.4269 13.3041L 18.4577 13.3041L 18.4885 13.3041L 18.5193 13.3041L 18.5501 13.3041L 18.5809 13.3041C 19.3153 13.3041 19.746 13.1299 19.9919 12.9111C 20.2259 12.7029 20.4009 12.3574 20.4182 11.7636C 20.459 9.2712 20.459 4.73976 20.4182 2.24737C 20.4051 1.80994 20.1687 1.48099 19.7747 1.22579C 19.3627 0.958957 18.858 0.833409 18.5479 0.819784ZM 18.0578 3.56494L 18.0578 3.56494L 17.9883 10.0662C 17.9858 11.089 17.1538 11.9106 16.1295 11.9106L 16.1203 11.9106L 16.1203 11.9105L 4.65435 11.7695C 3.65375 11.7665 2.84193 10.9253 2.84193 9.92051L 2.84193 9.91245L 2.84198 9.91245L 2.91148 3.44899C 2.91394 2.68799 3.50684 2.0216 4.31852 2.0216L 4.32711 2.0216L 4.3271 2.02165L 16.6559 2.1627C 17.4394 2.16545 18.0578 2.80542 18.0578 3.55692L 18.0578 3.56494Z" stroke-width="1.5" stroke-miterlimit="8" transform="translate(0.88327 50.9459)" stroke="#B0E519"/>
</g>
<g id="XMLID 25">
<path fill-rule="evenodd" clip-rule="evenodd" d="M 2.77011 41.6865L 2.77579 41.6865C 7.49288 41.7223 12.249 41.7223 17.0052 41.6865L 17.0108 41.6865C 18.131 41.6865 18.5979 41.522 18.8186 41.3219C 19.015 41.1437 19.1868 40.7748 19.187 39.7898C 19.148 27.4085 19.148 14.9559 19.148 2.50468C 19.148 1.50794 19.0091 1.21316 18.8785 1.08889C 18.7295 0.946992 18.3675 0.804243 17.2749 0.785735C 15.1875 0.770564 13.0784 0.77488 10.9642 0.779206C 8.136 0.784994 5.29864 0.790801 2.4917 0.750002C 1.64761 0.750713 1.27111 0.92115 1.08717 1.10234C 0.906803 1.28 0.750613 1.6271 0.750001 2.39281C 0.808552 7.09497 0.801201 11.7989 0.793882 16.4815C 0.791448 18.0392 0.789017 19.5945 0.789017 21.1467L 0.789017 21.1834L 0.789017 21.2201L 0.789017 21.2567L 0.789017 21.2934L 0.789017 21.3301L 0.789017 21.3668L 0.789017 21.4035L 0.789017 21.4402L 0.789017 21.4769L 0.789017 21.5136L 0.789017 21.5503L 0.789017 21.587L 0.789017 21.6236L 0.789017 21.6603L 0.789017 21.697L 0.789017 21.7337L 0.789017 21.7704L 0.789017 21.8071L 0.789017 21.8438L 0.789017 21.8805L 0.789017 21.9172L 0.789017 21.9538L 0.789017 21.9905L 0.789017 22.0272L 0.789017 22.0639L 0.789017 22.1006L 0.789017 22.1373L 0.789017 22.174L 0.789017 22.2107L 0.789017 22.2474L 0.789017 22.284L 0.789017 22.3207L 0.789017 22.3574L 0.789017 22.3941L 0.789017 22.4308L 0.789017 22.4675L 0.789017 22.5042L 0.789017 22.5409L 0.789017 22.5776L 0.789017 22.6142L 0.789017 22.6509L 0.789017 22.6876L 0.789017 22.7243L 0.789017 22.761L 0.789017 22.7977L 0.789017 22.8344L 0.789017 22.8711L 0.789017 22.9078L 0.789017 22.9444L 0.789017 22.9811L 0.789017 23.0178L 0.789017 23.0545L 0.789017 23.0912L 0.789017 23.1279L 0.789017 23.1646L 0.789017 23.2013L 0.789017 23.2379L 0.789017 23.2746L 0.789017 23.3113L 0.789017 23.348L 0.789017 23.3847L 0.789017 23.4214L 0.789017 23.4581L 0.789017 23.4947L 0.789017 23.5314L 0.789017 23.5681L 0.789017 23.6048L 0.789017 23.6415L 0.789017 23.6782L 0.789017 23.7149L 0.789017 23.7515L 0.789017 23.7882L 0.789017 23.8249L 0.789017 23.8616L 0.789017 23.8983L 0.789017 23.935L 0.789017 23.9717L 0.789017 24.0083L 0.789017 24.045L 0.789017 24.0817L 0.789017 24.1184L 0.789017 24.1551L 0.789017 24.1918L 0.789017 24.2285L 0.789017 24.2651L 0.789017 24.3018L 0.789017 24.3385L 0.789017 24.3752L 0.789017 24.4119L 0.789017 24.4486L 0.789017 24.4852L 0.789017 24.5219L 0.789017 24.5586L 0.789017 24.5953L 0.789017 24.632L 0.789017 24.6687L 0.789017 24.7053L 0.789017 24.742L 0.789017 24.7787L 0.789017 24.8154L 0.789017 24.8521L 0.789017 24.8887L 0.789017 24.9254L 0.789017 24.9621L 0.789017 24.9988L 0.789017 25.0355L 0.789017 25.0721L 0.789017 25.1088L 0.789017 25.1455L 0.789017 25.1822L 0.789017 25.2189L 0.789017 25.2555L 0.789017 25.2922L 0.789017 25.3289L 0.789017 25.3656L 0.789017 25.4023L 0.789017 25.4389L 0.789017 25.4756L 0.789017 25.5123L 0.789017 25.549L 0.789017 25.5857L 0.789017 25.6223L 0.789017 25.659L 0.789017 25.6957L 0.789017 25.7324L 0.789017 25.769L 0.789017 25.8057L 0.789017 25.8424L 0.789017 25.8791L 0.789017 25.9158L 0.789017 25.9524L 0.789017 25.9891L 0.789017 26.0258L 0.789017 26.0625L 0.789017 26.0991L 0.789017 26.1358L 0.789017 26.1725L 0.789017 26.2092L 0.789017 26.2458L 0.789017 26.2825L 0.789017 26.3192L 0.789017 26.3559L 0.789017 26.3925L 0.789017 26.4292L 0.789017 26.4659L 0.789017 26.5025L 0.789017 26.5392L 0.789017 26.5759L 0.789017 26.6126L 0.789017 26.6492L 0.789017 26.6859L 0.789017 26.7226L 0.789017 26.7592L 0.789017 26.7959L 0.789017 26.8326L 0.789017 26.8693L 0.789017 26.9059L 0.789017 26.9426L 0.789017 26.9793L 0.789017 27.0159L 0.789017 27.0526L 0.789017 27.0893L 0.789017 27.1259L 0.789017 27.1626L 0.789017 27.1993L 0.789017 27.2359L 0.789017 27.2726L 0.789017 27.3093L 0.789017 27.3459L 0.789017 27.3826L 0.789017 27.4193L 0.789017 27.4559L 0.789017 27.4926L 0.789017 27.5293L 0.789017 27.5659L 0.789017 27.6026L 0.789017 27.6393L 0.789017 27.6759L 0.789017 27.7126L 0.789017 27.7493L 0.789017 27.7859L 0.789017 27.8226L 0.789017 27.8593L 0.789017 27.8959L 0.789017 27.9326L 0.789017 27.9692L 0.789017 28.0059L 0.789017 28.0426L 0.789017 28.0792L 0.789017 28.1159L 0.789017 28.1525L 0.789017 28.1892L 0.789017 28.2259L 0.789017 28.2625L 0.789017 28.2992L 0.789017 28.3358L 0.789017 28.3725L 0.789017 28.4092L 0.789017 28.4458L 0.789017 28.4825L 0.789017 28.5191L 0.789017 28.5558L 0.789017 28.5925L 0.789017 28.6291L 0.789017 28.6658L 0.789017 28.7024L 0.789017 28.7391L 0.789017 28.7757L 0.789017 28.8124L 0.789017 28.849L 0.789017 28.8857L 0.789017 28.9223L 0.789017 28.959L 0.789017 28.9957L 0.789017 29.0323L 0.789017 29.069L 0.789017 29.1056L 0.789017 29.1423L 0.789017 29.1789L 0.789017 29.2156L 0.789017 29.2522L 0.789017 29.2889L 0.789017 29.3255L 0.789017 29.3622L 0.789017 29.3988L 0.789017 29.4355L 0.789017 29.4721L 0.789017 29.5088L 0.789017 29.5454L 0.789017 29.5821L 0.789017 29.6187L 0.789017 29.6554L 0.789017 29.692L 0.789017 29.7286L 0.789017 29.7653L 0.789017 29.8019L 0.789017 29.8386L 0.789017 29.8752L 0.789017 29.9119L 0.789017 29.9485L 0.789017 29.9852L 0.789017 30.0218L 0.789017 30.0584L 0.789017 30.0951L 0.789017 30.1317L 0.789017 30.1684L 0.789017 30.205L 0.789017 30.2417L 0.789017 30.2783L 0.789017 30.3149L 0.789017 30.3516L 0.789017 30.3882L 0.789017 30.4249L 0.789017 30.4615L 0.789017 30.4981L 0.789017 30.5348L 0.789017 30.5714L 0.789017 30.608L 0.789017 30.6447L 0.789017 30.6813L 0.789017 30.7179L 0.789017 30.7546L 0.789017 30.7912L 0.789017 30.8278L 0.789017 30.8645L 0.789017 30.9011L 0.789017 30.9377L 0.789017 30.9744L 0.789017 31.011L 0.789017 31.0476L 0.789017 31.0843L 0.789017 31.1209L 0.789017 31.1575L 0.789017 31.1942L 0.789017 31.2308L 0.789017 31.2674L 0.789017 31.3041L 0.789017 31.3407L 0.789017 31.3773L 0.789017 31.4139L 0.789017 31.4506L 0.789017 31.4872L 0.789017 31.5238L 0.789017 31.5604L 0.789017 31.5971L 0.789017 31.6337L 0.789017 31.6703L 0.789017 31.7069L 0.789017 31.7436L 0.789017 31.7802L 0.789017 31.8168L 0.789017 31.8534L 0.789017 31.89L 0.789017 31.9267L 0.789017 31.9633L 0.789017 31.9999L 0.789017 32.0365L 0.789017 32.0732L 0.789017 32.1098L 0.789017 32.1464L 0.789017 32.183L 0.789017 32.2196L 0.789017 32.2562L 0.789017 32.2929L 0.789017 32.3295L 0.789017 32.3661L 0.789017 32.4027L 0.789017 32.4393L 0.789017 32.4759L 0.789017 32.5125L 0.789017 32.5492L 0.789017 32.5858L 0.789017 32.6224L 0.789017 32.659L 0.789017 32.6956L 0.789017 32.7322L 0.789017 32.7688L 0.789017 32.8054L 0.789017 32.842L 0.789017 32.8786L 0.789017 32.9152L 0.789017 32.9519L 0.789017 32.9885L 0.789017 33.0251L 0.789017 33.0617L 0.789017 33.0983L 0.789017 33.1349L 0.789017 33.1715L 0.789017 33.2081L 0.789017 33.2447L 0.789017 33.2813L 0.789017 33.3179L 0.789017 33.3545L 0.789017 33.3911L 0.789017 33.4277L 0.789017 33.4643L 0.789017 33.5009L 0.789017 33.5375L 0.789017 33.5741L 0.789017 33.6107L 0.789017 33.6473L 0.789017 33.6839L 0.789017 33.7205L 0.789017 33.7571L 0.789017 33.7937L 0.789017 33.8303L 0.789017 33.8669L 0.789017 33.9035L 0.789017 33.94L 0.789017 33.9766L 0.789017 34.0132L 0.789017 34.0498L 0.789017 34.0864L 0.789017 34.123L 0.789017 34.1596L 0.789017 34.1962L 0.789017 34.2328L 0.789017 34.2694L 0.789017 34.3059L 0.789017 34.3425L 0.789017 34.3791L 0.789017 34.4157L 0.789017 34.4523L 0.789017 34.4889L 0.789017 34.5254L 0.789017 34.562L 0.789017 34.5986L 0.789017 34.6352L 0.789017 34.6718L 0.789017 34.7084L 0.789017 34.7449L 0.789017 34.7815L 0.789017 34.8181L 0.789017 34.8547L 0.789017 34.8913L 0.789017 34.9278L 0.789017 34.9644L 0.789017 35.001L 0.789017 35.0376L 0.789017 35.0741L 0.789017 35.1107L 0.789017 35.1473L 0.789017 35.1838L 0.789017 35.2204L 0.789017 35.257L 0.789017 35.2936L 0.789017 35.3301L 0.789017 35.3667L 0.789017 35.4033L 0.789017 35.4398L 0.789017 35.4764L 0.789017 35.513L 0.789017 35.5495L 0.789017 35.5861L 0.789017 35.6227L 0.789017 35.6592L 0.789017 35.6958L 0.789017 35.7324L 0.789017 35.7689L 0.789017 35.8055L 0.789017 35.8421L 0.789017 35.8786L 0.789017 35.9152L 0.789017 35.9517L 0.789017 35.9883L 0.789017 36.0248L 0.789017 36.0614L 0.789017 36.098L 0.789017 36.1345L 0.789017 36.1711L 0.789017 36.2076L 0.789017 36.2442L 0.789017 36.2807L 0.789017 36.3173L 0.789017 36.3538L 0.789017 36.3904L 0.789017 36.4269L 0.789017 36.4635L 0.789017 36.5L 0.789017 36.5366L 0.789017 36.5731L 0.789017 36.6097L 0.789017 36.6462L 0.789017 36.6828L 0.789017 36.7193L 0.789017 36.7559L 0.789017 36.7924L 0.789017 36.829L 0.789017 36.8655L 0.789017 36.902L 0.789017 36.9386L 0.789017 36.9751L 0.789017 37.0117L 0.789017 37.0482L 0.789017 37.0847L 0.789017 37.1213L 0.789017 37.1578L 0.789017 37.1944L 0.789017 37.2309L 0.789017 37.2674L 0.789017 37.304L 0.789017 37.3405L 0.789017 37.377L 0.789017 37.4136L 0.789017 37.4501L 0.789017 37.4866L 0.789017 37.5232L 0.789017 37.5597L 0.789017 37.5962L 0.789017 37.6327L 0.789017 37.6693L 0.789017 37.7058L 0.789017 37.7423L 0.789017 37.7788L 0.789017 37.8154L 0.789017 37.8519L 0.789017 37.8884L 0.789017 37.9249L 0.789017 37.9615L 0.789017 37.998L 0.789017 38.0345L 0.789017 38.071L 0.789017 38.1075L 0.789017 38.1441L 0.789017 38.1806L 0.789017 38.2171L 0.789017 38.2536L 0.789017 38.2901L 0.789017 38.3266L 0.789017 38.3632L 0.789017 38.3997L 0.789017 38.4362L 0.789017 38.4727L 0.789017 38.5092L 0.789017 38.5457L 0.789017 38.5822L 0.789017 38.6187L 0.789017 38.6552L 0.789017 38.6917L 0.789017 38.7282L 0.789017 38.7647L 0.789017 38.8013L 0.789017 38.8378L 0.789017 38.8743L 0.789017 38.9108L 0.789017 38.9473L 0.789017 38.9838L 0.789017 39.0203L 0.789017 39.0568L 0.789017 39.0933L 0.789017 39.1298L 0.789017 39.1663L 0.789017 39.2027L 0.789017 39.2392L 0.789017 39.2757L 0.789017 39.3122L 0.789017 39.3487L 0.789017 39.3852L 0.789017 39.4217L 0.789017 39.4582L 0.789017 39.4947L 0.789017 39.5312L 0.789017 39.5677L 0.789017 39.6041L 0.789017 39.6406L 0.789017 39.6771L 0.789017 39.7136L 0.789017 39.7501L 0.789017 39.7866L 0.789017 39.8231L 0.789017 39.8595L 0.789017 39.896C 0.789017 40.9243 0.936509 41.2458 1.08405 41.3844C 1.24942 41.5397 1.64047 41.6865 2.77011 41.6865ZM 3.11254 5.40296L 3.11255 5.40296L 3.11255 5.40275L 3.11255 5.40254L 3.11255 5.40233L 3.11255 5.40212L 3.11255 5.40191L 3.11255 5.4017L 3.11255 5.40149L 3.11255 5.40128L 3.11255 5.40107L 3.11255 5.40086L 3.11255 5.40065L 3.11255 5.40044L 3.11255 5.40023L 3.11255 5.40002L 3.11255 5.39981L 3.11255 5.3996L 3.11255 5.39939L 3.11255 5.39918L 3.11255 5.39897L 3.11255 5.39876L 3.11255 5.39856L 3.11255 5.39835L 3.11255 5.39814L 3.11255 5.39793L 3.11255 5.39772L 3.11255 5.39751L 3.11255 5.3973L 3.11255 5.39709L 3.11255 5.39688L 3.11255 5.39667L 3.11255 5.39646L 3.11255 5.39625L 3.11255 5.39604L 3.11255 5.39583L 3.11255 5.39562L 3.11255 5.39541L 3.11255 5.3952L 3.11255 5.39499L 3.11255 5.39478L 3.11255 5.39457L 3.11255 5.39436L 3.11255 5.39415L 3.11255 5.39394L 3.11255 5.39373L 3.11255 5.39352L 3.11255 5.39331L 3.11255 5.3931L 3.11255 5.39289L 3.11255 5.39268L 3.11255 5.39248L 3.11255 5.39227L 3.11255 5.39206L 3.11255 5.39185L 3.11255 5.39164L 3.11255 5.39143L 3.11255 5.39122L 3.11255 5.39101L 3.11255 5.3908L 3.11255 5.39059L 3.11255 5.39038L 3.11255 5.39017L 3.11255 5.38996L 3.11255 5.38975L 3.11255 5.38954L 3.11255 5.38933L 3.11255 5.38912L 3.11255 5.38891L 3.11255 5.3887L 3.11255 5.38849L 3.11255 5.38828L 3.11255 5.38807L 3.11255 5.38786L 3.11255 5.38765L 3.11255 5.38744L 3.11255 5.38723L 3.11255 5.38702L 3.11255 5.38681L 3.11255 5.3866L 3.11255 5.38639L 3.11255 5.38619L 3.11255 5.38598L 3.11255 5.38577L 3.11255 5.38556L 3.11255 5.38535L 3.11255 5.38514L 3.11255 5.38493L 3.11255 5.38472L 3.11255 5.38451L 3.11255 5.3843L 3.11255 5.38409L 3.11255 5.38388L 3.11255 5.38367L 3.11255 5.38346L 3.11255 5.38325L 3.11255 5.38304L 3.11255 5.38283L 3.11255 5.38262L 3.11255 5.38241L 3.11255 5.3822L 3.11255 5.38199L 3.11255 5.38178L 3.11255 5.38157L 3.11255 5.38136L 3.11255 5.38115L 3.11255 5.38094L 3.11255 5.38073L 3.11255 5.38053L 3.11255 5.38032L 3.11255 5.38011L 3.11255 5.3799L 3.11255 5.37969L 3.11255 5.37948L 3.11255 5.37927L 3.11255 5.37906L 3.11255 5.37885L 3.11255 5.37864L 3.11255 5.37843L 3.11255 5.37822L 3.11255 5.37801L 3.11255 5.3778L 3.11255 5.37759L 3.11255 5.37738L 3.11255 5.37717L 3.11255 5.37696L 3.11255 5.37675L 3.11255 5.37654L 3.11255 5.37633L 3.11255 5.37612L 3.11255 5.37591L 3.11255 5.3757L 3.11255 5.37549L 3.11255 5.37528L 3.11255 5.37507L 3.11255 5.37486L 3.11255 5.37465L 3.11255 5.37444L 3.11255 5.37424L 3.11255 5.37403L 3.11255 5.37382L 3.11255 5.37361L 3.11255 5.3734L 3.11255 5.37319L 3.11255 5.37298L 3.11255 5.37277L 3.11255 5.37256L 3.11255 5.37235L 3.11255 5.37214L 3.11255 5.37193L 3.11255 5.37172L 3.11255 5.37151L 3.11255 5.3713L 3.11255 5.37109L 3.11255 5.37088L 3.11255 5.37067L 3.11255 5.37046L 3.11255 5.37025L 3.11255 5.37004L 3.11255 5.36983L 3.11255 5.36962L 3.11255 5.36941L 3.11255 5.3692L 3.11255 5.36899L 3.11255 5.36878L 3.11255 5.36857L 3.11255 5.36837L 3.11255 5.36816L 3.11255 5.36795L 3.11255 5.36774L 3.11255 5.36753L 3.11255 5.36732L 3.11255 5.36711L 3.11255 5.3669L 3.11255 5.36669L 3.11255 5.36648L 3.11255 5.36627L 3.11255 5.36606L 3.11255 5.36585L 3.11255 5.36564L 3.11255 5.36543L 3.11255 5.36522L 3.11255 5.36501L 3.11255 5.3648L 3.11255 5.36459L 3.11255 5.36438L 3.11255 5.36417L 3.11255 5.36396L 3.11255 5.36375L 3.11255 5.36354L 3.11255 5.36333L 3.11255 5.36312L 3.11255 5.36291L 3.11255 5.3627L 3.11255 5.36249L 3.11255 5.36229L 3.11255 5.36208L 3.11255 5.36187L 3.11255 5.36166L 3.11255 5.36145L 3.11255 5.36124L 3.11255 5.36103L 3.11255 5.36082L 3.11255 5.36061L 3.11255 5.3604L 3.11255 5.36019L 3.11255 5.35998L 3.11255 5.35977L 3.11255 5.35956L 3.11255 5.35935L 3.11255 5.35914L 3.11255 5.35893L 3.11255 5.35872L 3.11255 5.35851L 3.11255 5.3583L 3.11255 5.35809L 3.11255 5.35788L 3.11255 5.35767L 3.11255 5.35746L 3.11255 5.35725L 3.11255 5.35704L 3.11255 5.35683L 3.11255 5.35662L 3.11255 5.35641L 3.11255 5.35621L 3.11255 5.356L 3.11255 5.35579L 3.11255 5.35558L 3.11255 5.35537L 3.11255 5.35516L 3.11255 5.35495L 3.11255 5.35474L 3.11255 5.35453L 3.11255 5.35432L 3.11255 5.35411L 3.11255 5.3539L 3.11255 5.35369L 3.11255 5.35348L 3.11255 5.35327L 3.11255 5.35306L 3.11255 5.35285L 3.11255 5.35264L 3.11255 5.35243L 3.11255 5.35222L 3.11255 5.35201L 3.11255 5.3518L 3.11255 5.35159L 3.11255 5.35138L 3.11255 5.35117L 3.11255 5.35096L 3.11255 5.35075L 3.11255 5.35054L 3.11255 5.35034L 3.11255 5.35013L 3.11255 5.34992L 3.11255 5.34971L 3.11255 5.3495L 3.11255 5.34929L 3.11255 5.34908L 3.11255 5.34887L 3.11255 5.34866L 3.11255 5.34845L 3.11255 5.34824L 3.11255 5.34803L 3.11255 5.34782L 3.11255 5.34761L 3.11255 5.3474L 3.11255 5.34719L 3.11255 5.34698L 3.11255 5.34677L 3.11255 5.34656L 3.11255 5.34635L 3.11255 5.34614L 3.11255 5.34593L 3.11255 5.34572L 3.11255 5.34551L 3.11255 5.3453L 3.11255 5.34509L 3.11255 5.34488L 3.11255 5.34467L 3.11255 5.34446L 3.11255 5.34425L 3.11255 5.34405L 3.11255 5.34384L 3.11255 5.34363L 3.11255 5.34342L 3.11255 5.34321L 3.11255 5.343L 3.11255 5.34279L 3.11255 5.34258L 3.11255 5.34237L 3.11255 5.34216L 3.11255 5.34195L 3.11255 5.34174L 3.11255 5.34153L 3.11255 5.34132L 3.11255 5.34111L 3.11255 5.3409L 3.11255 5.34069L 3.11255 5.34048L 3.11255 5.34027L 3.11255 5.34006L 3.11255 5.33985L 3.11255 5.33964L 3.11255 5.33943L 3.11255 5.33922L 3.11255 5.33901L 3.11255 5.3388L 3.11255 5.33859L 3.11255 5.33839L 3.11255 5.33818L 3.11255 5.33797L 3.11255 5.33776L 3.11255 5.33755L 3.11255 5.33734L 3.11255 5.33713L 3.11255 5.33692L 3.11255 5.33671L 3.11255 5.3365L 3.11255 5.33629L 3.11255 5.33608L 3.11255 5.33587L 3.11255 5.33566L 3.11255 5.33545L 3.11255 5.33524L 3.11255 5.33503L 3.11255 5.33482L 3.11255 5.33461L 3.11255 5.3344L 3.11255 5.33419L 3.11255 5.33398L 3.11255 5.33377L 3.11255 5.33356L 3.11255 5.33335L 3.11255 5.33314L 3.11255 5.33293L 3.11255 5.33272L 3.11255 5.33251L 3.11255 5.3323L 3.11255 5.3321L 3.11255 5.33189L 3.11255 5.33168L 3.11255 5.33147L 3.11255 5.33126L 3.11255 5.33105L 3.11255 5.33084L 3.11255 5.33063L 3.11255 5.33042L 3.11255 5.33021L 3.11255 5.33L 3.11255 5.32979L 3.11255 5.32958L 3.11255 5.32937L 3.11255 5.32916L 3.11255 5.32895L 3.11255 5.32874L 3.11255 5.32853L 3.11255 5.32832L 3.11255 5.32811L 3.11255 5.3279L 3.11255 5.32769L 3.11255 5.32748L 3.11255 5.32727L 3.11255 5.32706L 3.11255 5.32685L 3.11255 5.32664L 3.11255 5.32643L 3.11255 5.32623L 3.11255 5.32602L 3.11255 5.32581L 3.11255 5.3256L 3.11255 5.32539L 3.11255 5.32518L 3.11255 5.32497L 3.11255 5.32476L 3.11255 5.32455L 3.11255 5.32434L 3.11255 5.32413L 3.11255 5.32392L 3.11255 5.32371L 3.11255 5.3235L 3.11255 5.32329L 3.11255 5.32308L 3.11255 5.32287L 3.11255 5.32266L 3.11255 5.32245L 3.11255 5.32224L 3.11255 5.32203L 3.11255 5.32182L 3.11255 5.32161L 3.11255 5.3214L 3.11255 5.32119L 3.11255 5.32098L 3.11255 5.32077L 3.11255 5.32056L 3.11255 5.32035L 3.11255 5.32015L 3.11255 5.31994L 3.11255 5.31973L 3.11255 5.31952L 3.11255 5.31931L 3.11255 5.3191L 3.11255 5.31889L 3.11255 5.31868L 3.11255 5.31847L 3.11255 5.31826L 3.11255 5.31805L 3.11255 5.31784L 3.11255 5.31763L 3.11255 5.31742L 3.11255 5.31721L 3.11255 5.317L 3.11255 5.31679L 3.11255 5.31658L 3.11255 5.31637L 3.11255 5.31616L 3.11255 5.31595L 3.11255 5.31574L 3.11255 5.31553L 3.11255 5.31532L 3.11255 5.31511L 3.11255 5.3149L 3.11255 5.31469L 3.11255 5.31448L 3.11255 5.31427L 3.11255 5.31407L 3.11255 5.31386L 3.11255 5.31365L 3.11255 5.31344L 3.11255 5.31323L 3.11255 5.31302L 3.11255 5.31281L 3.11255 5.3126L 3.11255 5.31239L 3.11255 5.31218L 3.11255 5.31197L 3.11255 5.31176L 3.11255 5.31155L 3.11255 5.31134L 3.11255 5.31113L 3.11255 5.31092L 3.11255 5.31071L 3.11255 5.3105L 3.11255 5.31029L 3.11255 5.31008L 3.11255 5.30987L 3.11255 5.30966L 3.11255 5.30945L 3.11255 5.30935C 3.09326 4.76876 3.1323 4.21762 3.4052 3.76399C 3.68565 3.29781 4.12555 3.06729 4.59479 2.94601C 5.02905 2.70322 5.55212 2.54187 6.12545 2.54187L 13.5384 2.54187C 13.9517 2.54187 14.3234 2.61864 14.6502 2.7356C 15.3145 2.81862 15.9027 3.08963 16.2592 3.66737C 16.5968 4.21461 16.629 4.89032 16.5513 5.5558L 16.5513 5.55645L 16.5512 5.57062L 16.5507 5.6267L 16.5491 5.84607L 16.5428 6.68403L 16.5202 9.71962C 16.5013 12.2573 16.4757 15.7023 16.4489 19.3319C 16.3955 26.5585 16.3372 34.5159 16.3175 37.4993C 16.4269 38.7226 15.3547 39.4652 14.3577 39.4652L 5.54021 39.4652C 4.3178 39.4652 3.26977 38.5342 3.26861 37.3218L 3.26862 37.3234L 4.01861 37.3198L 3.26861 37.3198L 3.11256 5.40663L 3.11254 5.40296ZM 16.1068 5.54838L 16.1068 5.54837L 15.8088 5.54614C 15.9255 5.54701 16.0239 5.54775 16.1068 5.54838Z" transform="translate(48.5806 22.5366)" fill="#B0E519"/>
<path fill-rule="evenodd" clip-rule="evenodd" d="M 2.77011 41.6865L 2.77579 41.6865C 7.49288 41.7223 12.249 41.7223 17.0052 41.6865L 17.0108 41.6865C 18.131 41.6865 18.5979 41.522 18.8186 41.3219C 19.015 41.1437 19.1868 40.7748 19.187 39.7898C 19.148 27.4085 19.148 14.9559 19.148 2.50468C 19.148 1.50794 19.0091 1.21316 18.8785 1.08889C 18.7295 0.946992 18.3675 0.804243 17.2749 0.785735C 15.1875 0.770564 13.0784 0.77488 10.9642 0.779206C 8.136 0.784994 5.29864 0.790801 2.4917 0.750002C 1.64761 0.750713 1.27111 0.92115 1.08717 1.10234C 0.906803 1.28 0.750613 1.6271 0.750001 2.39281C 0.808552 7.09497 0.801201 11.7989 0.793882 16.4815C 0.791448 18.0392 0.789017 19.5945 0.789017 21.1467L 0.789017 21.1834L 0.789017 21.2201L 0.789017 21.2567L 0.789017 21.2934L 0.789017 21.3301L 0.789017 21.3668L 0.789017 21.4035L 0.789017 21.4402L 0.789017 21.4769L 0.789017 21.5136L 0.789017 21.5503L 0.789017 21.587L 0.789017 21.6236L 0.789017 21.6603L 0.789017 21.697L 0.789017 21.7337L 0.789017 21.7704L 0.789017 21.8071L 0.789017 21.8438L 0.789017 21.8805L 0.789017 21.9172L 0.789017 21.9538L 0.789017 21.9905L 0.789017 22.0272L 0.789017 22.0639L 0.789017 22.1006L 0.789017 22.1373L 0.789017 22.174L 0.789017 22.2107L 0.789017 22.2474L 0.789017 22.284L 0.789017 22.3207L 0.789017 22.3574L 0.789017 22.3941L 0.789017 22.4308L 0.789017 22.4675L 0.789017 22.5042L 0.789017 22.5409L 0.789017 22.5776L 0.789017 22.6142L 0.789017 22.6509L 0.789017 22.6876L 0.789017 22.7243L 0.789017 22.761L 0.789017 22.7977L 0.789017 22.8344L 0.789017 22.8711L 0.789017 22.9078L 0.789017 22.9444L 0.789017 22.9811L 0.789017 23.0178L 0.789017 23.0545L 0.789017 23.0912L 0.789017 23.1279L 0.789017 23.1646L 0.789017 23.2013L 0.789017 23.2379L 0.789017 23.2746L 0.789017 23.3113L 0.789017 23.348L 0.789017 23.3847L 0.789017 23.4214L 0.789017 23.4581L 0.789017 23.4947L 0.789017 23.5314L 0.789017 23.5681L 0.789017 23.6048L 0.789017 23.6415L 0.789017 23.6782L 0.789017 23.7149L 0.789017 23.7515L 0.789017 23.7882L 0.789017 23.8249L 0.789017 23.8616L 0.789017 23.8983L 0.789017 23.935L 0.789017 23.9717L 0.789017 24.0083L 0.789017 24.045L 0.789017 24.0817L 0.789017 24.1184L 0.789017 24.1551L 0.789017 24.1918L 0.789017 24.2285L 0.789017 24.2651L 0.789017 24.3018L 0.789017 24.3385L 0.789017 24.3752L 0.789017 24.4119L 0.789017 24.4486L 0.789017 24.4852L 0.789017 24.5219L 0.789017 24.5586L 0.789017 24.5953L 0.789017 24.632L 0.789017 24.6687L 0.789017 24.7053L 0.789017 24.742L 0.789017 24.7787L 0.789017 24.8154L 0.789017 24.8521L 0.789017 24.8887L 0.789017 24.9254L 0.789017 24.9621L 0.789017 24.9988L 0.789017 25.0355L 0.789017 25.0721L 0.789017 25.1088L 0.789017 25.1455L 0.789017 25.1822L 0.789017 25.2189L 0.789017 25.2555L 0.789017 25.2922L 0.789017 25.3289L 0.789017 25.3656L 0.789017 25.4023L 0.789017 25.4389L 0.789017 25.4756L 0.789017 25.5123L 0.789017 25.549L 0.789017 25.5857L 0.789017 25.6223L 0.789017 25.659L 0.789017 25.6957L 0.789017 25.7324L 0.789017 25.769L 0.789017 25.8057L 0.789017 25.8424L 0.789017 25.8791L 0.789017 25.9158L 0.789017 25.9524L 0.789017 25.9891L 0.789017 26.0258L 0.789017 26.0625L 0.789017 26.0991L 0.789017 26.1358L 0.789017 26.1725L 0.789017 26.2092L 0.789017 26.2458L 0.789017 26.2825L 0.789017 26.3192L 0.789017 26.3559L 0.789017 26.3925L 0.789017 26.4292L 0.789017 26.4659L 0.789017 26.5025L 0.789017 26.5392L 0.789017 26.5759L 0.789017 26.6126L 0.789017 26.6492L 0.789017 26.6859L 0.789017 26.7226L 0.789017 26.7592L 0.789017 26.7959L 0.789017 26.8326L 0.789017 26.8693L 0.789017 26.9059L 0.789017 26.9426L 0.789017 26.9793L 0.789017 27.0159L 0.789017 27.0526L 0.789017 27.0893L 0.789017 27.1259L 0.789017 27.1626L 0.789017 27.1993L 0.789017 27.2359L 0.789017 27.2726L 0.789017 27.3093L 0.789017 27.3459L 0.789017 27.3826L 0.789017 27.4193L 0.789017 27.4559L 0.789017 27.4926L 0.789017 27.5293L 0.789017 27.5659L 0.789017 27.6026L 0.789017 27.6393L 0.789017 27.6759L 0.789017 27.7126L 0.789017 27.7493L 0.789017 27.7859L 0.789017 27.8226L 0.789017 27.8593L 0.789017 27.8959L 0.789017 27.9326L 0.789017 27.9692L 0.789017 28.0059L 0.789017 28.0426L 0.789017 28.0792L 0.789017 28.1159L 0.789017 28.1525L 0.789017 28.1892L 0.789017 28.2259L 0.789017 28.2625L 0.789017 28.2992L 0.789017 28.3358L 0.789017 28.3725L 0.789017 28.4092L 0.789017 28.4458L 0.789017 28.4825L 0.789017 28.5191L 0.789017 28.5558L 0.789017 28.5925L 0.789017 28.6291L 0.789017 28.6658L 0.789017 28.7024L 0.789017 28.7391L 0.789017 28.7757L 0.789017 28.8124L 0.789017 28.849L 0.789017 28.8857L 0.789017 28.9223L 0.789017 28.959L 0.789017 28.9957L 0.789017 29.0323L 0.789017 29.069L 0.789017 29.1056L 0.789017 29.1423L 0.789017 29.1789L 0.789017 29.2156L 0.789017 29.2522L 0.789017 29.2889L 0.789017 29.3255L 0.789017 29.3622L 0.789017 29.3988L 0.789017 29.4355L 0.789017 29.4721L 0.789017 29.5088L 0.789017 29.5454L 0.789017 29.5821L 0.789017 29.6187L 0.789017 29.6554L 0.789017 29.692L 0.789017 29.7286L 0.789017 29.7653L 0.789017 29.8019L 0.789017 29.8386L 0.789017 29.8752L 0.789017 29.9119L 0.789017 29.9485L 0.789017 29.9852L 0.789017 30.0218L 0.789017 30.0584L 0.789017 30.0951L 0.789017 30.1317L 0.789017 30.1684L 0.789017 30.205L 0.789017 30.2417L 0.789017 30.2783L 0.789017 30.3149L 0.789017 30.3516L 0.789017 30.3882L 0.789017 30.4249L 0.789017 30.4615L 0.789017 30.4981L 0.789017 30.5348L 0.789017 30.5714L 0.789017 30.608L 0.789017 30.6447L 0.789017 30.6813L 0.789017 30.7179L 0.789017 30.7546L 0.789017 30.7912L 0.789017 30.8278L 0.789017 30.8645L 0.789017 30.9011L 0.789017 30.9377L 0.789017 30.9744L 0.789017 31.011L 0.789017 31.0476L 0.789017 31.0843L 0.789017 31.1209L 0.789017 31.1575L 0.789017 31.1942L 0.789017 31.2308L 0.789017 31.2674L 0.789017 31.3041L 0.789017 31.3407L 0.789017 31.3773L 0.789017 31.4139L 0.789017 31.4506L 0.789017 31.4872L 0.789017 31.5238L 0.789017 31.5604L 0.789017 31.5971L 0.789017 31.6337L 0.789017 31.6703L 0.789017 31.7069L 0.789017 31.7436L 0.789017 31.7802L 0.789017 31.8168L 0.789017 31.8534L 0.789017 31.89L 0.789017 31.9267L 0.789017 31.9633L 0.789017 31.9999L 0.789017 32.0365L 0.789017 32.0732L 0.789017 32.1098L 0.789017 32.1464L 0.789017 32.183L 0.789017 32.2196L 0.789017 32.2562L 0.789017 32.2929L 0.789017 32.3295L 0.789017 32.3661L 0.789017 32.4027L 0.789017 32.4393L 0.789017 32.4759L 0.789017 32.5125L 0.789017 32.5492L 0.789017 32.5858L 0.789017 32.6224L 0.789017 32.659L 0.789017 32.6956L 0.789017 32.7322L 0.789017 32.7688L 0.789017 32.8054L 0.789017 32.842L 0.789017 32.8786L 0.789017 32.9152L 0.789017 32.9519L 0.789017 32.9885L 0.789017 33.0251L 0.789017 33.0617L 0.789017 33.0983L 0.789017 33.1349L 0.789017 33.1715L 0.789017 33.2081L 0.789017 33.2447L 0.789017 33.2813L 0.789017 33.3179L 0.789017 33.3545L 0.789017 33.3911L 0.789017 33.4277L 0.789017 33.4643L 0.789017 33.5009L 0.789017 33.5375L 0.789017 33.5741L 0.789017 33.6107L 0.789017 33.6473L 0.789017 33.6839L 0.789017 33.7205L 0.789017 33.7571L 0.789017 33.7937L 0.789017 33.8303L 0.789017 33.8669L 0.789017 33.9035L 0.789017 33.94L 0.789017 33.9766L 0.789017 34.0132L 0.789017 34.0498L 0.789017 34.0864L 0.789017 34.123L 0.789017 34.1596L 0.789017 34.1962L 0.789017 34.2328L 0.789017 34.2694L 0.789017 34.3059L 0.789017 34.3425L 0.789017 34.3791L 0.789017 34.4157L 0.789017 34.4523L 0.789017 34.4889L 0.789017 34.5254L 0.789017 34.562L 0.789017 34.5986L 0.789017 34.6352L 0.789017 34.6718L 0.789017 34.7084L 0.789017 34.7449L 0.789017 34.7815L 0.789017 34.8181L 0.789017 34.8547L 0.789017 34.8913L 0.789017 34.9278L 0.789017 34.9644L 0.789017 35.001L 0.789017 35.0376L 0.789017 35.0741L 0.789017 35.1107L 0.789017 35.1473L 0.789017 35.1838L 0.789017 35.2204L 0.789017 35.257L 0.789017 35.2936L 0.789017 35.3301L 0.789017 35.3667L 0.789017 35.4033L 0.789017 35.4398L 0.789017 35.4764L 0.789017 35.513L 0.789017 35.5495L 0.789017 35.5861L 0.789017 35.6227L 0.789017 35.6592L 0.789017 35.6958L 0.789017 35.7324L 0.789017 35.7689L 0.789017 35.8055L 0.789017 35.8421L 0.789017 35.8786L 0.789017 35.9152L 0.789017 35.9517L 0.789017 35.9883L 0.789017 36.0248L 0.789017 36.0614L 0.789017 36.098L 0.789017 36.1345L 0.789017 36.1711L 0.789017 36.2076L 0.789017 36.2442L 0.789017 36.2807L 0.789017 36.3173L 0.789017 36.3538L 0.789017 36.3904L 0.789017 36.4269L 0.789017 36.4635L 0.789017 36.5L 0.789017 36.5366L 0.789017 36.5731L 0.789017 36.6097L 0.789017 36.6462L 0.789017 36.6828L 0.789017 36.7193L 0.789017 36.7559L 0.789017 36.7924L 0.789017 36.829L 0.789017 36.8655L 0.789017 36.902L 0.789017 36.9386L 0.789017 36.9751L 0.789017 37.0117L 0.789017 37.0482L 0.789017 37.0847L 0.789017 37.1213L 0.789017 37.1578L 0.789017 37.1944L 0.789017 37.2309L 0.789017 37.2674L 0.789017 37.304L 0.789017 37.3405L 0.789017 37.377L 0.789017 37.4136L 0.789017 37.4501L 0.789017 37.4866L 0.789017 37.5232L 0.789017 37.5597L 0.789017 37.5962L 0.789017 37.6327L 0.789017 37.6693L 0.789017 37.7058L 0.789017 37.7423L 0.789017 37.7788L 0.789017 37.8154L 0.789017 37.8519L 0.789017 37.8884L 0.789017 37.9249L 0.789017 37.9615L 0.789017 37.998L 0.789017 38.0345L 0.789017 38.071L 0.789017 38.1075L 0.789017 38.1441L 0.789017 38.1806L 0.789017 38.2171L 0.789017 38.2536L 0.789017 38.2901L 0.789017 38.3266L 0.789017 38.3632L 0.789017 38.3997L 0.789017 38.4362L 0.789017 38.4727L 0.789017 38.5092L 0.789017 38.5457L 0.789017 38.5822L 0.789017 38.6187L 0.789017 38.6552L 0.789017 38.6917L 0.789017 38.7282L 0.789017 38.7647L 0.789017 38.8013L 0.789017 38.8378L 0.789017 38.8743L 0.789017 38.9108L 0.789017 38.9473L 0.789017 38.9838L 0.789017 39.0203L 0.789017 39.0568L 0.789017 39.0933L 0.789017 39.1298L 0.789017 39.1663L 0.789017 39.2027L 0.789017 39.2392L 0.789017 39.2757L 0.789017 39.3122L 0.789017 39.3487L 0.789017 39.3852L 0.789017 39.4217L 0.789017 39.4582L 0.789017 39.4947L 0.789017 39.5312L 0.789017 39.5677L 0.789017 39.6041L 0.789017 39.6406L 0.789017 39.6771L 0.789017 39.7136L 0.789017 39.7501L 0.789017 39.7866L 0.789017 39.8231L 0.789017 39.8595L 0.789017 39.896C 0.789017 40.9243 0.936509 41.2458 1.08405 41.3844C 1.24942 41.5397 1.64047 41.6865 2.77011 41.6865ZM 3.11254 5.40296L 3.11255 5.40296L 3.11255 5.40275L 3.11255 5.40254L 3.11255 5.40233L 3.11255 5.40212L 3.11255 5.40191L 3.11255 5.4017L 3.11255 5.40149L 3.11255 5.40128L 3.11255 5.40107L 3.11255 5.40086L 3.11255 5.40065L 3.11255 5.40044L 3.11255 5.40023L 3.11255 5.40002L 3.11255 5.39981L 3.11255 5.3996L 3.11255 5.39939L 3.11255 5.39918L 3.11255 5.39897L 3.11255 5.39876L 3.11255 5.39856L 3.11255 5.39835L 3.11255 5.39814L 3.11255 5.39793L 3.11255 5.39772L 3.11255 5.39751L 3.11255 5.3973L 3.11255 5.39709L 3.11255 5.39688L 3.11255 5.39667L 3.11255 5.39646L 3.11255 5.39625L 3.11255 5.39604L 3.11255 5.39583L 3.11255 5.39562L 3.11255 5.39541L 3.11255 5.3952L 3.11255 5.39499L 3.11255 5.39478L 3.11255 5.39457L 3.11255 5.39436L 3.11255 5.39415L 3.11255 5.39394L 3.11255 5.39373L 3.11255 5.39352L 3.11255 5.39331L 3.11255 5.3931L 3.11255 5.39289L 3.11255 5.39268L 3.11255 5.39248L 3.11255 5.39227L 3.11255 5.39206L 3.11255 5.39185L 3.11255 5.39164L 3.11255 5.39143L 3.11255 5.39122L 3.11255 5.39101L 3.11255 5.3908L 3.11255 5.39059L 3.11255 5.39038L 3.11255 5.39017L 3.11255 5.38996L 3.11255 5.38975L 3.11255 5.38954L 3.11255 5.38933L 3.11255 5.38912L 3.11255 5.38891L 3.11255 5.3887L 3.11255 5.38849L 3.11255 5.38828L 3.11255 5.38807L 3.11255 5.38786L 3.11255 5.38765L 3.11255 5.38744L 3.11255 5.38723L 3.11255 5.38702L 3.11255 5.38681L 3.11255 5.3866L 3.11255 5.38639L 3.11255 5.38619L 3.11255 5.38598L 3.11255 5.38577L 3.11255 5.38556L 3.11255 5.38535L 3.11255 5.38514L 3.11255 5.38493L 3.11255 5.38472L 3.11255 5.38451L 3.11255 5.3843L 3.11255 5.38409L 3.11255 5.38388L 3.11255 5.38367L 3.11255 5.38346L 3.11255 5.38325L 3.11255 5.38304L 3.11255 5.38283L 3.11255 5.38262L 3.11255 5.38241L 3.11255 5.3822L 3.11255 5.38199L 3.11255 5.38178L 3.11255 5.38157L 3.11255 5.38136L 3.11255 5.38115L 3.11255 5.38094L 3.11255 5.38073L 3.11255 5.38053L 3.11255 5.38032L 3.11255 5.38011L 3.11255 5.3799L 3.11255 5.37969L 3.11255 5.37948L 3.11255 5.37927L 3.11255 5.37906L 3.11255 5.37885L 3.11255 5.37864L 3.11255 5.37843L 3.11255 5.37822L 3.11255 5.37801L 3.11255 5.3778L 3.11255 5.37759L 3.11255 5.37738L 3.11255 5.37717L 3.11255 5.37696L 3.11255 5.37675L 3.11255 5.37654L 3.11255 5.37633L 3.11255 5.37612L 3.11255 5.37591L 3.11255 5.3757L 3.11255 5.37549L 3.11255 5.37528L 3.11255 5.37507L 3.11255 5.37486L 3.11255 5.37465L 3.11255 5.37444L 3.11255 5.37424L 3.11255 5.37403L 3.11255 5.37382L 3.11255 5.37361L 3.11255 5.3734L 3.11255 5.37319L 3.11255 5.37298L 3.11255 5.37277L 3.11255 5.37256L 3.11255 5.37235L 3.11255 5.37214L 3.11255 5.37193L 3.11255 5.37172L 3.11255 5.37151L 3.11255 5.3713L 3.11255 5.37109L 3.11255 5.37088L 3.11255 5.37067L 3.11255 5.37046L 3.11255 5.37025L 3.11255 5.37004L 3.11255 5.36983L 3.11255 5.36962L 3.11255 5.36941L 3.11255 5.3692L 3.11255 5.36899L 3.11255 5.36878L 3.11255 5.36857L 3.11255 5.36837L 3.11255 5.36816L 3.11255 5.36795L 3.11255 5.36774L 3.11255 5.36753L 3.11255 5.36732L 3.11255 5.36711L 3.11255 5.3669L 3.11255 5.36669L 3.11255 5.36648L 3.11255 5.36627L 3.11255 5.36606L 3.11255 5.36585L 3.11255 5.36564L 3.11255 5.36543L 3.11255 5.36522L 3.11255 5.36501L 3.11255 5.3648L 3.11255 5.36459L 3.11255 5.36438L 3.11255 5.36417L 3.11255 5.36396L 3.11255 5.36375L 3.11255 5.36354L 3.11255 5.36333L 3.11255 5.36312L 3.11255 5.36291L 3.11255 5.3627L 3.11255 5.36249L 3.11255 5.36229L 3.11255 5.36208L 3.11255 5.36187L 3.11255 5.36166L 3.11255 5.36145L 3.11255 5.36124L 3.11255 5.36103L 3.11255 5.36082L 3.11255 5.36061L 3.11255 5.3604L 3.11255 5.36019L 3.11255 5.35998L 3.11255 5.35977L 3.11255 5.35956L 3.11255 5.35935L 3.11255 5.35914L 3.11255 5.35893L 3.11255 5.35872L 3.11255 5.35851L 3.11255 5.3583L 3.11255 5.35809L 3.11255 5.35788L 3.11255 5.35767L 3.11255 5.35746L 3.11255 5.35725L 3.11255 5.35704L 3.11255 5.35683L 3.11255 5.35662L 3.11255 5.35641L 3.11255 5.35621L 3.11255 5.356L 3.11255 5.35579L 3.11255 5.35558L 3.11255 5.35537L 3.11255 5.35516L 3.11255 5.35495L 3.11255 5.35474L 3.11255 5.35453L 3.11255 5.35432L 3.11255 5.35411L 3.11255 5.3539L 3.11255 5.35369L 3.11255 5.35348L 3.11255 5.35327L 3.11255 5.35306L 3.11255 5.35285L 3.11255 5.35264L 3.11255 5.35243L 3.11255 5.35222L 3.11255 5.35201L 3.11255 5.3518L 3.11255 5.35159L 3.11255 5.35138L 3.11255 5.35117L 3.11255 5.35096L 3.11255 5.35075L 3.11255 5.35054L 3.11255 5.35034L 3.11255 5.35013L 3.11255 5.34992L 3.11255 5.34971L 3.11255 5.3495L 3.11255 5.34929L 3.11255 5.34908L 3.11255 5.34887L 3.11255 5.34866L 3.11255 5.34845L 3.11255 5.34824L 3.11255 5.34803L 3.11255 5.34782L 3.11255 5.34761L 3.11255 5.3474L 3.11255 5.34719L 3.11255 5.34698L 3.11255 5.34677L 3.11255 5.34656L 3.11255 5.34635L 3.11255 5.34614L 3.11255 5.34593L 3.11255 5.34572L 3.11255 5.34551L 3.11255 5.3453L 3.11255 5.34509L 3.11255 5.34488L 3.11255 5.34467L 3.11255 5.34446L 3.11255 5.34425L 3.11255 5.34405L 3.11255 5.34384L 3.11255 5.34363L 3.11255 5.34342L 3.11255 5.34321L 3.11255 5.343L 3.11255 5.34279L 3.11255 5.34258L 3.11255 5.34237L 3.11255 5.34216L 3.11255 5.34195L 3.11255 5.34174L 3.11255 5.34153L 3.11255 5.34132L 3.11255 5.34111L 3.11255 5.3409L 3.11255 5.34069L 3.11255 5.34048L 3.11255 5.34027L 3.11255 5.34006L 3.11255 5.33985L 3.11255 5.33964L 3.11255 5.33943L 3.11255 5.33922L 3.11255 5.33901L 3.11255 5.3388L 3.11255 5.33859L 3.11255 5.33839L 3.11255 5.33818L 3.11255 5.33797L 3.11255 5.33776L 3.11255 5.33755L 3.11255 5.33734L 3.11255 5.33713L 3.11255 5.33692L 3.11255 5.33671L 3.11255 5.3365L 3.11255 5.33629L 3.11255 5.33608L 3.11255 5.33587L 3.11255 5.33566L 3.11255 5.33545L 3.11255 5.33524L 3.11255 5.33503L 3.11255 5.33482L 3.11255 5.33461L 3.11255 5.3344L 3.11255 5.33419L 3.11255 5.33398L 3.11255 5.33377L 3.11255 5.33356L 3.11255 5.33335L 3.11255 5.33314L 3.11255 5.33293L 3.11255 5.33272L 3.11255 5.33251L 3.11255 5.3323L 3.11255 5.3321L 3.11255 5.33189L 3.11255 5.33168L 3.11255 5.33147L 3.11255 5.33126L 3.11255 5.33105L 3.11255 5.33084L 3.11255 5.33063L 3.11255 5.33042L 3.11255 5.33021L 3.11255 5.33L 3.11255 5.32979L 3.11255 5.32958L 3.11255 5.32937L 3.11255 5.32916L 3.11255 5.32895L 3.11255 5.32874L 3.11255 5.32853L 3.11255 5.32832L 3.11255 5.32811L 3.11255 5.3279L 3.11255 5.32769L 3.11255 5.32748L 3.11255 5.32727L 3.11255 5.32706L 3.11255 5.32685L 3.11255 5.32664L 3.11255 5.32643L 3.11255 5.32623L 3.11255 5.32602L 3.11255 5.32581L 3.11255 5.3256L 3.11255 5.32539L 3.11255 5.32518L 3.11255 5.32497L 3.11255 5.32476L 3.11255 5.32455L 3.11255 5.32434L 3.11255 5.32413L 3.11255 5.32392L 3.11255 5.32371L 3.11255 5.3235L 3.11255 5.32329L 3.11255 5.32308L 3.11255 5.32287L 3.11255 5.32266L 3.11255 5.32245L 3.11255 5.32224L 3.11255 5.32203L 3.11255 5.32182L 3.11255 5.32161L 3.11255 5.3214L 3.11255 5.32119L 3.11255 5.32098L 3.11255 5.32077L 3.11255 5.32056L 3.11255 5.32035L 3.11255 5.32015L 3.11255 5.31994L 3.11255 5.31973L 3.11255 5.31952L 3.11255 5.31931L 3.11255 5.3191L 3.11255 5.31889L 3.11255 5.31868L 3.11255 5.31847L 3.11255 5.31826L 3.11255 5.31805L 3.11255 5.31784L 3.11255 5.31763L 3.11255 5.31742L 3.11255 5.31721L 3.11255 5.317L 3.11255 5.31679L 3.11255 5.31658L 3.11255 5.31637L 3.11255 5.31616L 3.11255 5.31595L 3.11255 5.31574L 3.11255 5.31553L 3.11255 5.31532L 3.11255 5.31511L 3.11255 5.3149L 3.11255 5.31469L 3.11255 5.31448L 3.11255 5.31427L 3.11255 5.31407L 3.11255 5.31386L 3.11255 5.31365L 3.11255 5.31344L 3.11255 5.31323L 3.11255 5.31302L 3.11255 5.31281L 3.11255 5.3126L 3.11255 5.31239L 3.11255 5.31218L 3.11255 5.31197L 3.11255 5.31176L 3.11255 5.31155L 3.11255 5.31134L 3.11255 5.31113L 3.11255 5.31092L 3.11255 5.31071L 3.11255 5.3105L 3.11255 5.31029L 3.11255 5.31008L 3.11255 5.30987L 3.11255 5.30966L 3.11255 5.30945L 3.11255 5.30935C 3.09326 4.76876 3.1323 4.21762 3.4052 3.76399C 3.68565 3.29781 4.12555 3.06729 4.59479 2.94601C 5.02905 2.70322 5.55212 2.54187 6.12545 2.54187L 13.5384 2.54187C 13.9517 2.54187 14.3234 2.61864 14.6502 2.7356C 15.3145 2.81862 15.9027 3.08963 16.2592 3.66737C 16.5968 4.21461 16.629 4.89032 16.5513 5.5558L 16.5513 5.55645L 16.5512 5.57062L 16.5507 5.6267L 16.5491 5.84607L 16.5428 6.68403L 16.5202 9.71962C 16.5013 12.2573 16.4757 15.7023 16.4489 19.3319C 16.3955 26.5585 16.3372 34.5159 16.3175 37.4993C 16.4269 38.7226 15.3547 39.4652 14.3577 39.4652L 5.54021 39.4652C 4.3178 39.4652 3.26977 38.5342 3.26861 37.3218L 3.26862 37.3234L 4.01861 37.3198L 3.26861 37.3198L 3.11256 5.40663L 3.11254 5.40296ZM 16.1068 5.54838L 16.1068 5.54837L 15.8088 5.54614C 15.9255 5.54701 16.0239 5.54775 16.1068 5.54838Z" stroke-width="1.5" stroke-miterlimit="8" transform="translate(48.5806 22.5366)" stroke="#B0E519"/>
</g>
<g id="XMLID 22">
<path fill-rule="evenodd" clip-rule="evenodd" d="M 18.2794 2.71775L 18.2794 2.71535C 18.2966 1.89099 18.1428 1.43389 17.9436 1.18847C 17.7697 0.974287 17.4551 0.79397 16.7916 0.79397C 15.5918 0.79397 14.3953 0.782913 13.2016 0.771882C 10.4308 0.746276 7.67461 0.720807 4.92571 0.834046L 4.91757 0.834381L 4.91757 0.834337C 4.30006 0.853062 3.62102 0.947011 3.00483 1.13336C 2.38446 1.32097 1.88065 1.58613 1.55216 1.91224C 1.31737 2.15979 1.11973 2.63051 0.987882 3.307C 0.860439 3.96088 0.814945 4.69274 0.796513 5.35069C 0.740703 10.9913 0.747669 16.6078 0.754655 22.2405C 0.756988 24.1216 0.759323 26.0046 0.759323 27.8909C 0.759323 28.8487 0.941213 29.3097 1.16268 29.5461C 1.372 29.7695 1.76733 29.9501 2.61991 29.9501L 2.62646 29.9501L 2.62646 29.9501C 5.73288 29.9772 8.83565 29.9681 11.9325 29.9591C 13.4792 29.9546 15.0244 29.9501 16.5679 29.9501C 17.3046 29.9501 17.6867 29.7915 17.8961 29.5809C 18.1041 29.3717 18.2959 28.9553 18.2795 28.0712C 18.1994 25.1264 18.2146 22.1342 18.2298 19.1293C 18.2359 17.9256 18.242 16.72 18.242 15.5145C 18.242 14.4489 18.2397 13.3819 18.2373 12.3146C 18.2303 9.10917 18.2233 5.90076 18.2794 2.71775ZM 4.75187 27.3381L 4.74566 27.3382C 3.70796 27.3381 3.00896 26.4538 2.95283 25.5346L 2.95148 25.5125L 2.95143 25.4904L 2.91414 6.11149L 2.91414 6.11004C 2.91414 4.61916 4.04714 3.28374 5.56613 3.28374L 13.6962 3.28374C 15.2152 3.28374 16.3482 4.61916 16.3482 6.11004L 16.3482 25.427C 16.3977 26.4189 15.6112 27.2547 14.5949 27.2567C 14.5937 27.2567 14.5925 27.2567 14.5913 27.2567L 4.75187 27.3381Z" transform="translate(25.3743 34.2819)" fill="#B0E519"/>
<path fill-rule="evenodd" clip-rule="evenodd" d="M 18.2794 2.71775L 18.2794 2.71535C 18.2966 1.89099 18.1428 1.43389 17.9436 1.18847C 17.7697 0.974287 17.4551 0.79397 16.7916 0.79397C 15.5918 0.79397 14.3953 0.782913 13.2016 0.771882C 10.4308 0.746276 7.67461 0.720807 4.92571 0.834046L 4.91757 0.834381L 4.91757 0.834337C 4.30006 0.853062 3.62102 0.947011 3.00483 1.13336C 2.38446 1.32097 1.88065 1.58613 1.55216 1.91224C 1.31737 2.15979 1.11973 2.63051 0.987882 3.307C 0.860439 3.96088 0.814945 4.69274 0.796513 5.35069C 0.740703 10.9913 0.747669 16.6078 0.754655 22.2405C 0.756988 24.1216 0.759323 26.0046 0.759323 27.8909C 0.759323 28.8487 0.941213 29.3097 1.16268 29.5461C 1.372 29.7695 1.76733 29.9501 2.61991 29.9501L 2.62646 29.9501L 2.62646 29.9501C 5.73288 29.9772 8.83565 29.9681 11.9325 29.9591C 13.4792 29.9546 15.0244 29.9501 16.5679 29.9501C 17.3046 29.9501 17.6867 29.7915 17.8961 29.5809C 18.1041 29.3717 18.2959 28.9553 18.2795 28.0712C 18.1994 25.1264 18.2146 22.1342 18.2298 19.1293C 18.2359 17.9256 18.242 16.72 18.242 15.5145C 18.242 14.4489 18.2397 13.3819 18.2373 12.3146C 18.2303 9.10917 18.2233 5.90076 18.2794 2.71775ZM 4.75187 27.3381L 4.74566 27.3382C 3.70796 27.3381 3.00896 26.4538 2.95283 25.5346L 2.95148 25.5125L 2.95143 25.4904L 2.91414 6.11149L 2.91414 6.11004C 2.91414 4.61916 4.04714 3.28374 5.56613 3.28374L 13.6962 3.28374C 15.2152 3.28374 16.3482 4.61916 16.3482 6.11004L 16.3482 25.427C 16.3977 26.4189 15.6112 27.2547 14.5949 27.2567C 14.5937 27.2567 14.5925 27.2567 14.5913 27.2567L 4.75187 27.3381Z" stroke-width="1.5" stroke-miterlimit="8" transform="translate(25.3743 34.2819)" stroke="#B0E519"/>
</g>
</g>
</g>
</svg>

